<svg xmlns="http://www.w3.org/2000/svg" width="397" height="90" viewBox="0 0 397 90">
  <path fill="#E14594" fill-rule="evenodd" d="M292,31.037886 L292,27.032998 L308,27.032998 L308,36.544608 L308,67.081883 L307.999672,72.087993 C307.940561,81.990653 299.904481,90 290,90 C287.126316,90 284.409917,89.325765 282,88.12668 L282,75.212085 C282.909255,75.706334 283.926403,75.98289 285,75.98289 C288.569665,75.98289 291.515257,72.92547 291.945843,68.974335 L292,68.974335 L292,67.081883 L292,61.279611 C288.700089,65.362593 283.654532,67.973113 278,67.973113 C268.095519,67.973113 260.059439,59.963766 260.000328,50.061107 L260,36.043997 L260,27.032998 L276,27.032998 L276,46.947448 C276,51.371126 279.581722,54.957225 284,54.957225 C288.418278,54.957225 292,51.371126 292,46.947448 L292,31.037886 Z M396.992935,51.062329 L397,51.062329 L397,74.090438 L384,74.090438 L384,69.747372 C380.249691,72.848806 375.66052,74.360812 371.44255,74.360812 C357.635431,74.360812 347,64.109231 347,50.561718 C347,37.014205 358.192881,26.031775 372,26.031775 C385.807119,26.031775 397,37.014205 397,50.561718 C397,50.735799 396.997625,50.902532 396.992935,51.062329 Z M372.5,61.07455 C378.29899,61.07455 383,56.143663 383,50.061107 C383,43.97855 378.29899,39.047663 372.5,39.047663 C366.70101,39.047663 362,43.97855 362,50.061107 C362,56.143663 366.70101,61.07455 372.5,61.07455 Z M332.313708,23.656293 L321,12.3287575 L332.313708,1.0012221 L343.627417,12.3287575 L332.313708,23.656293 Z M340,42.05133 L339.999672,72.087993 C339.940561,81.990653 331.904481,90 322,90 C319.126316,90 316.409917,89.325765 314,88.12668 L314,75.212085 C314.909255,75.706334 315.926403,75.98289 317,75.98289 C320.569665,75.98289 323.515257,72.92547 323.945843,68.974335 L324,68.974335 L324,54.065995 L324,42.05133 L324,27.032998 L340,27.032998 L340,42.05133 Z M169,73.8628338 L169,26.8628338 L184,26.8628338 L184,32.6580227 C187.104083,28.8220271 191.752775,26.2873261 196.999995,26 L197,42.4304936 C196.052959,42.1330452 195.045206,41.9726914 194,41.9726914 C188.477153,41.9726914 184,46.4498439 184,51.9726914 L184,55.28736 L184,57.8628338 L184,73.8628338 L169,73.8628338 Z M151,51.8901424 L151,73.8901424 L135,73.8901424 L135,51.8901424 L135,39.8901424 L127,39.8901424 L127,26.7802849 L135,26.7802849 L135.000328,21.8901424 C135.059439,11.9995709 143.095519,4 153,4 C155.873684,4 158.590083,4.67341248 161,5.87103317 L161,18.7698642 C160.090745,18.2762183 159.073597,18 158,18 C154.430335,18 151.484743,21.0536884 151.054157,25 L151,25 L151,26.7802849 L161,26.7802849 L161,39.8901424 L151,39.8901424 L151,51.8901424 Z M4.26325642e-14,44.054619 L2.84217094e-14,24.029331 C27.5622312,24.182523 49.8582673,46.536951 49.8582673,74.090438 L29.8009259,74.090438 C29.8009259,57.596362 16.4847582,44.207391 2.84217094e-14,44.054619 Z M99.8582673,44.025288 C83.3735091,44.17806 70.0573414,57.567031 70.0573414,74.061107 L50,74.061107 C50,46.50762 72.2960361,24.153192 99.8582673,24 L99.8582673,44.025288 Z M50.2834654,-1.56319402e-13 L64.385513,14.1594192 L50.2834654,28.318838 L36.1814179,14.1594192 L50.2834654,-1.56319402e-13 Z M242.98528,54.832905 L217.707229,54.832905 C219.144007,59.5162717 222.762958,62.8081501 228.5,62.8081501 C232.411103,62.8081501 235.337816,61.278239 237.259836,58.8205276 L251.654386,58.8205276 C248.531818,68.1328372 240.123951,74.7710179 228,74.7710179 C212.439246,74.7710179 203,63.8359363 203,50.3468296 C203,36.8577228 214.192881,25.9226412 228,25.9226412 C241.807119,25.9226412 253,36.8577228 253,50.3468296 C253,51.8792459 252.878178,53.3787004 252.639399,54.832905 L244,54.832905 L242.98528,54.832905 Z M217.607497,44.8638485 L239.392503,44.8638485 C238.125416,40.1804818 234.782922,36.8886033 228.5,36.8886033 C222.217078,36.8886033 218.874584,40.1804818 217.607497,44.8638485 Z"/>
</svg>
