<svg xmlns="http://www.w3.org/2000/svg" width="80" height="19" viewBox="0 0 80 19">
    <g fill="#FFF" fill-rule="evenodd">
        <path d="M10.493.675l2.949 2.95-3.02 3.019-2.949-2.95zM10.492 8.361l2.95 2.95-3.02 3.019-2.95-2.95zM17.941.675l2.95 2.95-3.02 3.019-2.949-2.95z"/>
        <path fill-rule="nonzero" d="M0 .64h4.171v15.798H0z"/>
        <g>
            <path d="M79.999 10.674H80v4.91h-2.711v-.926a4.11 4.11 0 0 1-2.62.984c-2.879 0-5.097-2.186-5.097-5.075 0-2.888 2.335-5.23 5.214-5.23 2.88 0 5.214 2.342 5.214 5.23l-.001.107zM74.89 12.81c1.21 0 2.19-1.051 2.19-2.348s-.98-2.349-2.19-2.349c-1.209 0-2.19 1.052-2.19 2.349 0 1.297.981 2.348 2.19 2.348zM28.364 12.572v-1.28h2.085v-2.99h-2.085v-1.47h.01c.09-.843.705-1.495 1.45-1.495.223 0 .436.059.625.164V2.748a3.668 3.668 0 0 0-1.668-.4c-2.066 0-3.742 1.708-3.754 3.82v2.134h-1.669v2.99h1.669v4.482h3.337v-3.202zM37.578 10.353l-2.36-2.36 2.415-2.415 2.36 2.36zM66.428 4.803l-2.36-2.36L66.484.028l2.36 2.36zM68.059 8.753V5.55h-3.337v8.942h-.011c-.09.843-.704 1.495-1.449 1.495-.224 0-.436-.06-.626-.165v2.754c.503.256 1.07.4 1.669.4 2.065 0 3.741-1.708 3.754-3.82V8.753z"/>
            <path d="M31.91 12.169V5.55h3.336V15.584h-3.337V12.17zM48.173 11.528h-5.271c.3 1.003 1.054 1.708 2.25 1.708.816 0 1.426-.328 1.827-.854h3.002c-.65 1.994-2.404 3.416-4.933 3.416-3.245 0-5.214-2.342-5.214-5.23 0-2.89 2.335-5.23 5.214-5.23 2.88 0 5.214 2.34 5.214 5.23 0 .328-.025.649-.075.96H48.173zm-5.292-2.135h4.543c-.264-1.003-.961-1.708-2.272-1.708-1.31 0-2.007.705-2.271 1.708z"/>
            <g>
                <path d="M58.193 9.797V6.404h3.336v7.686h-3.336v-1.237a3.715 3.715 0 0 1-2.92 1.427c-2.066 0-3.742-1.708-3.754-3.82V5.552h3.337v4.246c0 .943.747 1.708 1.668 1.708.922 0 1.669-.765 1.669-1.708z"/>
                <path d="M61.53 8.753v6.404c-.013 2.112-1.689 3.82-3.755 3.82-.599 0-1.165-.144-1.668-.4v-2.754c.19.106.402.165.626.165.744 0 1.358-.652 1.448-1.495h.012V5.551h3.336v3.202z"/>
            </g>
        </g>
    </g>
</svg>
