<?xml version="1.0" encoding="UTF-8" standalone="no"?>
<!DOCTYPE svg PUBLIC "-//W3C//DTD SVG 1.1//EN"
 "http://www.w3.org/Graphics/SVG/1.1/DTD/svg11.dtd">
<!-- Generated by graphviz version 2.40.1 (20161225.0304)
 -->
<!-- Title: dependencies Pages: 1 -->
<svg width="504pt" height="284pt"
 viewBox="0.00 0.00 504.00 284.00" xmlns="http://www.w3.org/2000/svg" xmlns:xlink="http://www.w3.org/1999/xlink">
<g id="graph0" class="graph" transform="scale(1 1) rotate(0) translate(4 280)">
<title>dependencies</title>
<polygon fill="#ffffff" stroke="transparent" points="-4,4 -4,-280 500,-280 500,4 -4,4"/>
<text text-anchor="start" x="227.0091" y="-42.4" font-family="sans-serif" font-weight="bold" font-size="14.00" fill="#000000">Legend</text>
<polygon fill="#ffffb3" stroke="transparent" points="14,-10 14,-30 34,-30 34,-10 14,-10"/>
<text text-anchor="start" x="37.629" y="-15.4" font-family="sans-serif" font-size="14.00" fill="#000000"> &#160;Declarations</text>
<polygon fill="#8dd3c7" stroke="transparent" points="127,-10 127,-30 147,-30 147,-10 127,-10"/>
<text text-anchor="start" x="150.7251" y="-15.4" font-family="sans-serif" font-size="14.00" fill="#000000"> &#160;Module</text>
<polygon fill="#80b1d3" stroke="transparent" points="213,-10 213,-30 233,-30 233,-10 213,-10"/>
<text text-anchor="start" x="236.7812" y="-15.4" font-family="sans-serif" font-size="14.00" fill="#000000"> &#160;Bootstrap</text>
<polygon fill="#fdb462" stroke="transparent" points="310,-10 310,-30 330,-30 330,-10 310,-10"/>
<text text-anchor="start" x="333.6732" y="-15.4" font-family="sans-serif" font-size="14.00" fill="#000000"> &#160;Providers</text>
<polygon fill="#fb8072" stroke="transparent" points="406,-10 406,-30 426,-30 426,-10 406,-10"/>
<text text-anchor="start" x="429.7258" y="-15.4" font-family="sans-serif" font-size="14.00" fill="#000000"> &#160;Exports</text>
<g id="clust1" class="cluster">
<title>cluster_FjButtonModule</title>
<polygon fill="none" stroke="#000000" stroke-dasharray="1,5" points="118,-70 118,-268 378,-268 378,-70 118,-70"/>
</g>
<g id="clust2" class="cluster">
<title>cluster_FjButtonModule_declarations</title>
<polygon fill="none" stroke="#000000" points="234,-78 234,-130 370,-130 370,-78 234,-78"/>
</g>
<g id="clust4" class="cluster">
<title>cluster_FjButtonModule_imports</title>
<polygon fill="none" stroke="#000000" points="126,-78 126,-130 226,-130 226,-78 126,-78"/>
</g>
<g id="clust5" class="cluster">
<title>cluster_FjButtonModule_exports</title>
<polygon fill="none" stroke="#000000" points="179,-208 179,-260 317,-260 317,-208 179,-208"/>
</g>
<!-- ButtonComponent -->
<g id="node1" class="node">
<title>ButtonComponent</title>
<polygon fill="#ffffb3" stroke="#000000" points="361.9511,-122 242.0489,-122 242.0489,-86 361.9511,-86 361.9511,-122"/>
<text text-anchor="middle" x="302" y="-99.8" font-family="Times,serif" font-size="14.00" fill="#000000">ButtonComponent</text>
</g>
<!-- FjButtonModule -->
<g id="node2" class="node">
<title>FjButtonModule</title>
<polygon fill="#8dd3c7" stroke="#000000" points="302.8413,-187 299.8413,-191 278.8413,-191 275.8413,-187 193.1587,-187 193.1587,-151 302.8413,-151 302.8413,-187"/>
<text text-anchor="middle" x="248" y="-164.8" font-family="Times,serif" font-size="14.00" fill="#000000">FjButtonModule</text>
</g>
<!-- ButtonComponent&#45;&gt;FjButtonModule -->
<g id="edge1" class="edge">
<title>ButtonComponent&#45;&gt;FjButtonModule</title>
<path fill="none" stroke="#000000" d="M272.4727,-122.1061C272.4727,-122.1061 272.4727,-140.991 272.4727,-140.991"/>
<polygon fill="#000000" stroke="#000000" points="268.9727,-140.9909 272.4727,-150.991 275.9727,-140.991 268.9727,-140.9909"/>
</g>
<!-- ButtonComponent  -->
<g id="node4" class="node">
<title>ButtonComponent </title>
<polygon fill="#fb8072" stroke="#000000" points="309.4502,-252 186.5498,-252 186.5498,-216 309.4502,-216 309.4502,-252"/>
<text text-anchor="middle" x="248" y="-229.8" font-family="Times,serif" font-size="14.00" fill="#000000">ButtonComponent </text>
</g>
<!-- FjButtonModule&#45;&gt;ButtonComponent  -->
<g id="edge3" class="edge">
<title>FjButtonModule&#45;&gt;ButtonComponent </title>
<path fill="none" stroke="#000000" stroke-dasharray="5,2" d="M248,-187.1061C248,-187.1061 248,-205.991 248,-205.991"/>
<polygon fill="#000000" stroke="#000000" points="244.5001,-205.9909 248,-215.991 251.5001,-205.991 244.5001,-205.9909"/>
</g>
<!-- IconModule -->
<g id="node3" class="node">
<title>IconModule</title>
<polygon fill="#8dd3c7" stroke="#000000" points="218.4261,-122 215.4261,-126 194.4261,-126 191.4261,-122 133.5739,-122 133.5739,-86 218.4261,-86 218.4261,-122"/>
<text text-anchor="middle" x="176" y="-99.8" font-family="Times,serif" font-size="14.00" fill="#000000">IconModule</text>
</g>
<!-- IconModule&#45;&gt;FjButtonModule -->
<g id="edge2" class="edge">
<title>IconModule&#45;&gt;FjButtonModule</title>
<path fill="none" stroke="#000000" d="M205.7711,-122.1061C205.7711,-122.1061 205.7711,-140.991 205.7711,-140.991"/>
<polygon fill="#000000" stroke="#000000" points="202.2711,-140.9909 205.7711,-150.991 209.2711,-140.991 202.2711,-140.9909"/>
</g>
</g>
</svg>
