<?xml version="1.0" encoding="UTF-8" standalone="no"?>
<!DOCTYPE svg PUBLIC "-//W3C//DTD SVG 1.1//EN"
 "http://www.w3.org/Graphics/SVG/1.1/DTD/svg11.dtd">
<!-- Generated by graphviz version 2.40.1 (20161225.0304)
 -->
<!-- Title: dependencies Pages: 1 -->
<svg width="661pt" height="284pt"
 viewBox="0.00 0.00 661.00 284.00" xmlns="http://www.w3.org/2000/svg" xmlns:xlink="http://www.w3.org/1999/xlink">
<g id="graph0" class="graph" transform="scale(1 1) rotate(0) translate(4 280)">
<title>dependencies</title>
<polygon fill="#ffffff" stroke="transparent" points="-4,4 -4,-280 657,-280 657,4 -4,4"/>
<text text-anchor="start" x="305.5091" y="-42.4" font-family="sans-serif" font-weight="bold" font-size="14.00" fill="#000000">Legend</text>
<polygon fill="#ffffb3" stroke="transparent" points="92.5,-10 92.5,-30 112.5,-30 112.5,-10 92.5,-10"/>
<text text-anchor="start" x="116.129" y="-15.4" font-family="sans-serif" font-size="14.00" fill="#000000"> &#160;Declarations</text>
<polygon fill="#8dd3c7" stroke="transparent" points="205.5,-10 205.5,-30 225.5,-30 225.5,-10 205.5,-10"/>
<text text-anchor="start" x="229.2251" y="-15.4" font-family="sans-serif" font-size="14.00" fill="#000000"> &#160;Module</text>
<polygon fill="#80b1d3" stroke="transparent" points="291.5,-10 291.5,-30 311.5,-30 311.5,-10 291.5,-10"/>
<text text-anchor="start" x="315.2812" y="-15.4" font-family="sans-serif" font-size="14.00" fill="#000000"> &#160;Bootstrap</text>
<polygon fill="#fdb462" stroke="transparent" points="388.5,-10 388.5,-30 408.5,-30 408.5,-10 388.5,-10"/>
<text text-anchor="start" x="412.1732" y="-15.4" font-family="sans-serif" font-size="14.00" fill="#000000"> &#160;Providers</text>
<polygon fill="#fb8072" stroke="transparent" points="484.5,-10 484.5,-30 504.5,-30 504.5,-10 484.5,-10"/>
<text text-anchor="start" x="508.2258" y="-15.4" font-family="sans-serif" font-size="14.00" fill="#000000"> &#160;Exports</text>
<g id="clust1" class="cluster">
<title>cluster_NumberInputModule</title>
<polygon fill="none" stroke="#000000" stroke-dasharray="1,5" points="8,-70 8,-268 645,-268 645,-70 8,-70"/>
</g>
<g id="clust2" class="cluster">
<title>cluster_NumberInputModule_declarations</title>
<polygon fill="none" stroke="#000000" points="431,-78 431,-130 637,-130 637,-78 431,-78"/>
</g>
<g id="clust4" class="cluster">
<title>cluster_NumberInputModule_imports</title>
<polygon fill="none" stroke="#000000" points="150,-78 150,-130 423,-130 423,-78 150,-78"/>
</g>
<g id="clust5" class="cluster">
<title>cluster_NumberInputModule_exports</title>
<polygon fill="none" stroke="#000000" points="174,-208 174,-260 384,-260 384,-208 174,-208"/>
</g>
<g id="clust7" class="cluster">
<title>cluster_NumberInputModule_providers</title>
<polygon fill="none" stroke="#000000" points="16,-78 16,-130 142,-130 142,-78 16,-78"/>
</g>
<!-- DemoNumberInputComponent -->
<g id="node1" class="node">
<title>DemoNumberInputComponent</title>
<polygon fill="#ffffb3" stroke="#000000" points="629.4678,-122 438.5322,-122 438.5322,-86 629.4678,-86 629.4678,-122"/>
<text text-anchor="middle" x="534" y="-99.8" font-family="Times,serif" font-size="14.00" fill="#000000">DemoNumberInputComponent</text>
</g>
<!-- NumberInputModule -->
<g id="node2" class="node">
<title>NumberInputModule</title>
<polygon fill="#8dd3c7" stroke="#000000" points="346.4734,-187 343.4734,-191 322.4734,-191 319.4734,-187 211.5266,-187 211.5266,-151 346.4734,-151 346.4734,-187"/>
<text text-anchor="middle" x="279" y="-164.8" font-family="Times,serif" font-size="14.00" fill="#000000">NumberInputModule</text>
</g>
<!-- DemoNumberInputComponent&#45;&gt;NumberInputModule -->
<g id="edge1" class="edge">
<title>DemoNumberInputComponent&#45;&gt;NumberInputModule</title>
<path fill="none" stroke="#000000" d="M534,-122.1061C534,-141.3391 534,-169 534,-169 534,-169 356.6658,-169 356.6658,-169"/>
<polygon fill="#000000" stroke="#000000" points="356.6659,-165.5001 346.6658,-169 356.6658,-172.5001 356.6659,-165.5001"/>
</g>
<!-- DemoNumberInputComponent  -->
<g id="node5" class="node">
<title>DemoNumberInputComponent </title>
<polygon fill="#fb8072" stroke="#000000" points="376.4684,-252 181.5316,-252 181.5316,-216 376.4684,-216 376.4684,-252"/>
<text text-anchor="middle" x="279" y="-229.8" font-family="Times,serif" font-size="14.00" fill="#000000">DemoNumberInputComponent </text>
</g>
<!-- NumberInputModule&#45;&gt;DemoNumberInputComponent  -->
<g id="edge4" class="edge">
<title>NumberInputModule&#45;&gt;DemoNumberInputComponent </title>
<path fill="none" stroke="#000000" stroke-dasharray="5,2" d="M279,-187.1061C279,-187.1061 279,-205.991 279,-205.991"/>
<polygon fill="#000000" stroke="#000000" points="275.5001,-205.9909 279,-215.991 282.5001,-205.991 275.5001,-205.9909"/>
</g>
<!-- ContentWrapModule -->
<g id="node3" class="node">
<title>ContentWrapModule</title>
<polygon fill="#8dd3c7" stroke="#000000" points="415.472,-122 412.472,-126 391.472,-126 388.472,-122 280.528,-122 280.528,-86 415.472,-86 415.472,-122"/>
<text text-anchor="middle" x="348" y="-99.8" font-family="Times,serif" font-size="14.00" fill="#000000">ContentWrapModule</text>
</g>
<!-- ContentWrapModule&#45;&gt;NumberInputModule -->
<g id="edge2" class="edge">
<title>ContentWrapModule&#45;&gt;NumberInputModule</title>
<path fill="none" stroke="#000000" d="M313.5004,-122.1061C313.5004,-122.1061 313.5004,-140.991 313.5004,-140.991"/>
<polygon fill="#000000" stroke="#000000" points="310.0004,-140.9909 313.5004,-150.991 317.0004,-140.991 310.0004,-140.9909"/>
</g>
<!-- SubNavModule -->
<g id="node4" class="node">
<title>SubNavModule</title>
<polygon fill="#8dd3c7" stroke="#000000" points="262.1542,-122 259.1542,-126 238.1542,-126 235.1542,-122 157.8458,-122 157.8458,-86 262.1542,-86 262.1542,-122"/>
<text text-anchor="middle" x="210" y="-99.8" font-family="Times,serif" font-size="14.00" fill="#000000">SubNavModule</text>
</g>
<!-- SubNavModule&#45;&gt;NumberInputModule -->
<g id="edge3" class="edge">
<title>SubNavModule&#45;&gt;NumberInputModule</title>
<path fill="none" stroke="#000000" d="M236.9201,-122.1061C236.9201,-122.1061 236.9201,-140.991 236.9201,-140.991"/>
<polygon fill="#000000" stroke="#000000" points="233.4201,-140.9909 236.9201,-150.991 240.4201,-140.991 233.4201,-140.9909"/>
</g>
<!-- TextHelper -->
<g id="node6" class="node">
<title>TextHelper</title>
<ellipse fill="#fdb462" stroke="#000000" cx="79" cy="-104" rx="55.013" ry="18"/>
<text text-anchor="middle" x="79" y="-99.8" font-family="Times,serif" font-size="14.00" fill="#000000">TextHelper</text>
</g>
<!-- TextHelper&#45;&gt;NumberInputModule -->
<g id="edge5" class="edge">
<title>TextHelper&#45;&gt;NumberInputModule</title>
<path fill="none" stroke="#000000" d="M79,-122.1061C79,-141.3391 79,-169 79,-169 79,-169 201.2891,-169 201.2891,-169"/>
<polygon fill="#000000" stroke="#000000" points="201.2892,-172.5001 211.2891,-169 201.2891,-165.5001 201.2892,-172.5001"/>
</g>
</g>
</svg>
