<?xml version="1.0" standalone="no"?>
<!DOCTYPE svg PUBLIC "-//W3C//DTD SVG 1.1//EN" "http://www.w3.org/Graphics/SVG/1.1/DTD/svg11.dtd" >
<svg>
<metadata>
Created by FontForge 20090622 at Thu Oct 18 10:37:47 2018
 By deploy user
Copyright (c) 2015 by Process Type Foundry. All rights reserved.
</metadata>
<defs>
<font id="Scandia-Regular" horiz-adv-x="658" >
  <font-face 
    font-family="Scandia Regular"
    font-weight="400"
    font-stretch="normal"
    units-per-em="1000"
    panose-1="2 11 6 3 5 0 0 2 0 4"
    ascent="750"
    descent="-250"
    x-height="492"
    cap-height="700"
    bbox="-72 -250 1302 975"
    underline-thickness="40"
    underline-position="-60"
    unicode-range="U+0020-U+FB02"
  />
<missing-glyph horiz-adv-x="736" 
d="M100 0v700h536v-700h-536zM119 18h498v664h-498v-664zM368 377l93 93l27 -27l-93 -93l93 -93l-27 -27l-93 94l-92 -94l-28 27l94 93l-94 93l27 27z" />
    <glyph glyph-name="fi" unicode="fi" horiz-adv-x="572" 
d="M102 0v427h-92v65h92v70q0 93 41 136.5t128 43.5q39 0 55 -7v-65q-15 6 -43 6q-57 0 -80 -26.5t-23 -88.5v-69h142v-65h-142v-427h-78zM489 0h-78v492h78v-492zM399 661q0 21 14.5 35.5t36.5 14.5t36.5 -14.5t14.5 -35.5t-14.5 -35.5t-36.5 -14.5t-36.5 14.5t-14.5 35.5z
" />
    <glyph glyph-name="fl" unicode="fl" horiz-adv-x="574" 
d="M102 0v427h-92v65h92v70q0 92 41 136t129 44q42 0 61 -8v-65q-17 7 -49 7q-58 0 -81 -26.5t-23 -88.5v-69h148v-65h-148v-427h-78zM494 0h-78v730h78v-730z" />
    <glyph glyph-name=".notdef" horiz-adv-x="736" 
d="M100 0v700h536v-700h-536zM119 18h498v664h-498v-664zM368 377l93 93l27 -27l-93 -93l93 -93l-27 -27l-93 94l-92 -94l-28 27l94 93l-94 93l27 27z" />
    <glyph glyph-name=".null" horiz-adv-x="0" 
 />
    <glyph glyph-name="nonmarkingreturn" horiz-adv-x="333" 
 />
    <glyph glyph-name="space" unicode=" " horiz-adv-x="240" 
 />
    <glyph glyph-name="exclam" unicode="!" horiz-adv-x="264" 
d="M156 174h-48l-22 526h92zM78 44q0 22 15 37t39 15t39 -15t15 -37t-15 -37t-39 -15t-39 15t-15 37z" />
    <glyph glyph-name="quotedbl" unicode="&#x22;" horiz-adv-x="445" 
d="M148 437h-68v263h68v-263zM365 437h-68v263h68v-263z" />
    <glyph glyph-name="numbersign" unicode="#" horiz-adv-x="693" 
d="M641 514v-57h-112l-36 -210h120v-57h-130l-33 -190h-64l33 190h-200l-33 -190h-64l33 190h-103v57h113l36 210h-116v57h126l32 186h64l-32 -186h200l32 186h64l-32 -186h102zM265 457l-36 -210h200l36 210h-200z" />
    <glyph glyph-name="dollar" unicode="$" horiz-adv-x="513" 
d="M55 179h71q7 -54 41.5 -85t93.5 -31q56 0 92 34t36 88q0 52 -35 83t-112 64q-92 39 -136 82t-44 111q0 69 43.5 116t112.5 55v107h74v-109q66 -10 105 -57t44 -119h-72q-2 50 -33 84.5t-83 34.5q-51 0 -84 -29t-33 -78q0 -48 32 -76t102 -58q42 -18 70 -33.5t59.5 -40.5
t47.5 -57t16 -72q0 -75 -45.5 -124t-115.5 -63v-113h-74v110q-72 9 -117.5 56t-55.5 120z" />
    <glyph glyph-name="percent" unicode="%" horiz-adv-x="918" 
d="M199 0l451 700h69l-451 -700h-69zM416 533q0 -72 -50.5 -124.5t-131.5 -52.5t-131.5 52.5t-50.5 124.5t50.5 124.5t131.5 52.5t131.5 -52.5t50.5 -124.5zM356 533q0 52 -33.5 88.5t-88.5 36.5q-56 0 -89 -36.5t-33 -88.5q0 -53 33 -89t89 -36q55 0 88.5 36t33.5 89z
M866 167q0 -72 -50.5 -124.5t-131.5 -52.5t-131.5 52.5t-50.5 124.5t50.5 124.5t131.5 52.5t131.5 -52.5t50.5 -124.5zM806 167q0 52 -33.5 88.5t-88.5 36.5q-56 0 -89 -36.5t-33 -88.5q0 -53 33 -89t89 -36q55 0 88.5 36t33.5 89z" />
    <glyph glyph-name="ampersand" unicode="&#x26;" horiz-adv-x="718" 
d="M685 0h-82l-80 104q-82 -118 -225 -118q-103 0 -169.5 62t-66.5 157q0 91 58.5 149t150.5 82l-200 261v3h453v-64h-316l310 -411l70 154h76l-102 -215zM302 48q116 0 182 109l-177 231q-82 -27 -126.5 -69.5t-44.5 -115.5q0 -70 46.5 -112.5t119.5 -42.5z" />
    <glyph glyph-name="quotesingle" unicode="'" horiz-adv-x="228" 
d="M148 437h-68v263h68v-263z" />
    <glyph glyph-name="parenleft" unicode="(" horiz-adv-x="353" 
d="M240 782h78q-81 -131 -118.5 -237t-37.5 -221t37.5 -221t118.5 -237h-78q-155 228 -155 458t155 458z" />
    <glyph glyph-name="parenright" unicode=")" horiz-adv-x="353" 
d="M35 782h78q155 -228 155 -458t-155 -458h-78q81 131 118.5 237t37.5 221t-37.5 221t-118.5 237z" />
    <glyph glyph-name="asterisk" unicode="*" horiz-adv-x="460" 
d="M369 421l-118 70v-138h-41v138l-119 -70l-21 35l121 70l-121 70l21 36l119 -72v140h41v-140l118 72l21 -36l-120 -70l120 -70z" />
    <glyph glyph-name="plus" unicode="+" horiz-adv-x="596" 
d="M262 120v207h-192v66h192v207h72v-207h192v-66h-192v-207h-72z" />
    <glyph glyph-name="comma" unicode="," horiz-adv-x="261" 
d="M38 -136l65 244h92l-88 -244h-69z" />
    <glyph glyph-name="hyphen" unicode="-" horiz-adv-x="428" 
d="M65 265v66h298v-66h-298z" />
    <glyph glyph-name="period" unicode="." horiz-adv-x="248" 
d="M70 44q0 22 15 37t39 15t39 -15t15 -37t-15 -37t-39 -15t-39 15t-15 37z" />
    <glyph glyph-name="slash" unicode="/" horiz-adv-x="523" 
d="M40 -105l362 855h76l-362 -855h-76z" />
    <glyph glyph-name="zero" unicode="0" horiz-adv-x="614" 
d="M307 -14q-114 0 -180.5 70.5t-66.5 184.5v218q0 114 66.5 184.5t180.5 70.5q113 0 180 -71t67 -184v-218q0 -113 -67 -184t-180 -71zM476 236v228q0 79 -44.5 130.5t-124.5 51.5t-124.5 -51.5t-44.5 -130.5v-228q0 -79 44.5 -130.5t124.5 -51.5t124.5 51.5t44.5 130.5z
" />
    <glyph glyph-name="one" unicode="1" horiz-adv-x="374" 
d="M201 0v601l-174 -63v72l249 95h3v-705h-78z" />
    <glyph glyph-name="two" unicode="2" horiz-adv-x="554" 
d="M136 496h-75q4 104 63 161t157 57q92 0 152.5 -57.5t60.5 -142.5q0 -86 -88 -187l-222 -259h313v-68h-455v4l301 363q38 46 55.5 77.5t17.5 69.5q0 57 -38 94.5t-97 37.5q-66 0 -103 -39.5t-42 -110.5z" />
    <glyph glyph-name="three" unicode="3" horiz-adv-x="575" 
d="M78 632v68h417v-4l-223 -294h14q101 0 167 -55.5t66 -145.5q0 -94 -69 -154.5t-163 -60.5t-157 55t-72 147h74q8 -63 49 -99.5t106 -36.5q69 0 112 41t43 105q0 65 -45 103.5t-124 38.5h-131v5l216 287h-280z" />
    <glyph glyph-name="four" unicode="4" horiz-adv-x="576" 
d="M259 700h74l-203 -468h236v167h74v-167h98v-65h-98v-167h-74v167h-340v3z" />
    <glyph glyph-name="five" unicode="5" horiz-adv-x="571" 
d="M55 172h76q14 -53 54 -85.5t103 -32.5q70 0 114 42.5t44 107.5q0 63 -43 102t-118 39h-203l56 355h328v-69h-265l-32 -219h124q101 0 165 -57t64 -149q0 -93 -66.5 -156.5t-166.5 -63.5q-93 0 -154.5 51.5t-79.5 134.5z" />
    <glyph glyph-name="six" unicode="6" horiz-adv-x="586" 
d="M273 700h81l-180 -317q48 62 141 62t157 -65t64 -162q0 -96 -68.5 -164t-174.5 -68q-103 0 -171 67t-68 168q0 70 36 139zM129 213q0 -71 45.5 -116t118.5 -45q75 0 120.5 47.5t45.5 115.5q0 70 -42.5 116.5t-117.5 46.5q-73 0 -121.5 -47.5t-48.5 -117.5z" />
    <glyph glyph-name="seven" unicode="7" horiz-adv-x="500" 
d="M90 0l282 632h-333v68h442v-3l-311 -697h-80z" />
    <glyph glyph-name="eight" unicode="8" horiz-adv-x="592" 
d="M296 -14q-109 0 -174 57.5t-65 143.5q0 72 36 117t96 63q-46 21 -75 62.5t-29 100.5q0 81 57.5 132.5t153.5 51.5t153.5 -51.5t57.5 -132.5q0 -59 -29 -100.5t-75 -62.5q60 -18 96 -63t36 -117q0 -86 -65 -143.5t-174 -57.5zM296 47q74 0 119 39t45 101q0 67 -44.5 106.5
t-119.5 39.5t-119.5 -39.5t-44.5 -106.5q0 -62 45 -101t119 -39zM296 394q62 0 100 38.5t38 96.5q0 56 -37 91t-101 35t-101 -35t-37 -91q0 -58 38 -96.5t100 -38.5z" />
    <glyph glyph-name="nine" unicode="9" horiz-adv-x="586" 
d="M313 0h-80l175 316q-47 -61 -137 -61q-93 0 -157 65.5t-64 161.5q0 97 67 164.5t176 67.5q104 0 171.5 -67t67.5 -168q0 -70 -36 -139zM457 487q0 71 -45.5 116t-118.5 45q-75 0 -120.5 -47.5t-45.5 -115.5q0 -71 42.5 -117t117.5 -46q73 0 121.5 47.5t48.5 117.5z" />
    <glyph glyph-name="colon" unicode=":" horiz-adv-x="248" 
d="M70 356q0 22 15 37t39 15t39 -15t15 -37t-15 -37t-39 -15t-39 15t-15 37zM70 44q0 22 15 37t39 15t39 -15t15 -37t-15 -37t-39 -15t-39 15t-15 37z" />
    <glyph glyph-name="semicolon" unicode=";" horiz-adv-x="277" 
d="M38 -136l65 244h92l-88 -244h-69zM99 356q0 22 15 37t39 15t39 -15t15 -37t-15 -37t-39 -15t-39 15t-15 37z" />
    <glyph glyph-name="less" unicode="&#x3c;" horiz-adv-x="565" 
d="M171 360l319 -155v-76l-455 231l455 231v-76z" />
    <glyph glyph-name="equal" unicode="=" horiz-adv-x="576" 
d="M70 451v65h436v-65h-436zM70 204v65h436v-65h-436z" />
    <glyph glyph-name="greater" unicode="&#x3e;" horiz-adv-x="565" 
d="M75 205l319 155l-319 155v76l455 -231l-455 -231v76z" />
    <glyph glyph-name="question" unicode="?" horiz-adv-x="507" 
d="M203 179v37q0 58 20 94.5t67 78.5q44 40 66.5 72.5t22.5 71.5q0 53 -35 83t-88 30q-59 0 -93.5 -36t-34.5 -103h-76q1 100 56.5 153.5t148.5 53.5q85 0 142.5 -49t57.5 -132q0 -52 -23.5 -90t-71.5 -84q-5 -5 -19.5 -18.5t-19 -18t-14.5 -16t-13.5 -19l-9 -20t-7 -26
t-1.5 -30.5v-32h-75zM190 44q0 22 15 37t39 15t39 -15t15 -37t-15 -37t-39 -15t-39 15t-15 37z" />
    <glyph glyph-name="at" unicode="@" horiz-adv-x="971" 
d="M632 485h63l-31 -155q-15 -75 4.5 -123t72.5 -48q56 0 81 58t25 141q0 131 -88.5 220t-246.5 89q-168 0 -274.5 -109t-106.5 -273q0 -161 98.5 -254t252.5 -93q137 0 233 40v-48q-92 -40 -238 -40q-170 0 -286 109t-116 286q0 184 124 306.5t316 122.5
q179 0 282.5 -103.5t103.5 -252.5q0 -48 -8.5 -90t-26.5 -78t-50 -56.5t-75 -20.5q-60 0 -92 34t-36 85q-19 -45 -64 -74t-99 -29q-71 0 -115 48t-44 119q0 83 51.5 140.5t131.5 57.5q52 0 90 -24t52 -66zM480 443q-57 0 -91.5 -43.5t-34.5 -103.5q0 -54 28 -84.5t82 -30.5
q55 0 93 43t38 102q0 51 -32 84t-83 33z" />
    <glyph glyph-name="A" unicode="A" horiz-adv-x="720" 
d="M604 0l-61 151h-366l-61 -151h-83l294 700h66l294 -700h-83zM360 608l-156 -390h312z" />
    <glyph glyph-name="B" unicode="B" horiz-adv-x="642" 
d="M543 524q0 -52 -30 -94t-73 -63q72 -13 116 -60.5t44 -114.5q0 -84 -63 -138t-167 -54h-280v700h260q86 0 139.5 -49t53.5 -127zM169 65h185q79 0 123 35.5t44 97.5q0 57 -44.5 94t-115.5 37h-192v-264zM169 636v-243h168q57 0 92.5 36t35.5 88q0 53 -38 86t-99 33h-159z
" />
    <glyph glyph-name="C" unicode="C" horiz-adv-x="807" 
d="M423 714q118 0 207.5 -59t128.5 -156h-79q-37 67 -103 106t-154 39q-128 0 -210.5 -84t-82.5 -210t82.5 -210t210.5 -84q88 0 154 39t103 106h79q-39 -97 -128.5 -156t-207.5 -59q-161 0 -267 104.5t-106 259.5t106 259.5t267 104.5z" />
    <glyph glyph-name="D" unicode="D" horiz-adv-x="738" 
d="M278 0h-188v700h188q196 0 303 -100t107 -250t-107 -250t-303 -100zM169 632v-564h103q162 0 249 77.5t87 204.5t-87 204.5t-249 77.5h-103z" />
    <glyph glyph-name="E" unicode="E" horiz-adv-x="581" 
d="M90 0v700h442v-70h-362v-239h353v-70h-353v-251h366v-70h-446z" />
    <glyph glyph-name="F" unicode="F" horiz-adv-x="546" 
d="M170 0h-80v700h423v-70h-343v-251h334v-70h-334v-309z" />
    <glyph glyph-name="G" unicode="G" horiz-adv-x="838" 
d="M758 502h-80q-37 66 -102 104t-152 38q-130 0 -212 -82.5t-82 -211.5q0 -131 82.5 -213.5t211.5 -82.5q111 0 182 57t97 150h-321v66h406q-9 -145 -108 -243t-256 -98q-161 0 -267.5 104.5t-106.5 259.5q0 157 105 260.5t269 103.5q116 0 202.5 -55.5t131.5 -156.5z" />
    <glyph glyph-name="H" unicode="H" horiz-adv-x="753" 
d="M90 0v700h80v-310h413v310h80v-700h-80v316h-413v-316h-80z" />
    <glyph glyph-name="I" unicode="I" horiz-adv-x="268" 
d="M94 0v700h80v-700h-80z" />
    <glyph glyph-name="J" unicode="J" horiz-adv-x="630" 
d="M85 631v69h457v-482q0 -98 -67 -165t-175 -67q-105 0 -168 62t-74 164h75q21 -157 167 -157q74 0 118 44t44 119v413h-377z" />
    <glyph glyph-name="K" unicode="K" horiz-adv-x="654" 
d="M90 0v700h80v-337l348 337h96l-352 -344l367 -356h-99l-360 350v-350h-80z" />
    <glyph glyph-name="L" unicode="L" horiz-adv-x="554" 
d="M90 0v700h80v-630h345v-70h-425z" />
    <glyph glyph-name="M" unicode="M" horiz-adv-x="870" 
d="M709 531l-274 -541l-274 541v-531h-71v700h62l283 -570l283 570h62v-700h-71v531z" />
    <glyph glyph-name="N" unicode="N" horiz-adv-x="773" 
d="M90 0v700h62l457 -575v575h74v-700h-62l-457 575v-575h-74z" />
    <glyph glyph-name="O" unicode="O" horiz-adv-x="844" 
d="M50 350q0 155 106 259.5t266 104.5t266 -104.5t106 -259.5t-106 -259.5t-266 -104.5t-266 104t-106 260zM422 644q-128 0 -210 -84.5t-82 -209.5q0 -124 82 -209t210 -85t210 85t82 209q0 125 -81.5 209.5t-210.5 84.5z" />
    <glyph glyph-name="P" unicode="P" horiz-adv-x="614" 
d="M344 218h-174v-218h-80v700h254q110 0 180 -70.5t70 -169.5t-70.5 -170.5t-179.5 -71.5zM170 287h166q83 0 131 51.5t48 121.5t-48 120.5t-131 50.5h-166v-344z" />
    <glyph glyph-name="Q" unicode="Q" horiz-adv-x="844" 
d="M50 350q0 155 106 259.5t266 104.5t266 -104.5t106 -259.5q0 -92 -39.5 -168.5t-108.5 -126.5l95 -125h-85l-69 91q-68 -35 -165 -35q-160 0 -266 104t-106 260zM435 221h85l81 -108q54 41 83.5 103t29.5 134q0 125 -81.5 209.5t-210.5 84.5q-128 0 -210 -84.5
t-82 -209.5q0 -124 82 -209t210 -85q69 0 120 23z" />
    <glyph glyph-name="R" unicode="R" horiz-adv-x="664" 
d="M527 0l-205 222h-152v-222h-80v700h266q110 0 180 -69.5t70 -168.5q0 -84 -52.5 -149.5t-138.5 -84.5l213 -228h-101zM170 291h178q83 0 131 50.5t48 120.5t-48 119.5t-131 49.5h-178v-340z" />
    <glyph glyph-name="S" unicode="S" horiz-adv-x="581" 
d="M51 193h76q12 -66 55.5 -104t114.5 -38q73 0 116.5 38t43.5 96q0 98 -122 133l-87 25q-176 51 -176 185q0 83 61.5 134.5t155.5 51.5t151.5 -53.5t64.5 -136.5h-73q-7 56 -45 90.5t-99 34.5q-63 0 -101 -32t-38 -87q0 -50 31.5 -76t94.5 -44l83 -25q86 -25 131 -71
t45 -124q0 -90 -67.5 -147t-170.5 -57q-102 0 -166.5 56.5t-78.5 150.5z" />
    <glyph glyph-name="T" unicode="T" horiz-adv-x="606" 
d="M572 700v-69h-229v-631h-80v631h-229v69h538z" />
    <glyph glyph-name="U" unicode="U" horiz-adv-x="758" 
d="M670 700v-436q0 -121 -81.5 -199.5t-209.5 -78.5t-209.5 78.5t-81.5 199.5v436h80v-439q0 -92 58.5 -148.5t152.5 -56.5t152.5 56.5t58.5 148.5v439h80z" />
    <glyph glyph-name="V" unicode="V" horiz-adv-x="664" 
d="M640 700l-273 -700h-70l-273 700h76l232 -605l232 605h76z" />
    <glyph glyph-name="W" unicode="W" horiz-adv-x="1004" 
d="M539 700l197 -601l166 601h78l-208 -700h-72l-198 611l-198 -611h-72l-208 700h78l166 -601l197 601h74z" />
    <glyph glyph-name="X" unicode="X" horiz-adv-x="674" 
d="M337 411l195 289h88l-234 -344l245 -356h-88l-206 299l-206 -299h-88l244 356l-234 344h88z" />
    <glyph glyph-name="Y" unicode="Y" horiz-adv-x="614" 
d="M307 343l205 357h86l-251 -432v-268h-80v268l-251 432h86z" />
    <glyph glyph-name="Z" unicode="Z" horiz-adv-x="590" 
d="M47 4l370 627h-351v69h474v-4l-372 -627h380v-69h-501v4z" />
    <glyph glyph-name="bracketleft" unicode="[" horiz-adv-x="382" 
d="M100 -134v916h252v-66h-174v-784h174v-66h-252z" />
    <glyph glyph-name="backslash" unicode="\" horiz-adv-x="523" 
d="M121 750l362 -855h-76l-362 855h76z" />
    <glyph glyph-name="bracketright" unicode="]" horiz-adv-x="382" 
d="M282 782v-916h-252v66h174v784h-174v66h252z" />
    <glyph glyph-name="asciicircum" unicode="^" horiz-adv-x="514" 
d="M257 710l192 -288h-75l-117 183l-117 -183h-75z" />
    <glyph glyph-name="underscore" unicode="_" horiz-adv-x="514" 
d="M-1 -80h516v-40h-516v40z" />
    <glyph glyph-name="grave" unicode="`" horiz-adv-x="340" 
d="M188 564l-108 144h98l82 -144h-72z" />
    <glyph glyph-name="a" unicode="a" 
d="M502 492h76v-492h-75v99q-25 -45 -80.5 -78t-125.5 -33q-110 0 -181 76.5t-71 181.5t71 181.5t181 76.5q71 0 127 -33t78 -79v100zM123 246q0 -81 52 -137.5t135 -56.5q76 0 133 53t57 141t-57 141t-133 53q-83 0 -135 -56.5t-52 -137.5z" />
    <glyph glyph-name="b" unicode="b" 
d="M158 730v-338q22 46 77 79t126 33q110 0 181 -76.5t71 -181.5t-71 -181.5t-181 -76.5q-70 0 -125.5 33t-80.5 78v-99h-75v730h78zM535 246q0 81 -52 137.5t-135 56.5q-76 0 -133 -53t-57 -141t57 -141t133 -53q83 0 135 56.5t52 137.5z" />
    <glyph glyph-name="c" unicode="c" horiz-adv-x="597" 
d="M308 504q90 0 156 -47.5t91 -122.5h-76q-22 47 -66 76t-106 29q-84 0 -134.5 -57t-50.5 -136q0 -80 50.5 -136.5t134.5 -56.5q123 0 172 105h76q-25 -75 -91 -122.5t-156 -47.5q-117 0 -190 74.5t-73 183.5t73 183.5t190 74.5z" />
    <glyph glyph-name="d" unicode="d" 
d="M500 392v338h78v-730h-75v99q-25 -45 -80.5 -78t-125.5 -33q-110 0 -181 76.5t-71 181.5t71 181.5t181 76.5q71 0 126 -33t77 -79zM123 246q0 -81 52 -137.5t135 -56.5q76 0 133 53t57 141t-57 141t-133 53q-83 0 -135 -56.5t-52 -137.5z" />
    <glyph glyph-name="e" unicode="e" horiz-adv-x="600" 
d="M555 214h-433q9 -77 57.5 -121.5t125.5 -44.5q55 0 98.5 23.5t66.5 60.5h74q-29 -63 -93 -103.5t-145 -40.5q-118 0 -189.5 74t-71.5 184q0 109 72.5 183.5t184.5 74.5q114 0 183.5 -72.5t69.5 -180.5v-37zM303 446q-74 0 -124.5 -47t-57.5 -125h361q-6 76 -54 124
t-125 48z" />
    <glyph glyph-name="f" unicode="f" horiz-adv-x="336" 
d="M102 0v427h-92v65h92v70q0 92 41 136t129 44q42 0 61 -8v-65q-17 7 -49 7q-58 0 -81 -26.5t-23 -88.5v-69h148v-65h-148v-427h-78z" />
    <glyph glyph-name="g" unicode="g" horiz-adv-x="650" 
d="M493 492h77v-488q0 -96 -73.5 -160t-185.5 -64q-88 0 -156.5 41.5t-98.5 118.5h77q22 -47 69 -73t109 -26q83 0 132 43.5t49 118.5v121q-22 -47 -77 -79t-124 -32q-110 0 -178 71.5t-68 173.5q0 103 68 174.5t178 71.5q72 0 127 -33t75 -82v103zM122 258q0 -78 50 -129
t133 -51q75 0 131 49.5t56 130.5t-56 131t-131 50q-83 0 -133 -51t-50 -130z" />
    <glyph glyph-name="h" unicode="h" horiz-adv-x="610" 
d="M158 269v-269h-78v730h78v-333q22 51 70 79t111 28q89 0 142.5 -62.5t53.5 -159.5v-282h-78v267q0 77 -35 122t-107 45q-68 0 -112.5 -47.5t-44.5 -117.5z" />
    <glyph glyph-name="i" unicode="i" horiz-adv-x="244" 
d="M161 0h-78v492h78v-492zM71 661q0 21 14.5 35.5t36.5 14.5t36.5 -14.5t14.5 -35.5t-14.5 -35.5t-36.5 -14.5t-36.5 14.5t-14.5 35.5z" />
    <glyph glyph-name="j" unicode="j" horiz-adv-x="238" 
d="M80 492h78v-564q0 -71 -36 -109.5t-103 -38.5q-36 0 -59 8v65q19 -7 40 -7q41 0 60.5 21t19.5 68v557zM68 661q0 21 14.5 35.5t36.5 14.5t36.5 -14.5t14.5 -35.5t-14.5 -35.5t-36.5 -14.5t-36.5 14.5t-14.5 35.5z" />
    <glyph glyph-name="k" unicode="k" horiz-adv-x="530" 
d="M158 0h-78v730h78v-471l238 233h97l-245 -239l257 -253h-98l-249 244v-244z" />
    <glyph glyph-name="l" unicode="l" horiz-adv-x="238" 
d="M158 0h-78v730h78v-730z" />
    <glyph glyph-name="m" unicode="m" horiz-adv-x="959" 
d="M158 269v-269h-78v492h75v-96q19 52 65 80t111 28q119 0 169 -115q25 54 74.5 84.5t118.5 30.5q87 0 139 -62.5t52 -159.5v-282h-77v267q0 77 -33.5 122t-102.5 45q-65 0 -107.5 -45.5t-42.5 -115.5v-273h-77v267q0 77 -33.5 122t-102.5 45q-66 0 -108 -47t-42 -118z" />
    <glyph glyph-name="n" unicode="n" horiz-adv-x="610" 
d="M158 269v-269h-78v492h75v-96q19 52 68.5 80t115.5 28q89 0 142.5 -62.5t53.5 -159.5v-282h-78v267q0 77 -35 122t-107 45q-68 0 -112.5 -47.5t-44.5 -117.5z" />
    <glyph glyph-name="o" unicode="o" horiz-adv-x="622" 
d="M311 -12q-118 0 -192 76.5t-74 181.5t74 181.5t192 76.5t192 -76.5t74 -181.5t-74 -181.5t-192 -76.5zM311 439q-85 0 -137.5 -57.5t-52.5 -135.5q0 -79 52.5 -136t137.5 -57q86 0 138 57t52 136q0 78 -52 135.5t-138 57.5z" />
    <glyph glyph-name="p" unicode="p" 
d="M158 100v-308h-78v700h75v-99q25 45 80.5 78t125.5 33q110 0 181 -76.5t71 -181.5t-71 -181.5t-181 -76.5q-71 0 -126 33t-77 79zM535 246q0 81 -52 137.5t-135 56.5q-76 0 -133 -53t-57 -141t57 -141t133 -53q83 0 135 56.5t52 137.5z" />
    <glyph glyph-name="q" unicode="q" 
d="M500 -208v308q-22 -46 -77 -79t-126 -33q-110 0 -181 76.5t-71 181.5t71 181.5t181 76.5q70 0 125.5 -33t80.5 -78v99h75v-700h-78zM123 246q0 -81 52 -137.5t135 -56.5q76 0 133 53t57 141t-57 141t-133 53q-83 0 -135 -56.5t-52 -137.5z" />
    <glyph glyph-name="r" unicode="r" horiz-adv-x="370" 
d="M353 496v-74h-21q-81 0 -127.5 -51t-46.5 -138v-233h-78v492h75v-122q34 126 198 126z" />
    <glyph glyph-name="s" unicode="s" horiz-adv-x="456" 
d="M42 140h69q8 -44 40 -69t82 -25q49 0 80.5 24t31.5 63q0 58 -75 80l-80 23q-126 35 -126 133q0 60 46 97.5t117 37.5t113 -37.5t51 -100.5h-68q-4 34 -28.5 57t-67.5 23q-41 0 -66 -20.5t-25 -54.5q0 -31 17.5 -46t57.5 -27l89 -26q117 -34 117 -134q0 -67 -54.5 -108.5
t-130.5 -41.5t-128 39t-62 113z" />
    <glyph glyph-name="t" unicode="t" horiz-adv-x="378" 
d="M121 492v156h78v-156h149v-65h-149v-275q0 -52 19 -75t65 -23q27 0 59 9v-63q-28 -12 -76 -12q-82 0 -113.5 46.5t-31.5 142.5v250h-101v65h101z" />
    <glyph glyph-name="u" unicode="u" horiz-adv-x="606" 
d="M448 221v271h78v-492h-75v96q-22 -52 -69.5 -80t-112.5 -28q-89 0 -141.5 62t-52.5 160v282h78v-269q0 -77 34 -122t106 -45q68 0 111.5 47t43.5 118z" />
    <glyph glyph-name="v" unicode="v" horiz-adv-x="524" 
d="M262 92l164 400h79l-211 -492h-64l-211 492h79z" />
    <glyph glyph-name="w" unicode="w" horiz-adv-x="798" 
d="M425 492l159 -387l116 387h75l-161 -492h-54l-161 386l-161 -386h-54l-161 492h75l116 -387l159 387h52z" />
    <glyph glyph-name="x" unicode="x" horiz-adv-x="508" 
d="M254 309l134 183h85l-178 -242l187 -250h-85l-143 191l-143 -191h-85l187 250l-178 242h85z" />
    <glyph glyph-name="y" unicode="y" horiz-adv-x="524" 
d="M263 98l159 394h83l-206 -480l-93 -220h-80l96 226l-203 474h81z" />
    <glyph glyph-name="z" unicode="z" horiz-adv-x="460" 
d="M40 3l262 425h-248v64h366v-3l-262 -425h264v-64h-382v3z" />
    <glyph glyph-name="braceleft" unicode="{" horiz-adv-x="434" 
d="M248 193v-152q0 -55 21 -82t71 -27h64v-66h-76q-79 0 -118.5 44.5t-39.5 127.5v152q0 101 -94 101h-46v66h46q94 0 94 101v152q0 83 39.5 127.5t118.5 44.5h76v-66h-64q-50 0 -71 -27t-21 -82v-152q0 -106 -88 -131q88 -25 88 -131z" />
    <glyph glyph-name="bar" unicode="|" horiz-adv-x="323" 
d="M193 -150h-63v950h63v-950z" />
    <glyph glyph-name="braceright" unicode="}" horiz-adv-x="434" 
d="M186 41v152q0 106 88 131q-88 25 -88 131v152q0 55 -21 82t-71 27h-64v66h76q79 0 118.5 -44.5t39.5 -127.5v-152q0 -101 94 -101h46v-66h-46q-94 0 -94 -101v-152q0 -83 -39.5 -127.5t-118.5 -44.5h-76v66h64q50 0 71 27t21 82z" />
    <glyph glyph-name="asciitilde" unicode="~" horiz-adv-x="605" 
d="M484 435l66 -17q-6 -27 -13 -47t-19.5 -42.5t-33.5 -35t-49 -12.5q-41 0 -120.5 42.5t-119.5 42.5q-23 0 -37.5 -13t-20 -28t-11.5 -43l-66 17q6 28 13 47.5t20 43.5t36 36.5t53 12.5q40 0 87.5 -21.5t89 -43t66.5 -21.5q14 0 23.5 6t16.5 20.5t10 24t9 31.5z" />
    <glyph glyph-name="nbspace" unicode="&#xa0;" horiz-adv-x="240" 
 />
    <glyph glyph-name="exclamdown" unicode="&#xa1;" horiz-adv-x="264" 
d="M108 318h48l22 -526h-92zM78 448q0 22 15 37t39 15t39 -15t15 -37t-15 -37t-39 -15t-39 15t-15 37z" />
    <glyph glyph-name="cent" unicode="&#xa2;" horiz-adv-x="575" 
d="M294 126h-11l-25 -126h-77l28 140q-67 23 -108 78.5t-41 131.5q0 101 67.5 163t165.5 61l25 126h77l-27 -137q49 -12 87 -50t57 -88h-69q-44 90 -149 90q-73 0 -118.5 -46t-45.5 -119q0 -72 45.5 -118.5t118.5 -46.5q105 0 149 90h69q-24 -67 -81.5 -108t-136.5 -41z" />
    <glyph glyph-name="sterling" unicode="&#xa3;" horiz-adv-x="600" 
d="M448 355v-64h-239l-24 -227h341v-64h-428v5l32 286h-85v64h92l20 170q10 88 62.5 138.5t138.5 50.5q87 0 137.5 -54.5t54.5 -143.5h-71q-4 62 -35 98t-87 36q-108 0 -123 -130l-18 -165h232z" />
    <glyph glyph-name="currency" unicode="&#xa4;" horiz-adv-x="632" 
d="M215 527q45 29 101 29t101 -29l67 93h83l-96 -131q48 -53 48 -129q0 -78 -48 -129l96 -131h-83l-67 92q-46 -28 -101 -28t-101 28l-67 -92h-83l96 131q-48 51 -48 129q0 76 48 129l-96 131h83zM316 503q-64 0 -103 -42t-39 -101t39 -101t103 -42t103 42t39 101t-39 101
t-103 42z" />
    <glyph glyph-name="yen" unicode="&#xa5;" horiz-adv-x="536" 
d="M476 228v-59h-169v-169h-78v169h-169v59h169v49l-37 80h-132v59h106l-128 284h83l147 -349l147 349h83l-128 -284h106v-59h-132l-37 -80v-49h169z" />
    <glyph glyph-name="brokenbar" unicode="&#xa6;" horiz-adv-x="323" 
d="M193 424h-63v376h63v-376zM130 226h63v-376h-63v376z" />
    <glyph glyph-name="section" unicode="&#xa7;" horiz-adv-x="558" 
d="M151 469q-45 42 -45 96q0 68 48.5 108.5t124.5 40.5t122.5 -45t51.5 -115h-64q-4 44 -33 74t-77 30q-47 0 -76 -23.5t-29 -64.5q0 -22 7.5 -38t31 -31.5t41 -24.5t62.5 -29t72 -34.5t57 -37t44 -50t14 -61.5q0 -84 -78 -143q39 -36 39 -85q0 -68 -52.5 -112.5
t-129.5 -44.5q-78 0 -126 45t-54 114h65q5 -47 35.5 -75t82.5 -28q50 0 80 25.5t30 69.5q0 12 -3 22.5t-11 19.5t-15 15.5t-23 15t-27.5 14l-34.5 16.5l-38 18q-48 24 -74 38.5t-53.5 37t-39 49t-11.5 60.5q0 90 86 133zM289 390q-63 27 -95 47q-61 -36 -61 -98
q0 -39 30 -67.5t108 -64.5q101 -48 110 -53q54 45 54 105q0 44 -32 69t-114 62z" />
    <glyph glyph-name="dieresis" unicode="&#xa8;" horiz-adv-x="480" 
d="M80 638q0 20 14 34t36 14t36 -14t14 -34q0 -19 -14 -33.5t-36 -14.5t-36 14.5t-14 33.5zM300 638q0 20 14 34t36 14t36 -14t14 -34q0 -19 -14 -33.5t-36 -14.5t-36 14.5t-14 33.5z" />
    <glyph glyph-name="copyright" unicode="&#xa9;" horiz-adv-x="844" 
d="M55 350q0 151 102.5 257.5t264.5 106.5t264.5 -106.5t102.5 -257.5t-102.5 -257.5t-264.5 -106.5t-264.5 106.5t-102.5 257.5zM86 350q0 -138 93.5 -237.5t242.5 -99.5q150 0 243 99.5t93 237.5t-93 237.5t-243 99.5q-149 0 -242.5 -99.5t-93.5 -237.5zM429 532
q59 0 106 -32.5t65 -82.5h-50q-36 72 -121 72q-60 0 -98 -39t-38 -100t38 -100t98 -39q85 0 121 72h50q-18 -50 -65 -82.5t-106 -32.5q-80 0 -132.5 52.5t-52.5 129.5t52.5 129.5t132.5 52.5z" />
    <glyph glyph-name="ordfeminine" unicode="&#xaa;" horiz-adv-x="517" 
d="M87 248v51h350v-51h-350zM75 541q0 71 46.5 120t119.5 49q47 0 82 -20.5t50 -54.5v67h54v-322h-53v67q-13 -31 -50 -53t-83 -22q-73 0 -119.5 49t-46.5 120zM131 541q0 -54 33 -87.5t87 -33.5q49 0 84.5 32.5t35.5 88.5q0 55 -35.5 88t-84.5 33q-54 0 -87 -33.5
t-33 -87.5z" />
    <glyph glyph-name="guillemotleft" unicode="&#xab;" horiz-adv-x="625" 
d="M214 46l-174 212l174 212h89l-175 -212l175 -212h-89zM466 46l-174 212l174 212h89l-175 -212l175 -212h-89z" />
    <glyph glyph-name="registered" unicode="&#xae;" horiz-adv-x="543" 
d="M55 500q0 88 60 150t157 62q96 0 156 -62t60 -150q0 -87 -60 -149.5t-156 -62.5q-97 0 -157 62.5t-60 149.5zM272 689q-84 0 -137.5 -54.5t-53.5 -134.5q0 -79 53.5 -134t137.5 -55q83 0 136.5 55t53.5 134t-53.5 134t-136.5 55zM352 538q0 -21 -12 -38t-32 -24l51 -64
h-34l-47 60h-42v-60h-28v191h75q31 0 50 -19t19 -46zM236 495h41q23 0 35.5 12.5t12.5 30.5t-12.5 30t-35.5 12h-41v-85z" />
    <glyph glyph-name="macron" unicode="&#xaf;" horiz-adv-x="496" 
d="M80 606v62h336v-62h-336z" />
    <glyph glyph-name="degree" unicode="&#xb0;" horiz-adv-x="410" 
d="M205 710q65 0 104 -41.5t39 -97.5t-39 -97.5t-104 -41.5t-104 41.5t-39 97.5t39 97.5t104 41.5zM307 571q0 41 -27.5 72t-74.5 31q-48 0 -75 -31t-27 -72t27 -72t75 -31q47 0 74.5 31t27.5 72z" />
    <glyph glyph-name="plusminus" unicode="&#xb1;" horiz-adv-x="596" 
d="M262 160v187h-192v66h192v187h72v-187h192v-66h-192v-187h-72zM70 0v65h456v-65h-456z" />
    <glyph glyph-name="twosuperior" unicode="&#xb2;" horiz-adv-x="394" 
d="M128 720h-58q5 57 39.5 90t92.5 33q57 0 92 -30.5t35 -80.5q0 -51 -48 -106l-104 -115h151v-50h-263v4l165 190q20 24 29 40t9 37q0 29 -19.5 45t-49.5 16q-65 0 -71 -73z" />
    <glyph glyph-name="threesuperior" unicode="&#xb3;" horiz-adv-x="393" 
d="M83 787v50h233v-4l-109 -149h1q54 0 87 -30t33 -80q0 -52 -37 -85.5t-94 -33.5q-55 0 -91 30.5t-41 80.5h55q11 -62 76 -62q33 0 52.5 19t19.5 49q0 31 -20.5 48t-58.5 17h-79v4l105 146h-132z" />
    <glyph glyph-name="acute" unicode="&#xb4;" horiz-adv-x="340" 
d="M260 708l-108 -144h-72l82 144h98z" />
    <glyph glyph-name="paragraph" unicode="&#xb6;" horiz-adv-x="657" 
d="M308 -174v371q-122 8 -192.5 74.5t-70.5 175.5q0 117 79.5 185t218.5 68h224v-874h-54v827h-151v-827h-54z" />
    <glyph glyph-name="periodcentered" unicode="&#xb7;" horiz-adv-x="248" 
d="M70 270q0 22 15 37t39 15t39 -15t15 -37t-15 -37t-39 -15t-39 15t-15 37z" />
    <glyph glyph-name="cedilla" unicode="&#xb8;" horiz-adv-x="338" 
d="M135 0h46l-22 -69l20 -2q79 -8 79 -72q0 -36 -26.5 -56.5t-72.5 -20.5t-79 12v46q35 -11 67 -11q49 0 49 28q0 24 -46 29l-62 6z" />
    <glyph glyph-name="onesuperior" unicode="&#xb9;" horiz-adv-x="304" 
d="M149 459v304l-104 -38v56l160 58h4v-380h-60z" />
    <glyph glyph-name="ordmasculine" unicode="&#xba;" horiz-adv-x="502" 
d="M83 248v51h336v-51h-336zM251 710q78 0 127 -50t49 -119t-49 -119t-127 -50t-127 50t-49 119t49 119t127 50zM371 541q0 50 -32.5 85t-87.5 35t-87.5 -35t-32.5 -85t32.5 -85t87.5 -35t87.5 35t32.5 85z" />
    <glyph glyph-name="guillemotright" unicode="&#xbb;" horiz-adv-x="625" 
d="M585 258l-174 -212h-89l175 212l-175 212h89zM333 258l-174 -212h-89l175 212l-175 212h89z" />
    <glyph glyph-name="onequarter" unicode="&#xbc;" horiz-adv-x="858" 
d="M164 325v304l-104 -38v56l160 58h4v-380h-60zM630 374h61l-122 -242h119v82h59v-82h51v-48h-51v-84h-59v84h-206v4zM156 0l450 700h69l-450 -700h-69z" />
    <glyph glyph-name="onehalf" unicode="&#xbd;" horiz-adv-x="849" 
d="M156 0l450 700h69l-450 -700h-69zM164 325v304l-104 -38v56l160 58h4v-380h-60zM588 259h-58q5 57 39.5 90t92.5 33q57 0 92 -30.5t35 -80.5q0 -51 -48 -106l-104 -115h151v-50h-263v4l165 190q20 24 29 40t9 37q0 29 -19.5 45t-49.5 16q-65 0 -71 -73z" />
    <glyph glyph-name="threequarters" unicode="&#xbe;" horiz-adv-x="884" 
d="M656 374h61l-122 -242h119v82h59v-82h51v-48h-51v-84h-59v84h-206v4zM182 0l450 700h69l-450 -700h-69zM78 650v50h233v-4l-109 -149h1q54 0 87 -30t33 -80q0 -52 -37 -85.5t-94 -33.5q-55 0 -91 30.5t-41 80.5h55q11 -62 76 -62q33 0 52.5 19t19.5 49q0 31 -20.5 48
t-58.5 17h-79v4l105 146h-132z" />
    <glyph glyph-name="questiondown" unicode="&#xbf;" horiz-adv-x="507" 
d="M304 315v-37q0 -58 -20 -94.5t-67 -78.5q-44 -40 -66.5 -72.5t-22.5 -71.5q0 -53 35 -83t88 -30q59 0 93.5 36t34.5 103h76q-1 -100 -56.5 -153.5t-148.5 -53.5q-85 0 -142.5 49t-57.5 132q0 52 23.5 90t71.5 84q5 5 19.5 18.5t19 18t14.5 16t13.5 19l9 20t7 26t1.5 30.5
v32h75zM317 450q0 -22 -15 -37t-39 -15t-39 15t-15 37t15 37t39 15t39 -15t15 -37z" />
    <glyph glyph-name="Agrave" unicode="&#xc0;" horiz-adv-x="720" 
d="M604 0l-61 151h-366l-61 -151h-83l294 700h66l294 -700h-83zM360 608l-156 -390h312zM314 758l-106 122h100l80 -122h-74z" />
    <glyph glyph-name="Aacute" unicode="&#xc1;" horiz-adv-x="720" 
d="M604 0l-61 151h-366l-61 -151h-83l294 700h66l294 -700h-83zM360 608l-156 -390h312zM507 880l-106 -122h-74l80 122h100z" />
    <glyph glyph-name="Acircumflex" unicode="&#xc2;" horiz-adv-x="720" 
d="M604 0l-61 151h-366l-61 -151h-83l294 700h66l294 -700h-83zM360 608l-156 -390h312zM388 880l131 -122h-80l-79 75l-79 -75h-80l131 122h56z" />
    <glyph glyph-name="Atilde" unicode="&#xc3;" horiz-adv-x="720" 
d="M604 0l-61 151h-366l-61 -151h-83l294 700h66l294 -700h-83zM360 608l-156 -390h312zM211 755l-57 12q21 121 103 121q36 0 111 -36t95 -36q7 0 12.5 2t9 4t7 7t5.5 8.5t4 11.5t3 11.5t3 13t3 13.5l57 -11q-9 -55 -30 -87.5t-67 -32.5q-37 0 -110 36t-96 36
q-24 0 -34 -16.5t-19 -56.5z" />
    <glyph glyph-name="Adieresis" unicode="&#xc4;" horiz-adv-x="720" 
d="M604 0l-61 151h-366l-61 -151h-83l294 700h66l294 -700h-83zM360 608l-156 -390h312zM196 827q0 20 14 34t36 14t36 -14t14 -34q0 -19 -14 -33.5t-36 -14.5t-36 14.5t-14 33.5zM424 827q0 20 14 34t36 14t36 -14t14 -34q0 -19 -14 -33.5t-36 -14.5t-36 14.5t-14 33.5z
" />
    <glyph glyph-name="Aring" unicode="&#xc5;" horiz-adv-x="720" 
d="M267 749q0 36 25.5 61t67.5 25t67.5 -25t25.5 -61q0 -53 -49 -77l283 -672h-83l-61 151h-366l-61 -151h-83l282 672q-48 23 -48 77zM360 609l-156 -391h312zM310 749q0 -21 13.5 -35t36.5 -14t36.5 14t13.5 35t-13.5 35t-36.5 14t-36.5 -14t-13.5 -35z" />
    <glyph glyph-name="AE" unicode="&#xc6;" horiz-adv-x="1056" 
d="M565 0v151h-352l-114 -151h-89l541 700h456v-70h-362v-239h353v-70h-353v-251h366v-70h-446zM264 218h301v395z" />
    <glyph glyph-name="Ccedilla" unicode="&#xc7;" horiz-adv-x="807" 
d="M423 714q118 0 207.5 -59t128.5 -156h-79q-37 67 -103 106t-154 39q-128 0 -210.5 -84t-82.5 -210t82.5 -210t210.5 -84q88 0 154 39t103 106h79q-39 -96 -127 -155t-205 -60l-17 -55l20 -2q79 -8 79 -72q0 -36 -26.5 -56.5t-72.5 -20.5t-79 12v46q35 -11 67 -11
q49 0 49 28q0 24 -46 29l-62 6l42 98q-145 14 -238 115.5t-93 246.5q0 155 106 259.5t267 104.5z" />
    <glyph glyph-name="Egrave" unicode="&#xc8;" horiz-adv-x="581" 
d="M90 0v700h442v-70h-362v-239h353v-70h-353v-251h366v-70h-446zM296 758l-106 122h100l80 -122h-74z" />
    <glyph glyph-name="Eacute" unicode="&#xc9;" horiz-adv-x="581" 
d="M90 0v700h442v-70h-362v-239h353v-70h-353v-251h366v-70h-446zM442 880l-106 -122h-74l80 122h100z" />
    <glyph glyph-name="Ecircumflex" unicode="&#xca;" horiz-adv-x="581" 
d="M90 0v700h442v-70h-362v-239h353v-70h-353v-251h366v-70h-446zM341 880l131 -122h-80l-79 75l-79 -75h-80l131 122h56z" />
    <glyph glyph-name="Edieresis" unicode="&#xcb;" horiz-adv-x="581" 
d="M90 0v700h442v-70h-362v-239h353v-70h-353v-251h366v-70h-446zM149 827q0 20 14 34t36 14t36 -14t14 -34q0 -19 -14 -33.5t-36 -14.5t-36 14.5t-14 33.5zM377 827q0 20 14 34t36 14t36 -14t14 -34q0 -19 -14 -33.5t-36 -14.5t-36 14.5t-14 33.5z" />
    <glyph glyph-name="Igrave" unicode="&#xcc;" horiz-adv-x="268" 
d="M94 0v700h80v-700h-80zM99 758l-106 122h100l80 -122h-74z" />
    <glyph glyph-name="Iacute" unicode="&#xcd;" horiz-adv-x="268" 
d="M94 0v700h80v-700h-80zM283 880l-106 -122h-74l80 122h100z" />
    <glyph glyph-name="Icircumflex" unicode="&#xce;" horiz-adv-x="268" 
d="M94 0v700h80v-700h-80zM162 880l131 -122h-80l-79 75l-79 -75h-80l131 122h56z" />
    <glyph glyph-name="Idieresis" unicode="&#xcf;" horiz-adv-x="268" 
d="M94 0v700h80v-700h-80zM-30 827q0 20 14 34t36 14t36 -14t14 -34q0 -19 -14 -33.5t-36 -14.5t-36 14.5t-14 33.5zM198 827q0 20 14 34t36 14t36 -14t14 -34q0 -19 -14 -33.5t-36 -14.5t-36 14.5t-14 33.5z" />
    <glyph glyph-name="Eth" unicode="&#xd0;" horiz-adv-x="791" 
d="M25 315v70h118v315h188q196 0 303 -100t107 -250t-107 -250t-303 -100h-188v315h-118zM222 632v-247h173v-70h-173v-247h103q162 0 249 77.5t87 204.5t-87 204.5t-249 77.5h-103z" />
    <glyph glyph-name="Ntilde" unicode="&#xd1;" horiz-adv-x="773" 
d="M90 0v700h62l457 -575v575h74v-700h-62l-457 575v-575h-74zM237 755l-57 12q21 121 103 121q36 0 111 -36t95 -36q7 0 12.5 2t9 4t7 7t5.5 8.5t4 11.5t3 11.5t3 13t3 13.5l57 -11q-9 -55 -30 -87.5t-67 -32.5q-37 0 -110 36t-96 36q-24 0 -34 -16.5t-19 -56.5z" />
    <glyph glyph-name="Ograve" unicode="&#xd2;" horiz-adv-x="844" 
d="M50 350q0 155 106 259.5t266 104.5t266 -104.5t106 -259.5t-106 -259.5t-266 -104.5t-266 104t-106 260zM422 644q-128 0 -210 -84.5t-82 -209.5q0 -124 82 -209t210 -85t210 85t82 209q0 125 -81.5 209.5t-210.5 84.5zM387 758l-106 122h100l80 -122h-74z" />
    <glyph glyph-name="Oacute" unicode="&#xd3;" horiz-adv-x="844" 
d="M50 350q0 155 106 259.5t266 104.5t266 -104.5t106 -259.5t-106 -259.5t-266 -104.5t-266 104t-106 260zM422 644q-128 0 -210 -84.5t-82 -209.5q0 -124 82 -209t210 -85t210 85t82 209q0 125 -81.5 209.5t-210.5 84.5zM559 880l-106 -122h-74l80 122h100z" />
    <glyph glyph-name="Ocircumflex" unicode="&#xd4;" horiz-adv-x="844" 
d="M50 350q0 155 106 259.5t266 104.5t266 -104.5t106 -259.5t-106 -259.5t-266 -104.5t-266 104t-106 260zM422 644q-128 0 -210 -84.5t-82 -209.5q0 -124 82 -209t210 -85t210 85t82 209q0 125 -81.5 209.5t-210.5 84.5zM450 880l131 -122h-80l-79 75l-79 -75h-80l131 122
h56z" />
    <glyph glyph-name="Otilde" unicode="&#xd5;" horiz-adv-x="844" 
d="M50 350q0 155 106 259.5t266 104.5t266 -104.5t106 -259.5t-106 -259.5t-266 -104.5t-266 104t-106 260zM422 644q-128 0 -210 -84.5t-82 -209.5q0 -124 82 -209t210 -85t210 85t82 209q0 125 -81.5 209.5t-210.5 84.5zM286 755l-57 12q21 121 103 121q36 0 111 -36
t95 -36q7 0 12.5 2t9 4t7 7t5.5 8.5t4 11.5t3 11.5t3 13t3 13.5l57 -11q-9 -55 -30.5 -87.5t-66.5 -32.5q-37 0 -110 36t-96 36q-24 0 -34 -16.5t-19 -56.5z" />
    <glyph glyph-name="Odieresis" unicode="&#xd6;" horiz-adv-x="844" 
d="M50 350q0 155 106 259.5t266 104.5t266 -104.5t106 -259.5t-106 -259.5t-266 -104.5t-266 104t-106 260zM422 644q-128 0 -210 -84.5t-82 -209.5q0 -124 82 -209t210 -85t210 85t82 209q0 125 -81.5 209.5t-210.5 84.5zM258 827q0 20 14 34t36 14t36 -14t14 -34
q0 -19 -14 -33.5t-36 -14.5t-36 14.5t-14 33.5zM486 827q0 20 14 34t36 14t36 -14t14 -34q0 -19 -14 -33.5t-36 -14.5t-36 14.5t-14 33.5z" />
    <glyph glyph-name="multiply" unicode="&#xd7;" horiz-adv-x="558" 
d="M279 405l154 155l45 -46l-154 -154l154 -154l-45 -46l-154 155l-154 -155l-45 46l154 154l-154 154l45 46z" />
    <glyph glyph-name="Oslash" unicode="&#xd8;" horiz-adv-x="844" 
d="M50 350q0 155 106 259.5t266 104.5q111 0 204 -56l94 120h74l-121 -155q121 -106 121 -273q0 -155 -106 -259.5t-266 -104.5q-115 0 -204 56l-94 -120h-74l121 154q-121 105 -121 274zM422 644q-128 0 -210 -84.5t-82 -209.5q0 -130 87 -215l364 465q-69 44 -159 44z
M714 350q0 130 -87 215l-364 -465q71 -44 159 -44q128 0 210 85t82 209z" />
    <glyph glyph-name="Ugrave" unicode="&#xd9;" horiz-adv-x="758" 
d="M670 700v-436q0 -121 -81.5 -199.5t-209.5 -78.5t-209.5 78.5t-81.5 199.5v436h80v-439q0 -92 58.5 -148.5t152.5 -56.5t152.5 56.5t58.5 148.5v439h80zM362 758l-106 122h100l80 -122h-74z" />
    <glyph glyph-name="Uacute" unicode="&#xda;" horiz-adv-x="758" 
d="M670 700v-436q0 -121 -81.5 -199.5t-209.5 -78.5t-209.5 78.5t-81.5 199.5v436h80v-439q0 -92 58.5 -148.5t152.5 -56.5t152.5 56.5t58.5 148.5v439h80zM513 880l-106 -122h-74l80 122h100z" />
    <glyph glyph-name="Ucircumflex" unicode="&#xdb;" horiz-adv-x="758" 
d="M670 700v-436q0 -121 -81.5 -199.5t-209.5 -78.5t-209.5 78.5t-81.5 199.5v436h80v-439q0 -92 58.5 -148.5t152.5 -56.5t152.5 56.5t58.5 148.5v439h80zM407 880l131 -122h-80l-79 75l-79 -75h-80l131 122h56z" />
    <glyph glyph-name="Udieresis" unicode="&#xdc;" horiz-adv-x="758" 
d="M670 700v-436q0 -121 -81.5 -199.5t-209.5 -78.5t-209.5 78.5t-81.5 199.5v436h80v-439q0 -92 58.5 -148.5t152.5 -56.5t152.5 56.5t58.5 148.5v439h80zM215 827q0 20 14 34t36 14t36 -14t14 -34q0 -19 -14 -33.5t-36 -14.5t-36 14.5t-14 33.5zM443 827q0 20 14 34t36 14
t36 -14t14 -34q0 -19 -14 -33.5t-36 -14.5t-36 14.5t-14 33.5z" />
    <glyph glyph-name="Yacute" unicode="&#xdd;" horiz-adv-x="614" 
d="M307 343l205 357h86l-251 -432v-268h-80v268l-251 432h86zM450 880l-106 -122h-74l80 122h100z" />
    <glyph glyph-name="Thorn" unicode="&#xde;" horiz-adv-x="628" 
d="M342 110h-172v-110h-80v700h80v-110h172q114 0 187 -70t73 -169t-73 -170t-187 -71zM170 179h164q87 0 138 51t51 121q0 69 -51 119.5t-138 50.5h-164v-342z" />
    <glyph glyph-name="germandbls" unicode="&#xdf;" horiz-adv-x="618" 
d="M80 0v524q0 104 61.5 160t158.5 56q98 0 157.5 -55.5t59.5 -141.5q0 -59 -31 -104t-85 -65q81 -6 131 -53.5t50 -124.5q0 -90 -63 -143t-169 -53h-45v62h37q75 0 118.5 36.5t43.5 99.5q0 64 -47 100.5t-124 36.5h-29v63q63 7 99 46t36 94q0 59 -37.5 98t-101.5 39
q-66 0 -104 -38.5t-38 -111.5v-525h-78z" />
    <glyph glyph-name="agrave" unicode="&#xe0;" 
d="M502 492h76v-492h-75v99q-25 -45 -80.5 -78t-125.5 -33q-110 0 -181 76.5t-71 181.5t71 181.5t181 76.5q71 0 127 -33t78 -79v100zM123 246q0 -81 52 -137.5t135 -56.5q76 0 133 53t57 141t-57 141t-133 53q-83 0 -135 -56.5t-52 -137.5zM302 564l-108 144h98l82 -144
h-72z" />
    <glyph glyph-name="aacute" unicode="&#xe1;" 
d="M502 492h76v-492h-75v99q-25 -45 -80.5 -78t-125.5 -33q-110 0 -181 76.5t-71 181.5t71 181.5t181 76.5q71 0 127 -33t78 -79v100zM123 246q0 -81 52 -137.5t135 -56.5q76 0 133 53t57 141t-57 141t-133 53q-83 0 -135 -56.5t-52 -137.5zM468 708l-108 -144h-72l82 144
h98z" />
    <glyph glyph-name="acircumflex" unicode="&#xe2;" 
d="M502 492h76v-492h-75v99q-25 -45 -80.5 -78t-125.5 -33q-110 0 -181 76.5t-71 181.5t71 181.5t181 76.5q71 0 127 -33t78 -79v100zM123 246q0 -81 52 -137.5t135 -56.5q76 0 133 53t57 141t-57 141t-133 53q-83 0 -135 -56.5t-52 -137.5zM359 708l132 -144h-79l-82 92
l-82 -92h-79l132 144h58z" />
    <glyph glyph-name="atilde" unicode="&#xe3;" 
d="M502 492h76v-492h-75v99q-25 -45 -80.5 -78t-125.5 -33q-110 0 -181 76.5t-71 181.5t71 181.5t181 76.5q71 0 127 -33t78 -79v100zM123 246q0 -81 52 -137.5t135 -56.5q76 0 133 53t57 141t-57 141t-133 53q-83 0 -135 -56.5t-52 -137.5zM195 572l-57 12q21 121 103 121
q33 0 92 -36t74 -36q17 0 27 12t13 23t7 36l57 -11q-16 -120 -97 -120q-31 0 -89 36t-77 36q-24 0 -34.5 -17t-18.5 -56z" />
    <glyph glyph-name="adieresis" unicode="&#xe4;" 
d="M502 492h76v-492h-75v99q-25 -45 -80.5 -78t-125.5 -33q-110 0 -181 76.5t-71 181.5t71 181.5t181 76.5q71 0 127 -33t78 -79v100zM123 246q0 -81 52 -137.5t135 -56.5q76 0 133 53t57 141t-57 141t-133 53q-83 0 -135 -56.5t-52 -137.5zM170 638q0 20 14 34t36 14
t36 -14t14 -34q0 -19 -14 -33.5t-36 -14.5t-36 14.5t-14 33.5zM390 638q0 20 14 34t36 14t36 -14t14 -34q0 -19 -14 -33.5t-36 -14.5t-36 14.5t-14 33.5z" />
    <glyph glyph-name="aring" unicode="&#xe5;" 
d="M502 492h76v-492h-75v99q-25 -45 -80.5 -78t-125.5 -33q-110 0 -181 76.5t-71 181.5t71 181.5t181 76.5q71 0 127 -33t78 -79v100zM123 246q0 -81 52 -137.5t135 -56.5q76 0 133 53t57 141t-57 141t-133 53q-83 0 -135 -56.5t-52 -137.5zM230 646q0 36 25.5 61t67.5 25
t67.5 -25t25.5 -61t-25.5 -61t-67.5 -25t-67.5 25t-25.5 61zM273 646q0 -21 13.5 -35t36.5 -14t36.5 14t13.5 35t-13.5 35t-36.5 14t-36.5 -14t-13.5 -35z" />
    <glyph glyph-name="ae" unicode="&#xe6;" horiz-adv-x="975" 
d="M930 214h-433q9 -77 57.5 -121.5t125.5 -44.5q55 0 98.5 23.5t66.5 60.5h74q-29 -63 -93 -103.5t-145 -40.5q-72 0 -131 32.5t-86 81.5q-28 -48 -86.5 -81t-128.5 -33q-95 0 -149 45t-54 117q0 77 53 119.5t142 42.5q108 0 180 -36v16q0 74 -42.5 112.5t-119.5 38.5
q-95 0 -162 -38v66q53 33 166 33q145 0 204 -105q74 105 210 105q114 0 183.5 -72.5t69.5 -180.5v-37zM256 43q75 0 120 43t45 106v26q-26 15 -75 25t-94 10q-135 0 -135 -103q0 -52 35.5 -79.5t103.5 -27.5zM678 446q-74 0 -124.5 -47t-57.5 -125h361q-6 76 -54 124
t-125 48z" />
    <glyph glyph-name="ccedilla" unicode="&#xe7;" horiz-adv-x="597" 
d="M308 504q90 0 156 -47.5t91 -122.5h-76q-22 47 -66 76t-106 29q-84 0 -134.5 -57t-50.5 -136q0 -80 50.5 -136.5t134.5 -56.5q123 0 172 105h76q-25 -74 -89.5 -121.5t-152.5 -48.5l-18 -57l20 -2q79 -8 79 -72q0 -36 -26.5 -56.5t-72.5 -20.5t-79 12v46q35 -11 67 -11
q49 0 49 28q0 24 -46 29l-62 6l43 101q-101 13 -161.5 84.5t-60.5 170.5q0 109 73 183.5t190 74.5z" />
    <glyph glyph-name="egrave" unicode="&#xe8;" horiz-adv-x="600" 
d="M555 214h-433q9 -77 57.5 -121.5t125.5 -44.5q55 0 98.5 23.5t66.5 60.5h74q-29 -63 -93 -103.5t-145 -40.5q-118 0 -189.5 74t-71.5 184q0 109 72.5 183.5t184.5 74.5q114 0 183.5 -72.5t69.5 -180.5v-37zM303 446q-74 0 -124.5 -47t-57.5 -125h361q-6 76 -54 124
t-125 48zM272 564l-108 144h98l82 -144h-72z" />
    <glyph glyph-name="eacute" unicode="&#xe9;" horiz-adv-x="600" 
d="M555 214h-433q9 -77 57.5 -121.5t125.5 -44.5q55 0 98.5 23.5t66.5 60.5h74q-29 -63 -93 -103.5t-145 -40.5q-118 0 -189.5 74t-71.5 184q0 109 72.5 183.5t184.5 74.5q114 0 183.5 -72.5t69.5 -180.5v-37zM303 446q-74 0 -124.5 -47t-57.5 -125h361q-6 76 -54 124
t-125 48zM438 708l-108 -144h-72l82 144h98z" />
    <glyph glyph-name="ecircumflex" unicode="&#xea;" horiz-adv-x="600" 
d="M555 214h-433q9 -77 57.5 -121.5t125.5 -44.5q55 0 98.5 23.5t66.5 60.5h74q-29 -63 -93 -103.5t-145 -40.5q-118 0 -189.5 74t-71.5 184q0 109 72.5 183.5t184.5 74.5q114 0 183.5 -72.5t69.5 -180.5v-37zM303 446q-74 0 -124.5 -47t-57.5 -125h361q-6 76 -54 124
t-125 48zM335 708l132 -144h-79l-82 92l-82 -92h-79l132 144h58z" />
    <glyph glyph-name="edieresis" unicode="&#xeb;" horiz-adv-x="600" 
d="M555 214h-433q9 -77 57.5 -121.5t125.5 -44.5q55 0 98.5 23.5t66.5 60.5h74q-29 -63 -93 -103.5t-145 -40.5q-118 0 -189.5 74t-71.5 184q0 109 72.5 183.5t184.5 74.5q114 0 183.5 -72.5t69.5 -180.5v-37zM303 446q-74 0 -124.5 -47t-57.5 -125h361q-6 76 -54 124
t-125 48zM140 638q0 20 14 34t36 14t36 -14t14 -34q0 -19 -14 -33.5t-36 -14.5t-36 14.5t-14 33.5zM360 638q0 20 14 34t36 14t36 -14t14 -34q0 -19 -14 -33.5t-36 -14.5t-36 14.5t-14 33.5z" />
    <glyph glyph-name="igrave" unicode="&#xec;" horiz-adv-x="244" 
d="M161 0h-78v492h78v-492zM83 564l-108 144h98l82 -144h-72z" />
    <glyph glyph-name="iacute" unicode="&#xed;" horiz-adv-x="244" 
d="M161 0h-78v492h78v-492zM272 708l-108 -144h-72l82 144h98z" />
    <glyph glyph-name="icircumflex" unicode="&#xee;" horiz-adv-x="244" 
d="M161 0h-78v492h78v-492zM151 708l132 -144h-79l-82 92l-82 -92h-79l132 144h58z" />
    <glyph glyph-name="idieresis" unicode="&#xef;" horiz-adv-x="244" 
d="M161 0h-78v492h78v-492zM-38 638q0 20 14 34t36 14t36 -14t14 -34q0 -19 -14 -33.5t-36 -14.5t-36 14.5t-14 33.5zM182 638q0 20 14 34t36 14t36 -14t14 -34q0 -19 -14 -33.5t-36 -14.5t-36 14.5t-14 33.5z" />
    <glyph glyph-name="eth" unicode="&#xf0;" horiz-adv-x="607" 
d="M160 588l137 38q-67 51 -156 104h103q71 -37 127 -84l139 39l16 -53l-107 -30q143 -139 143 -341q0 -113 -71 -193t-190 -80q-116 0 -186 75.5t-70 179.5q0 106 69 175.5t174 69.5q120 0 186 -83q-35 96 -124 177l-173 -48zM485 240q0 82 -53 134t-130 52q-83 0 -132 -52
t-49 -133q0 -79 50 -134t133 -55q80 0 130.5 52.5t50.5 135.5z" />
    <glyph glyph-name="ntilde" unicode="&#xf1;" horiz-adv-x="610" 
d="M158 269v-269h-78v492h75v-96q19 52 68.5 80t115.5 28q89 0 142.5 -62.5t53.5 -159.5v-282h-78v267q0 77 -35 122t-107 45q-68 0 -112.5 -47.5t-44.5 -117.5zM181 572l-57 12q21 121 103 121q33 0 92 -36t74 -36q17 0 27 12t13 23t7 36l57 -11q-16 -120 -97 -120
q-31 0 -89 36t-77 36q-24 0 -34.5 -17t-18.5 -56z" />
    <glyph glyph-name="ograve" unicode="&#xf2;" horiz-adv-x="622" 
d="M311 -12q-118 0 -192 76.5t-74 181.5t74 181.5t192 76.5t192 -76.5t74 -181.5t-74 -181.5t-192 -76.5zM311 439q-85 0 -137.5 -57.5t-52.5 -135.5q0 -79 52.5 -136t137.5 -57q86 0 138 57t52 136q0 78 -52 135.5t-138 57.5zM261 564l-108 144h98l82 -144h-72z" />
    <glyph glyph-name="oacute" unicode="&#xf3;" horiz-adv-x="622" 
d="M311 -12q-118 0 -192 76.5t-74 181.5t74 181.5t192 76.5t192 -76.5t74 -181.5t-74 -181.5t-192 -76.5zM311 439q-85 0 -137.5 -57.5t-52.5 -135.5q0 -79 52.5 -136t137.5 -57q86 0 138 57t52 136q0 78 -52 135.5t-138 57.5zM449 708l-108 -144h-72l82 144h98z" />
    <glyph glyph-name="ocircumflex" unicode="&#xf4;" horiz-adv-x="622" 
d="M311 -12q-118 0 -192 76.5t-74 181.5t74 181.5t192 76.5t192 -76.5t74 -181.5t-74 -181.5t-192 -76.5zM311 439q-85 0 -137.5 -57.5t-52.5 -135.5q0 -79 52.5 -136t137.5 -57q86 0 138 57t52 136q0 78 -52 135.5t-138 57.5zM340 708l132 -144h-79l-82 92l-82 -92h-79
l132 144h58z" />
    <glyph glyph-name="otilde" unicode="&#xf5;" horiz-adv-x="622" 
d="M311 -12q-118 0 -192 76.5t-74 181.5t74 181.5t192 76.5t192 -76.5t74 -181.5t-74 -181.5t-192 -76.5zM311 439q-85 0 -137.5 -57.5t-52.5 -135.5q0 -79 52.5 -136t137.5 -57q86 0 138 57t52 136q0 78 -52 135.5t-138 57.5zM182 572l-57 12q21 121 103 121q33 0 92 -36
t74 -36q17 0 27 12t13 23t7 36l57 -11q-16 -120 -97 -120q-31 0 -89 36t-77 36q-24 0 -34.5 -17t-18.5 -56z" />
    <glyph glyph-name="odieresis" unicode="&#xf6;" horiz-adv-x="622" 
d="M311 -12q-118 0 -192 76.5t-74 181.5t74 181.5t192 76.5t192 -76.5t74 -181.5t-74 -181.5t-192 -76.5zM311 439q-85 0 -137.5 -57.5t-52.5 -135.5q0 -79 52.5 -136t137.5 -57q86 0 138 57t52 136q0 78 -52 135.5t-138 57.5zM151 638q0 20 14 34t36 14t36 -14t14 -34
q0 -19 -14 -33.5t-36 -14.5t-36 14.5t-14 33.5zM371 638q0 20 14 34t36 14t36 -14t14 -34q0 -19 -14 -33.5t-36 -14.5t-36 14.5t-14 33.5z" />
    <glyph glyph-name="divide" unicode="&#xf7;" horiz-adv-x="588" 
d="M70 327v66h448v-66h-448zM243 545q0 21 14.5 35.5t36.5 14.5t36.5 -14.5t14.5 -35.5t-14.5 -35.5t-36.5 -14.5t-36.5 14.5t-14.5 35.5zM243 175q0 21 14.5 35.5t36.5 14.5t36.5 -14.5t14.5 -35.5t-14.5 -35.5t-36.5 -14.5t-36.5 14.5t-14.5 35.5z" />
    <glyph glyph-name="oslash" unicode="&#xf8;" horiz-adv-x="622" 
d="M311 -12q-73 0 -134 32l-71 -97h-61l91 125q-91 77 -91 198q0 105 74 181.5t192 76.5q72 0 133 -32l71 97h62l-92 -126q43 -36 67.5 -88t24.5 -109q0 -105 -74 -181.5t-192 -76.5zM501 246q0 85 -57 140l-227 -310q41 -23 94 -23q86 0 138 57t52 136zM311 439
q-85 0 -137.5 -57.5t-52.5 -135.5q0 -84 56 -140l227 310q-41 23 -93 23z" />
    <glyph glyph-name="ugrave" unicode="&#xf9;" horiz-adv-x="606" 
d="M448 221v271h78v-492h-75v96q-22 -52 -69.5 -80t-112.5 -28q-89 0 -141.5 62t-52.5 160v282h78v-269q0 -77 34 -122t106 -45q68 0 111.5 47t43.5 118zM288 564l-108 144h98l82 -144h-72z" />
    <glyph glyph-name="uacute" unicode="&#xfa;" horiz-adv-x="606" 
d="M448 221v271h78v-492h-75v96q-22 -52 -69.5 -80t-112.5 -28q-89 0 -141.5 62t-52.5 160v282h78v-269q0 -77 34 -122t106 -45q68 0 111.5 47t43.5 118zM432 708l-108 -144h-72l82 144h98z" />
    <glyph glyph-name="ucircumflex" unicode="&#xfb;" horiz-adv-x="606" 
d="M448 221v271h78v-492h-75v96q-22 -52 -69.5 -80t-112.5 -28q-89 0 -141.5 62t-52.5 160v282h78v-269q0 -77 34 -122t106 -45q68 0 111.5 47t43.5 118zM342 708l132 -144h-79l-82 92l-82 -92h-79l132 144h58z" />
    <glyph glyph-name="udieresis" unicode="&#xfc;" horiz-adv-x="606" 
d="M448 221v271h78v-492h-75v96q-22 -52 -69.5 -80t-112.5 -28q-89 0 -141.5 62t-52.5 160v282h78v-269q0 -77 34 -122t106 -45q68 0 111.5 47t43.5 118zM153 638q0 20 14 34t36 14t36 -14t14 -34q0 -19 -14 -33.5t-36 -14.5t-36 14.5t-14 33.5zM373 638q0 20 14 34t36 14
t36 -14t14 -34q0 -19 -14 -33.5t-36 -14.5t-36 14.5t-14 33.5z" />
    <glyph glyph-name="yacute" unicode="&#xfd;" horiz-adv-x="524" 
d="M263 98l159 394h83l-206 -480l-93 -220h-80l96 226l-203 474h81zM400 708l-108 -144h-72l82 144h98z" />
    <glyph glyph-name="thorn" unicode="&#xfe;" 
d="M158 100v-308h-78v938h78v-334q28 45 81.5 76.5t121.5 31.5q110 0 181 -76.5t71 -181.5t-71 -181.5t-181 -76.5q-71 0 -126 33t-77 79zM535 246q0 81 -52 137.5t-135 56.5q-76 0 -133 -53t-57 -141t57 -141t133 -53q83 0 135 56.5t52 137.5z" />
    <glyph glyph-name="ydieresis" unicode="&#xff;" horiz-adv-x="524" 
d="M263 98l159 394h83l-206 -480l-93 -220h-80l96 226l-203 474h81zM108 638q0 20 14 34t36 14t36 -14t14 -34q0 -19 -14 -33.5t-36 -14.5t-36 14.5t-14 33.5zM328 638q0 20 14 34t36 14t36 -14t14 -34q0 -19 -14 -33.5t-36 -14.5t-36 14.5t-14 33.5z" />
    <glyph glyph-name="Amacron" unicode="&#x100;" horiz-adv-x="720" 
d="M604 0l-61 151h-366l-61 -151h-83l294 700h66l294 -700h-83zM360 608l-156 -390h312zM182 793v62h357v-62h-357z" />
    <glyph glyph-name="amacron" unicode="&#x101;" 
d="M502 492h76v-492h-75v99q-25 -45 -80.5 -78t-125.5 -33q-110 0 -181 76.5t-71 181.5t71 181.5t181 76.5q71 0 127 -33t78 -79v100zM123 246q0 -81 52 -137.5t135 -56.5q76 0 133 53t57 141t-57 141t-133 53q-83 0 -135 -56.5t-52 -137.5zM172 606v62h336v-62h-336z" />
    <glyph glyph-name="Abreve" unicode="&#x102;" horiz-adv-x="720" 
d="M604 0l-61 151h-366l-61 -151h-83l294 700h66l294 -700h-83zM360 608l-156 -390h312zM360 758q-69 0 -114 34t-53 88h64q6 -32 33.5 -51t69.5 -19t69.5 19t33.5 51h64q-8 -54 -53 -88t-114 -34z" />
    <glyph glyph-name="abreve" unicode="&#x103;" 
d="M502 492h76v-492h-75v99q-25 -45 -80.5 -78t-125.5 -33q-110 0 -181 76.5t-71 181.5t71 181.5t181 76.5q71 0 127 -33t78 -79v100zM123 246q0 -81 52 -137.5t135 -56.5q76 0 133 53t57 141t-57 141t-133 53q-83 0 -135 -56.5t-52 -137.5zM330 564q-67 0 -111 38.5
t-53 100.5h63q7 -40 33 -64.5t68 -24.5t68 24.5t33 64.5h63q-9 -62 -53 -100.5t-111 -38.5z" />
    <glyph glyph-name="Aogonek" unicode="&#x104;" horiz-adv-x="720" 
d="M604 0l-61 151h-366l-61 -151h-83l294 700h66l294 -700q-26 -20 -40.5 -32.5t-28 -36.5t-13.5 -50q0 -22 15 -35t39 -13q19 0 28 3v-51q-15 -5 -42 -5q-49 0 -77.5 26t-28.5 71q0 43 37.5 78.5t74.5 44.5h-47zM360 608l-156 -390h312z" />
    <glyph glyph-name="aogonek" unicode="&#x105;" 
d="M430 -123q0 43 37.5 78.5t74.5 44.5h-39v99q-25 -45 -80.5 -78t-125.5 -33q-110 0 -181 76.5t-71 181.5t71 181.5t181 76.5q71 0 127 -33t78 -79v100h76v-492q-26 -20 -40.5 -32.5t-28 -36.5t-13.5 -50q0 -22 15 -35t39 -13q19 0 28 3v-51q-15 -5 -42 -5q-49 0 -77.5 26
t-28.5 71zM123 246q0 -81 52 -137.5t135 -56.5q76 0 133 53t57 141t-57 141t-133 53q-83 0 -135 -56.5t-52 -137.5z" />
    <glyph glyph-name="Cacute" unicode="&#x106;" horiz-adv-x="807" 
d="M423 714q118 0 207.5 -59t128.5 -156h-79q-37 67 -103 106t-154 39q-128 0 -210.5 -84t-82.5 -210t82.5 -210t210.5 -84q88 0 154 39t103 106h79q-39 -97 -128.5 -156t-207.5 -59q-161 0 -267 104.5t-106 259.5t106 259.5t267 104.5zM563 880l-106 -122h-74l80 122h100z
" />
    <glyph glyph-name="cacute" unicode="&#x107;" horiz-adv-x="597" 
d="M308 504q90 0 156 -47.5t91 -122.5h-76q-22 47 -66 76t-106 29q-84 0 -134.5 -57t-50.5 -136q0 -80 50.5 -136.5t134.5 -56.5q123 0 172 105h76q-25 -75 -91 -122.5t-156 -47.5q-117 0 -190 74.5t-73 183.5t73 183.5t190 74.5zM451 708l-108 -144h-72l82 144h98z" />
    <glyph glyph-name="Ccircumflex" unicode="&#x108;" horiz-adv-x="807" 
d="M423 714q118 0 207.5 -59t128.5 -156h-79q-37 67 -103 106t-154 39q-128 0 -210.5 -84t-82.5 -210t82.5 -210t210.5 -84q88 0 154 39t103 106h79q-39 -97 -128.5 -156t-207.5 -59q-161 0 -267 104.5t-106 259.5t106 259.5t267 104.5zM458 880l131 -122h-80l-79 75
l-79 -75h-80l131 122h56z" />
    <glyph glyph-name="ccircumflex" unicode="&#x109;" horiz-adv-x="597" 
d="M308 504q90 0 156 -47.5t91 -122.5h-76q-22 47 -66 76t-106 29q-84 0 -134.5 -57t-50.5 -136q0 -80 50.5 -136.5t134.5 -56.5q123 0 172 105h76q-25 -75 -91 -122.5t-156 -47.5q-117 0 -190 74.5t-73 183.5t73 183.5t190 74.5zM342 708l132 -144h-79l-82 92l-82 -92h-79
l132 144h58z" />
    <glyph glyph-name="Cdotaccent" unicode="&#x10a;" horiz-adv-x="807" 
d="M423 714q118 0 207.5 -59t128.5 -156h-79q-37 67 -103 106t-154 39q-128 0 -210.5 -84t-82.5 -210t82.5 -210t210.5 -84q88 0 154 39t103 106h79q-39 -97 -128.5 -156t-207.5 -59q-161 0 -267 104.5t-106 259.5t106 259.5t267 104.5zM369 820q0 21 14.5 35.5t36.5 14.5
t36.5 -14.5t14.5 -35.5t-14.5 -35.5t-36.5 -14.5t-36.5 14.5t-14.5 35.5z" />
    <glyph glyph-name="cdotaccent" unicode="&#x10b;" horiz-adv-x="597" 
d="M308 504q90 0 156 -47.5t91 -122.5h-76q-22 47 -66 76t-106 29q-84 0 -134.5 -57t-50.5 -136q0 -80 50.5 -136.5t134.5 -56.5q123 0 172 105h76q-25 -75 -91 -122.5t-156 -47.5q-117 0 -190 74.5t-73 183.5t73 183.5t190 74.5zM262 636q0 21 14.5 35.5t36.5 14.5
t36.5 -14.5t14.5 -35.5t-14.5 -35.5t-36.5 -14.5t-36.5 14.5t-14.5 35.5z" />
    <glyph glyph-name="Ccaron" unicode="&#x10c;" horiz-adv-x="807" 
d="M423 714q118 0 207.5 -59t128.5 -156h-79q-37 67 -103 106t-154 39q-128 0 -210.5 -84t-82.5 -210t82.5 -210t210.5 -84q88 0 154 39t103 106h79q-39 -97 -128.5 -156t-207.5 -59q-161 0 -267 104.5t-106 259.5t106 259.5t267 104.5zM585 880l-131 -122h-56l-131 122h80
l79 -75l79 75h80z" />
    <glyph glyph-name="ccaron" unicode="&#x10d;" horiz-adv-x="597" 
d="M308 504q90 0 156 -47.5t91 -122.5h-76q-22 47 -66 76t-106 29q-84 0 -134.5 -57t-50.5 -136q0 -80 50.5 -136.5t134.5 -56.5q123 0 172 105h76q-25 -75 -91 -122.5t-156 -47.5q-117 0 -190 74.5t-73 183.5t73 183.5t190 74.5zM472 708l-132 -144h-58l-132 144h79l82 -92
l82 92h79z" />
    <glyph glyph-name="Dcaron" unicode="&#x10e;" horiz-adv-x="738" 
d="M278 0h-188v700h188q196 0 303 -100t107 -250t-107 -250t-303 -100zM169 632v-564h103q162 0 249 77.5t87 204.5t-87 204.5t-249 77.5h-103zM488 880l-131 -122h-56l-131 122h80l79 -75l79 75h80z" />
    <glyph glyph-name="dcaron" unicode="&#x10f;" horiz-adv-x="908" 
d="M500 392v338h78v-730h-75v99q-25 -45 -80.5 -78t-125.5 -33q-110 0 -181 76.5t-71 181.5t71 181.5t181 76.5q71 0 126 -33t77 -79zM123 246q0 -81 52 -137.5t135 -56.5q76 0 133 53t57 141t-57 141t-133 53q-83 0 -135 -56.5t-52 -137.5zM713 511l58 219h92l-81 -219h-69
z" />
    <glyph glyph-name="Dcroat" unicode="&#x110;" horiz-adv-x="791" 
d="M25 315v70h118v315h188q196 0 303 -100t107 -250t-107 -250t-303 -100h-188v315h-118zM222 632v-247h173v-70h-173v-247h103q162 0 249 77.5t87 204.5t-87 204.5t-249 77.5h-103z" />
    <glyph glyph-name="dcroat" unicode="&#x111;" horiz-adv-x="689" 
d="M339 564v60h161v106h78v-106h96v-60h-96v-564h-75v99q-25 -45 -80.5 -78t-125.5 -33q-110 0 -181 76.5t-71 181.5t71 181.5t181 76.5q71 0 126 -33t77 -79v172h-161zM123 246q0 -81 52 -137.5t135 -56.5q76 0 133 53t57 141t-57 141t-133 53q-83 0 -135 -56.5t-52 -137.5
z" />
    <glyph glyph-name="Emacron" unicode="&#x112;" horiz-adv-x="581" 
d="M90 0v700h442v-70h-362v-239h353v-70h-353v-251h366v-70h-446zM135 793v62h357v-62h-357z" />
    <glyph glyph-name="emacron" unicode="&#x113;" horiz-adv-x="600" 
d="M555 214h-433q9 -77 57.5 -121.5t125.5 -44.5q55 0 98.5 23.5t66.5 60.5h74q-29 -63 -93 -103.5t-145 -40.5q-118 0 -189.5 74t-71.5 184q0 109 72.5 183.5t184.5 74.5q114 0 183.5 -72.5t69.5 -180.5v-37zM303 446q-74 0 -124.5 -47t-57.5 -125h361q-6 76 -54 124
t-125 48zM132 606v62h336v-62h-336z" />
    <glyph glyph-name="Ebreve" unicode="&#x114;" horiz-adv-x="581" 
d="M90 0v700h442v-70h-362v-239h353v-70h-353v-251h366v-70h-446zM327 758q-69 0 -114 34t-53 88h64q6 -32 33.5 -51t69.5 -19t69.5 19t33.5 51h64q-8 -54 -53 -88t-114 -34z" />
    <glyph glyph-name="ebreve" unicode="&#x115;" horiz-adv-x="600" 
d="M555 214h-433q9 -77 57.5 -121.5t125.5 -44.5q55 0 98.5 23.5t66.5 60.5h74q-29 -63 -93 -103.5t-145 -40.5q-118 0 -189.5 74t-71.5 184q0 109 72.5 183.5t184.5 74.5q114 0 183.5 -72.5t69.5 -180.5v-37zM303 446q-74 0 -124.5 -47t-57.5 -125h361q-6 76 -54 124
t-125 48zM312 564q-67 0 -111 38.5t-53 100.5h63q7 -40 33 -64.5t68 -24.5t68 24.5t33 64.5h63q-9 -62 -53 -100.5t-111 -38.5z" />
    <glyph glyph-name="Edotaccent" unicode="&#x116;" horiz-adv-x="581" 
d="M90 0v700h442v-70h-362v-239h353v-70h-353v-251h366v-70h-446zM267 820q0 21 14.5 35.5t36.5 14.5t36.5 -14.5t14.5 -35.5t-14.5 -35.5t-36.5 -14.5t-36.5 14.5t-14.5 35.5z" />
    <glyph glyph-name="edotaccent" unicode="&#x117;" horiz-adv-x="600" 
d="M555 214h-433q9 -77 57.5 -121.5t125.5 -44.5q55 0 98.5 23.5t66.5 60.5h74q-29 -63 -93 -103.5t-145 -40.5q-118 0 -189.5 74t-71.5 184q0 109 72.5 183.5t184.5 74.5q114 0 183.5 -72.5t69.5 -180.5v-37zM303 446q-74 0 -124.5 -47t-57.5 -125h361q-6 76 -54 124
t-125 48zM249 636q0 21 14.5 35.5t36.5 14.5t36.5 -14.5t14.5 -35.5t-14.5 -35.5t-36.5 -14.5t-36.5 14.5t-14.5 35.5z" />
    <glyph glyph-name="Eogonek" unicode="&#x118;" horiz-adv-x="581" 
d="M90 0v700h442v-70h-362v-239h353v-70h-353v-251h366v-70q-26 -20 -40.5 -32.5t-28 -36.5t-13.5 -50q0 -22 15 -35t39 -13q19 0 28 3v-51q-15 -5 -42 -5q-49 0 -77.5 26t-28.5 71q0 43 37.5 78.5t74.5 44.5h-410z" />
    <glyph glyph-name="eogonek" unicode="&#x119;" horiz-adv-x="600" 
d="M555 214h-433q9 -77 57.5 -121.5t125.5 -44.5q113 0 165 84h74q-27 -59 -92 -103q-54 -37 -82.5 -71.5t-28.5 -78.5q0 -22 13.5 -34t36.5 -12t32 3v-51q-15 -5 -42 -5q-50 0 -78 26t-28 72q0 63 76 114q-20 -4 -45 -4q-118 0 -189.5 74t-71.5 184q0 109 72.5 183.5
t184.5 74.5q114 0 183.5 -72.5t69.5 -180.5v-37zM303 446q-74 0 -124.5 -47t-57.5 -125h361q-6 76 -54 124t-125 48z" />
    <glyph glyph-name="Ecaron" unicode="&#x11a;" horiz-adv-x="581" 
d="M90 0v700h442v-70h-362v-239h353v-70h-353v-251h366v-70h-446zM486 880l-131 -122h-56l-131 122h80l79 -75l79 75h80z" />
    <glyph glyph-name="ecaron" unicode="&#x11b;" horiz-adv-x="600" 
d="M555 214h-433q9 -77 57.5 -121.5t125.5 -44.5q55 0 98.5 23.5t66.5 60.5h74q-29 -63 -93 -103.5t-145 -40.5q-118 0 -189.5 74t-71.5 184q0 109 72.5 183.5t184.5 74.5q114 0 183.5 -72.5t69.5 -180.5v-37zM303 446q-74 0 -124.5 -47t-57.5 -125h361q-6 76 -54 124
t-125 48zM467 708l-132 -144h-58l-132 144h79l82 -92l82 92h79z" />
    <glyph glyph-name="Gcircumflex" unicode="&#x11c;" horiz-adv-x="838" 
d="M758 502h-80q-37 66 -102 104t-152 38q-130 0 -212 -82.5t-82 -211.5q0 -131 82.5 -213.5t211.5 -82.5q111 0 182 57t97 150h-321v66h406q-9 -145 -108 -243t-256 -98q-161 0 -267.5 104.5t-106.5 259.5q0 157 105 260.5t269 103.5q116 0 202.5 -55.5t131.5 -156.5z
M447 880l131 -122h-80l-79 75l-79 -75h-80l131 122h56z" />
    <glyph glyph-name="gcircumflex" unicode="&#x11d;" horiz-adv-x="650" 
d="M493 492h77v-488q0 -96 -73.5 -160t-185.5 -64q-88 0 -156.5 41.5t-98.5 118.5h77q22 -47 69 -73t109 -26q83 0 132 43.5t49 118.5v121q-22 -47 -77 -79t-124 -32q-110 0 -178 71.5t-68 173.5q0 103 68 174.5t178 71.5q72 0 127 -33t75 -82v103zM122 258q0 -78 50 -129
t133 -51q75 0 131 49.5t56 130.5t-56 131t-131 50q-83 0 -133 -51t-50 -130zM355 708l132 -144h-79l-82 92l-82 -92h-79l132 144h58z" />
    <glyph glyph-name="Gbreve" unicode="&#x11e;" horiz-adv-x="838" 
d="M758 502h-80q-37 66 -102 104t-152 38q-130 0 -212 -82.5t-82 -211.5q0 -131 82.5 -213.5t211.5 -82.5q111 0 182 57t97 150h-321v66h406q-9 -145 -108 -243t-256 -98q-161 0 -267.5 104.5t-106.5 259.5q0 157 105 260.5t269 103.5q116 0 202.5 -55.5t131.5 -156.5z
M428 758q-69 0 -114 34t-53 88h64q6 -32 33.5 -51t69.5 -19t69.5 19t33.5 51h64q-8 -54 -53 -88t-114 -34z" />
    <glyph glyph-name="gbreve" unicode="&#x11f;" horiz-adv-x="650" 
d="M493 492h77v-488q0 -96 -73.5 -160t-185.5 -64q-88 0 -156.5 41.5t-98.5 118.5h77q22 -47 69 -73t109 -26q83 0 132 43.5t49 118.5v121q-22 -47 -77 -79t-124 -32q-110 0 -178 71.5t-68 173.5q0 103 68 174.5t178 71.5q72 0 127 -33t75 -82v103zM122 258q0 -78 50 -129
t133 -51q75 0 131 49.5t56 130.5t-56 131t-131 50q-83 0 -133 -51t-50 -130zM320 564q-67 0 -111 38.5t-53 100.5h63q7 -40 33 -64.5t68 -24.5t68 24.5t33 64.5h63q-9 -62 -53 -100.5t-111 -38.5z" />
    <glyph glyph-name="Gdotaccent" unicode="&#x120;" horiz-adv-x="838" 
d="M758 502h-80q-37 66 -102 104t-152 38q-130 0 -212 -82.5t-82 -211.5q0 -131 82.5 -213.5t211.5 -82.5q111 0 182 57t97 150h-321v66h406q-9 -145 -108 -243t-256 -98q-161 0 -267.5 104.5t-106.5 259.5q0 157 105 260.5t269 103.5q116 0 202.5 -55.5t131.5 -156.5z
M364 820q0 21 14.5 35.5t36.5 14.5t36.5 -14.5t14.5 -35.5t-14.5 -35.5t-36.5 -14.5t-36.5 14.5t-14.5 35.5z" />
    <glyph glyph-name="gdotaccent" unicode="&#x121;" horiz-adv-x="650" 
d="M493 492h77v-488q0 -96 -73.5 -160t-185.5 -64q-88 0 -156.5 41.5t-98.5 118.5h77q22 -47 69 -73t109 -26q83 0 132 43.5t49 118.5v121q-22 -47 -77 -79t-124 -32q-110 0 -178 71.5t-68 173.5q0 103 68 174.5t178 71.5q72 0 127 -33t75 -82v103zM122 258q0 -78 50 -129
t133 -51q75 0 131 49.5t56 130.5t-56 131t-131 50q-83 0 -133 -51t-50 -130zM266 636q0 21 14.5 35.5t36.5 14.5t36.5 -14.5t14.5 -35.5t-14.5 -35.5t-36.5 -14.5t-36.5 14.5t-14.5 35.5z" />
    <glyph glyph-name="Gcommaaccent" unicode="&#x122;" horiz-adv-x="838" 
d="M758 502h-80q-37 66 -102 104t-152 38q-130 0 -212 -82.5t-82 -211.5q0 -131 82.5 -213.5t211.5 -82.5q111 0 182 57t97 150h-321v66h406q-9 -145 -108 -243t-256 -98q-161 0 -267.5 104.5t-106.5 259.5q0 157 105 260.5t269 103.5q116 0 202.5 -55.5t131.5 -156.5z
M329 -250l48 175h90l-68 -175h-70z" />
    <glyph glyph-name="gcommaaccent" unicode="&#x123;" horiz-adv-x="650" 
d="M493 492h77v-488q0 -96 -73.5 -160t-185.5 -64q-88 0 -156.5 41.5t-98.5 118.5h77q22 -47 69 -73t109 -26q83 0 132 43.5t49 118.5v121q-22 -47 -77 -79t-124 -32q-110 0 -178 71.5t-68 173.5q0 103 68 174.5t178 71.5q72 0 127 -33t75 -82v103zM122 258q0 -78 50 -129
t133 -51q75 0 131 49.5t56 130.5t-56 131t-131 50q-83 0 -133 -51t-50 -130zM264 564l108 144h72l-82 -144h-98z" />
    <glyph glyph-name="Hcircumflex" unicode="&#x124;" horiz-adv-x="753" 
d="M90 0v700h80v-310h413v310h80v-700h-80v316h-413v-316h-80zM404 880l131 -122h-80l-79 75l-79 -75h-80l131 122h56z" />
    <glyph glyph-name="hcircumflex" unicode="&#x125;" horiz-adv-x="610" 
d="M158 269v-269h-78v730h78v-333q22 51 70 79t111 28q89 0 142.5 -62.5t53.5 -159.5v-282h-78v267q0 77 -35 122t-107 45q-68 0 -112.5 -47.5t-44.5 -117.5zM150 910l131 -122h-80l-79 75l-79 -75h-80l131 122h56z" />
    <glyph glyph-name="Hbar" unicode="&#x126;" horiz-adv-x="813" 
d="M40 518v58h80v124h80v-124h413v124h80v-124h81v-58h-81v-518h-80v316h-413v-316h-80v518h-80zM200 390h413v128h-413v-128z" />
    <glyph glyph-name="hbar" unicode="&#x127;" horiz-adv-x="638" 
d="M14 564v60h96v106h78v-106h161v-60h-161v-167q22 51 70 79t111 28q89 0 142.5 -62.5t53.5 -159.5v-282h-78v267q0 77 -35 122t-107 45q-68 0 -112.5 -47.5t-44.5 -117.5v-269h-78v564h-96z" />
    <glyph glyph-name="Itilde" unicode="&#x128;" horiz-adv-x="268" 
d="M94 0v700h80v-700h-80zM-15 755l-57 12q21 121 103 121q36 0 111 -36t95 -36q7 0 12.5 2t9 4t7 7t5.5 8.5t4 11.5t3 11.5t3 13t3 13.5l57 -11q-9 -55 -30 -87.5t-67 -32.5q-37 0 -110 36t-96 36q-24 0 -34 -16.5t-19 -56.5z" />
    <glyph glyph-name="itilde" unicode="&#x129;" horiz-adv-x="244" 
d="M161 0h-78v492h78v-492zM-7 572l-57 12q21 121 103 121q33 0 92 -36t74 -36q17 0 27 12t13 23t7 36l57 -11q-16 -120 -97 -120q-31 0 -89 36t-77 36q-24 0 -34.5 -17t-18.5 -56z" />
    <glyph glyph-name="Imacron" unicode="&#x12a;" horiz-adv-x="268" 
d="M94 0v700h80v-700h-80zM-44 793v62h357v-62h-357z" />
    <glyph glyph-name="imacron" unicode="&#x12b;" horiz-adv-x="244" 
d="M161 0h-78v492h78v-492zM-46 606v62h336v-62h-336z" />
    <glyph glyph-name="Ibreve" unicode="&#x12c;" horiz-adv-x="268" 
d="M94 0v700h80v-700h-80zM134 758q-69 0 -114 34t-53 88h64q6 -32 33.5 -51t69.5 -19t69.5 19t33.5 51h64q-8 -54 -53 -88t-114 -34z" />
    <glyph glyph-name="ibreve" unicode="&#x12d;" horiz-adv-x="244" 
d="M161 0h-78v492h78v-492zM122 564q-67 0 -111 38.5t-53 100.5h63q7 -40 33 -64.5t68 -24.5t68 24.5t33 64.5h63q-9 -62 -53 -100.5t-111 -38.5z" />
    <glyph glyph-name="Iogonek" unicode="&#x12e;" horiz-adv-x="268" 
d="M94 0v700h80v-700q-33 -28 -51 -55t-18 -67q0 -45 44 -45q16 0 25 3v-51q-15 -5 -42 -5q-44 0 -68.5 25t-24.5 70q0 43 29.5 76t69.5 49h-44z" />
    <glyph glyph-name="iogonek" unicode="&#x12f;" horiz-adv-x="244" 
d="M161 0q-33 -28 -51 -55t-18 -67q0 -45 44 -45q16 0 25 3v-51q-15 -5 -42 -5q-44 0 -68.5 25t-24.5 70q0 43 29.5 76t69.5 49h-42v492h78v-492zM71 661q0 21 14.5 35.5t36.5 14.5t36.5 -14.5t14.5 -35.5t-14.5 -35.5t-36.5 -14.5t-36.5 14.5t-14.5 35.5z" />
    <glyph glyph-name="Idotaccent" unicode="&#x130;" horiz-adv-x="268" 
d="M94 0v700h80v-700h-80zM83 820q0 21 14.5 35.5t36.5 14.5t36.5 -14.5t14.5 -35.5t-14.5 -35.5t-36.5 -14.5t-36.5 14.5t-14.5 35.5z" />
    <glyph glyph-name="dotlessi" unicode="&#x131;" horiz-adv-x="244" 
d="M161 0h-78v492h78v-492z" />
    <glyph glyph-name="IJ" unicode="&#x132;" horiz-adv-x="898" 
d="M94 0v700h80v-700h-80zM353 631v69h457v-482q0 -98 -67 -165t-175 -67q-105 0 -168 62t-74 164h75q21 -157 167 -157q74 0 118 44t44 119v413h-377z" />
    <glyph glyph-name="ij" unicode="&#x133;" horiz-adv-x="486" 
d="M161 0h-78v492h78v-492zM71 661q0 21 14.5 35.5t36.5 14.5t36.5 -14.5t14.5 -35.5t-14.5 -35.5t-36.5 -14.5t-36.5 14.5t-14.5 35.5zM327 492h78v-564q0 -71 -36 -109.5t-103 -38.5q-36 0 -59 8v65q19 -7 40 -7q41 0 60.5 21t19.5 68v557zM315 661q0 21 14.5 35.5
t36.5 14.5t36.5 -14.5t14.5 -35.5t-14.5 -35.5t-36.5 -14.5t-36.5 14.5t-14.5 35.5z" />
    <glyph glyph-name="Jcircumflex" unicode="&#x134;" horiz-adv-x="630" 
d="M85 631v69h457v-482q0 -98 -67 -165t-175 -67q-105 0 -168 62t-74 164h75q21 -157 167 -157q74 0 118 44t44 119v413h-377zM348 880l131 -122h-80l-79 75l-79 -75h-80l131 122h56z" />
    <glyph glyph-name="jcircumflex" unicode="&#x135;" horiz-adv-x="238" 
d="M80 492h78v-564q0 -71 -36 -109.5t-103 -38.5q-36 0 -59 8v65q19 -7 40 -7q41 0 60.5 21t19.5 68v557zM148 708l132 -144h-79l-82 92l-82 -92h-79l132 144h58z" />
    <glyph glyph-name="Kcommaaccent" unicode="&#x136;" horiz-adv-x="654" 
d="M90 0v700h80v-337l348 337h96l-352 -344l367 -356h-99l-360 350v-350h-80zM260 -250l48 175h90l-68 -175h-70z" />
    <glyph glyph-name="kcommaaccent" unicode="&#x137;" horiz-adv-x="530" 
d="M158 0h-78v730h78v-471l238 233h97l-245 -239l257 -253h-98l-249 244v-244zM194 -250l48 175h90l-68 -175h-70z" />
    <glyph glyph-name="kgreenlandic" unicode="&#x138;" horiz-adv-x="530" 
d="M158 0h-78v492h78v-233l238 233h97l-245 -239l257 -253h-98l-249 244v-244z" />
    <glyph glyph-name="Lacute" unicode="&#x139;" horiz-adv-x="554" 
d="M90 0v700h80v-630h345v-70h-425zM278 880l-106 -122h-74l80 122h100z" />
    <glyph glyph-name="lacute" unicode="&#x13a;" horiz-adv-x="238" 
d="M158 0h-78v730h78v-730zM268 910l-106 -122h-74l80 122h100z" />
    <glyph glyph-name="Lcommaaccent" unicode="&#x13b;" horiz-adv-x="554" 
d="M90 0v700h80v-630h345v-70h-425zM220 -250l48 175h90l-68 -175h-70z" />
    <glyph glyph-name="lcommaaccent" unicode="&#x13c;" horiz-adv-x="238" 
d="M158 0h-78v730h78v-730zM22 -250l48 175h90l-68 -175h-70z" />
    <glyph glyph-name="Lcaron" unicode="&#x13d;" horiz-adv-x="554" 
d="M90 0v700h80v-630h345v-70h-425zM311 481l58 219h92l-81 -219h-69z" />
    <glyph glyph-name="lcaron" unicode="&#x13e;" horiz-adv-x="488" 
d="M158 0h-78v730h78v-730zM293 511l58 219h92l-81 -219h-69z" />
    <glyph glyph-name="Ldot" unicode="&#x13f;" horiz-adv-x="554" 
d="M90 0v700h80v-630h345v-70h-425zM312 316q0 22 15 37t39 15t39 -15t15 -37t-15 -37t-39 -15t-39 15t-15 37z" />
    <glyph glyph-name="ldot" unicode="&#x140;" horiz-adv-x="419" 
d="M158 0h-78v730h78v-730zM266 267q0 22 15 37t39 15t39 -15t15 -37t-15 -37t-39 -15t-39 15t-15 37z" />
    <glyph glyph-name="Lslash" unicode="&#x141;" horiz-adv-x="575" 
d="M40 222v76l71 45v357h80v-306l170 108v-76l-170 -108v-248h345v-70h-425v267z" />
    <glyph glyph-name="lslash" unicode="&#x142;" horiz-adv-x="298" 
d="M37 269v76l73 50v335h78v-280l75 52v-76l-75 -52v-374h-78v319z" />
    <glyph glyph-name="Nacute" unicode="&#x143;" horiz-adv-x="773" 
d="M90 0v700h62l457 -575v575h74v-700h-62l-457 575v-575h-74zM518 880l-106 -122h-74l80 122h100z" />
    <glyph glyph-name="nacute" unicode="&#x144;" horiz-adv-x="610" 
d="M158 269v-269h-78v492h75v-96q19 52 68.5 80t115.5 28q89 0 142.5 -62.5t53.5 -159.5v-282h-78v267q0 77 -35 122t-107 45q-68 0 -112.5 -47.5t-44.5 -117.5zM432 708l-108 -144h-72l82 144h98z" />
    <glyph glyph-name="Ncommaaccent" unicode="&#x145;" horiz-adv-x="773" 
d="M90 0v700h62l457 -575v575h74v-700h-62l-457 575v-575h-74zM317 -250l48 175h90l-68 -175h-70z" />
    <glyph glyph-name="ncommaaccent" unicode="&#x146;" horiz-adv-x="610" 
d="M158 269v-269h-78v492h75v-96q19 52 68.5 80t115.5 28q89 0 142.5 -62.5t53.5 -159.5v-282h-78v267q0 77 -35 122t-107 45q-68 0 -112.5 -47.5t-44.5 -117.5zM227 -250l48 175h90l-68 -175h-70z" />
    <glyph glyph-name="Ncaron" unicode="&#x147;" horiz-adv-x="773" 
d="M90 0v700h62l457 -575v575h74v-700h-62l-457 575v-575h-74zM545 880l-131 -122h-56l-131 122h80l79 -75l79 75h80z" />
    <glyph glyph-name="ncaron" unicode="&#x148;" horiz-adv-x="610" 
d="M158 269v-269h-78v492h75v-96q19 52 68.5 80t115.5 28q89 0 142.5 -62.5t53.5 -159.5v-282h-78v267q0 77 -35 122t-107 45q-68 0 -112.5 -47.5t-44.5 -117.5zM477 708l-132 -144h-58l-132 144h79l82 -92l82 92h79z" />
    <glyph glyph-name="napostrophe" unicode="&#x149;" horiz-adv-x="801" 
d="M349 269v-269h-78v492h75v-96q19 52 68.5 80t115.5 28q89 0 142.5 -62.5t53.5 -159.5v-282h-78v267q0 77 -35 122t-107 45q-68 0 -112.5 -47.5t-44.5 -117.5zM55 511l58 219h92l-81 -219h-69z" />
    <glyph glyph-name="Eng" unicode="&#x14a;" horiz-adv-x="773" 
d="M90 0v700h62l457 -575v575h74v-771q0 -69 -37.5 -109t-104.5 -40q-35 0 -56 8v64q17 -6 38 -6q42 0 62 21.5t20 68.5v84l-441 555v-575h-74z" />
    <glyph glyph-name="eng" unicode="&#x14b;" horiz-adv-x="610" 
d="M158 269v-269h-78v492h75v-96q19 52 68.5 80t115.5 28q89 0 142.5 -62.5t53.5 -159.5v-353q0 -69 -37.5 -109t-104.5 -40q-35 0 -56 8v64q17 -6 38 -6q42 0 62 21.5t20 68.5v331q0 77 -35 122t-107 45q-68 0 -112.5 -47.5t-44.5 -117.5z" />
    <glyph glyph-name="Omacron" unicode="&#x14c;" horiz-adv-x="844" 
d="M50 350q0 155 106 259.5t266 104.5t266 -104.5t106 -259.5t-106 -259.5t-266 -104.5t-266 104t-106 260zM422 644q-128 0 -210 -84.5t-82 -209.5q0 -124 82 -209t210 -85t210 85t82 209q0 125 -81.5 209.5t-210.5 84.5zM244 793v62h357v-62h-357z" />
    <glyph glyph-name="omacron" unicode="&#x14d;" horiz-adv-x="622" 
d="M311 -12q-118 0 -192 76.5t-74 181.5t74 181.5t192 76.5t192 -76.5t74 -181.5t-74 -181.5t-192 -76.5zM311 439q-85 0 -137.5 -57.5t-52.5 -135.5q0 -79 52.5 -136t137.5 -57q86 0 138 57t52 136q0 78 -52 135.5t-138 57.5zM143 606v62h336v-62h-336z" />
    <glyph glyph-name="Obreve" unicode="&#x14e;" horiz-adv-x="844" 
d="M50 350q0 155 106 259.5t266 104.5t266 -104.5t106 -259.5t-106 -259.5t-266 -104.5t-266 104t-106 260zM422 644q-128 0 -210 -84.5t-82 -209.5q0 -124 82 -209t210 -85t210 85t82 209q0 125 -81.5 209.5t-210.5 84.5zM422 758q-69 0 -114 34t-53 88h64q6 -32 33.5 -51
t69.5 -19t69.5 19t33.5 51h64q-8 -54 -53 -88t-114 -34z" />
    <glyph glyph-name="obreve" unicode="&#x14f;" horiz-adv-x="622" 
d="M311 -12q-118 0 -192 76.5t-74 181.5t74 181.5t192 76.5t192 -76.5t74 -181.5t-74 -181.5t-192 -76.5zM311 439q-85 0 -137.5 -57.5t-52.5 -135.5q0 -79 52.5 -136t137.5 -57q86 0 138 57t52 136q0 78 -52 135.5t-138 57.5zM311 564q-67 0 -111 38.5t-53 100.5h63
q7 -40 33 -64.5t68 -24.5t68 24.5t33 64.5h63q-9 -62 -53 -100.5t-111 -38.5z" />
    <glyph glyph-name="Ohungarumlaut" unicode="&#x150;" horiz-adv-x="844" 
d="M50 350q0 155 106 259.5t266 104.5t266 -104.5t106 -259.5t-106 -259.5t-266 -104.5t-266 104t-106 260zM422 644q-128 0 -210 -84.5t-82 -209.5q0 -124 82 -209t210 -85t210 85t82 209q0 125 -81.5 209.5t-210.5 84.5zM433 880l-85 -122h-76l69 122h92zM670 880
l-85 -122h-76l69 122h92z" />
    <glyph glyph-name="ohungarumlaut" unicode="&#x151;" horiz-adv-x="622" 
d="M311 -12q-118 0 -192 76.5t-74 181.5t74 181.5t192 76.5t192 -76.5t74 -181.5t-74 -181.5t-192 -76.5zM311 439q-85 0 -137.5 -57.5t-52.5 -135.5q0 -79 52.5 -136t137.5 -57q86 0 138 57t52 136q0 78 -52 135.5t-138 57.5zM347 708l-98 -144h-76l82 144h92zM567 708
l-98 -144h-76l82 144h92z" />
    <glyph glyph-name="OE" unicode="&#x152;" horiz-adv-x="1090" 
d="M468 0q-101 0 -182 28t-132 76t-77.5 111t-26.5 135t26.5 135t77.5 111t132 76t182 28h573v-70h-362v-239h353v-70h-353v-251h366v-70h-577zM130 350q0 -127 88.5 -204.5t255.5 -77.5h125v564h-125q-167 0 -255.5 -77.5t-88.5 -204.5z" />
    <glyph glyph-name="oe" unicode="&#x153;" horiz-adv-x="1056" 
d="M1011 214h-433q9 -77 57.5 -121.5t125.5 -44.5q55 0 98.5 23.5t66.5 60.5h74q-29 -63 -93 -103.5t-145 -40.5q-77 0 -136 33t-89 89q-31 -55 -90.5 -88.5t-135.5 -33.5q-118 0 -192 76.5t-74 181.5t74 181.5t192 76.5q75 0 133.5 -33t92.5 -90q33 57 91 90t130 33
q114 0 183.5 -72.5t69.5 -180.5v-37zM311 439q-85 0 -137.5 -57.5t-52.5 -135.5q0 -79 52.5 -136t137.5 -57q86 0 138 57t52 136q0 78 -52 135.5t-138 57.5zM759 446q-74 0 -124.5 -47t-57.5 -125h361q-6 76 -54 124t-125 48z" />
    <glyph glyph-name="Racute" unicode="&#x154;" horiz-adv-x="664" 
d="M527 0l-205 222h-152v-222h-80v700h266q110 0 180 -69.5t70 -168.5q0 -84 -52.5 -149.5t-138.5 -84.5l213 -228h-101zM170 291h178q83 0 131 50.5t48 120.5t-48 119.5t-131 49.5h-178v-340zM445 880l-106 -122h-74l80 122h100z" />
    <glyph glyph-name="racute" unicode="&#x155;" horiz-adv-x="370" 
d="M353 496v-74h-21q-81 0 -127.5 -51t-46.5 -138v-233h-78v492h75v-122q34 126 198 126zM342 708l-108 -144h-72l82 144h98z" />
    <glyph glyph-name="Rcommaaccent" unicode="&#x156;" horiz-adv-x="664" 
d="M527 0l-205 222h-152v-222h-80v700h266q110 0 180 -69.5t70 -168.5q0 -84 -52.5 -149.5t-138.5 -84.5l213 -228h-101zM170 291h178q83 0 131 50.5t48 120.5t-48 119.5t-131 49.5h-178v-340zM251 -250l48 175h90l-68 -175h-70z" />
    <glyph glyph-name="rcommaaccent" unicode="&#x157;" horiz-adv-x="370" 
d="M353 496v-74h-21q-81 0 -127.5 -51t-46.5 -138v-233h-78v492h75v-122q34 126 198 126zM24 -250l48 175h90l-68 -175h-70z" />
    <glyph glyph-name="Rcaron" unicode="&#x158;" horiz-adv-x="664" 
d="M527 0l-205 222h-152v-222h-80v700h266q110 0 180 -69.5t70 -168.5q0 -84 -52.5 -149.5t-138.5 -84.5l213 -228h-101zM170 291h178q83 0 131 50.5t48 120.5t-48 119.5t-131 49.5h-178v-340zM481 880l-131 -122h-56l-131 122h80l79 -75l79 75h80z" />
    <glyph glyph-name="rcaron" unicode="&#x159;" horiz-adv-x="370" 
d="M353 496v-74h-21q-81 0 -127.5 -51t-46.5 -138v-233h-78v492h75v-122q34 126 198 126zM384 708l-132 -144h-58l-132 144h79l82 -92l82 92h79z" />
    <glyph glyph-name="Sacute" unicode="&#x15a;" horiz-adv-x="581" 
d="M51 193h76q12 -66 55.5 -104t114.5 -38q73 0 116.5 38t43.5 96q0 98 -122 133l-87 25q-176 51 -176 185q0 83 61.5 134.5t155.5 51.5t151.5 -53.5t64.5 -136.5h-73q-7 56 -45 90.5t-99 34.5q-63 0 -101 -32t-38 -87q0 -50 31.5 -76t94.5 -44l83 -25q86 -25 131 -71
t45 -124q0 -90 -67.5 -147t-170.5 -57q-102 0 -166.5 56.5t-78.5 150.5zM430 880l-106 -122h-74l80 122h100z" />
    <glyph glyph-name="sacute" unicode="&#x15b;" horiz-adv-x="456" 
d="M42 140h69q8 -44 40 -69t82 -25q49 0 80.5 24t31.5 63q0 58 -75 80l-80 23q-126 35 -126 133q0 60 46 97.5t117 37.5t113 -37.5t51 -100.5h-68q-4 34 -28.5 57t-67.5 23q-41 0 -66 -20.5t-25 -54.5q0 -31 17.5 -46t57.5 -27l89 -26q117 -34 117 -134q0 -67 -54.5 -108.5
t-130.5 -41.5t-128 39t-62 113zM364 708l-108 -144h-72l82 144h98z" />
    <glyph glyph-name="Scircumflex" unicode="&#x15c;" horiz-adv-x="581" 
d="M51 193h76q12 -66 55.5 -104t114.5 -38q73 0 116.5 38t43.5 96q0 98 -122 133l-87 25q-176 51 -176 185q0 83 61.5 134.5t155.5 51.5t151.5 -53.5t64.5 -136.5h-73q-7 56 -45 90.5t-99 34.5q-63 0 -101 -32t-38 -87q0 -50 31.5 -76t94.5 -44l83 -25q86 -25 131 -71
t45 -124q0 -90 -67.5 -147t-170.5 -57q-102 0 -166.5 56.5t-78.5 150.5zM320 880l131 -122h-80l-79 75l-79 -75h-80l131 122h56z" />
    <glyph glyph-name="scircumflex" unicode="&#x15d;" horiz-adv-x="456" 
d="M42 140h69q8 -44 40 -69t82 -25q49 0 80.5 24t31.5 63q0 58 -75 80l-80 23q-126 35 -126 133q0 60 46 97.5t117 37.5t113 -37.5t51 -100.5h-68q-4 34 -28.5 57t-67.5 23q-41 0 -66 -20.5t-25 -54.5q0 -31 17.5 -46t57.5 -27l89 -26q117 -34 117 -134q0 -67 -54.5 -108.5
t-130.5 -41.5t-128 39t-62 113zM258 708l132 -144h-79l-82 92l-82 -92h-79l132 144h58z" />
    <glyph glyph-name="Scedilla" unicode="&#x15e;" horiz-adv-x="581" 
d="M51 193h76q12 -66 55.5 -104t114.5 -38q73 0 116.5 38t43.5 96q0 98 -122 133l-87 25q-176 51 -176 185q0 83 61.5 134.5t155.5 51.5t151.5 -53.5t64.5 -136.5h-73q-7 56 -45 90.5t-99 34.5q-63 0 -101 -32t-38 -87q0 -50 31.5 -76t94.5 -44l83 -25q86 -25 131 -71
t45 -124q0 -86 -61.5 -142t-158.5 -61l-17 -56l20 -2q79 -8 79 -72q0 -36 -26.5 -56.5t-72.5 -20.5t-79 12v46q35 -11 67 -11q49 0 49 28q0 24 -46 29l-62 6l41 98q-90 8 -147 63t-69 142z" />
    <glyph glyph-name="scedilla" unicode="&#x15f;" horiz-adv-x="456" 
d="M42 140h69q8 -44 40 -69t82 -25q49 0 80.5 24t31.5 63q0 58 -75 80l-80 23q-126 35 -126 133q0 60 46 97.5t117 37.5t113 -37.5t51 -100.5h-68q-4 34 -28.5 57t-67.5 23q-41 0 -66 -20.5t-25 -54.5q0 -31 17.5 -46t57.5 -27l89 -26q117 -34 117 -134q0 -62 -47.5 -102.5
t-117.5 -46.5l-18 -58l20 -2q79 -8 79 -72q0 -36 -26.5 -56.5t-72.5 -20.5t-79 12v46q35 -11 67 -11q49 0 49 28q0 24 -46 29l-62 6l42 100q-66 6 -110 44t-53 106z" />
    <glyph glyph-name="Scaron" unicode="&#x160;" horiz-adv-x="581" 
d="M51 193h76q12 -66 55.5 -104t114.5 -38q73 0 116.5 38t43.5 96q0 98 -122 133l-87 25q-176 51 -176 185q0 83 61.5 134.5t155.5 51.5t151.5 -53.5t64.5 -136.5h-73q-7 56 -45 90.5t-99 34.5q-63 0 -101 -32t-38 -87q0 -50 31.5 -76t94.5 -44l83 -25q86 -25 131 -71
t45 -124q0 -90 -67.5 -147t-170.5 -57q-102 0 -166.5 56.5t-78.5 150.5zM451 880l-131 -122h-56l-131 122h80l79 -75l79 75h80z" />
    <glyph glyph-name="scaron" unicode="&#x161;" horiz-adv-x="456" 
d="M42 140h69q8 -44 40 -69t82 -25q49 0 80.5 24t31.5 63q0 58 -75 80l-80 23q-126 35 -126 133q0 60 46 97.5t117 37.5t113 -37.5t51 -100.5h-68q-4 34 -28.5 57t-67.5 23q-41 0 -66 -20.5t-25 -54.5q0 -31 17.5 -46t57.5 -27l89 -26q117 -34 117 -134q0 -67 -54.5 -108.5
t-130.5 -41.5t-128 39t-62 113zM390 708l-132 -144h-58l-132 144h79l82 -92l82 92h79z" />
    <glyph glyph-name="Tcommaaccent" unicode="&#x162;" horiz-adv-x="606" 
d="M572 700v-69h-229v-631h-80v631h-229v69h538zM208 -250l48 175h90l-68 -175h-70z" />
    <glyph glyph-name="tcommaaccent" unicode="&#x163;" horiz-adv-x="378" 
d="M121 492v156h78v-156h149v-65h-149v-275q0 -52 19 -75t65 -23q27 0 59 9v-63q-28 -12 -76 -12q-82 0 -113.5 46.5t-31.5 142.5v250h-101v65h101zM131 -250l48 175h90l-68 -175h-70z" />
    <glyph glyph-name="Tcaron" unicode="&#x164;" horiz-adv-x="606" 
d="M572 700v-69h-229v-631h-80v631h-229v69h538zM462 880l-131 -122h-56l-131 122h80l79 -75l79 75h80z" />
    <glyph glyph-name="tcaron" unicode="&#x165;" horiz-adv-x="431" 
d="M294 574l50 156h82l-68 -156h-64zM121 492v156h78v-156h149v-65h-149v-275q0 -52 19 -75t65 -23q27 0 59 9v-63q-28 -12 -76 -12q-82 0 -113.5 46.5t-31.5 142.5v250h-101v65h101z" />
    <glyph glyph-name="Tbar" unicode="&#x166;" horiz-adv-x="606" 
d="M572 700v-69h-229v-267h156v-68h-156v-296h-80v296h-156v68h156v267h-229v69h538z" />
    <glyph glyph-name="tbar" unicode="&#x167;" horiz-adv-x="378" 
d="M121 492v156h78v-156h149v-65h-149v-138h149v-62h-149v-75q0 -52 19 -75t65 -23q27 0 59 9v-63q-28 -12 -76 -12q-82 0 -113.5 46.5t-31.5 142.5v50h-101v62h101v138h-101v65h101z" />
    <glyph glyph-name="Utilde" unicode="&#x168;" horiz-adv-x="758" 
d="M670 700v-436q0 -121 -81.5 -199.5t-209.5 -78.5t-209.5 78.5t-81.5 199.5v436h80v-439q0 -92 58.5 -148.5t152.5 -56.5t152.5 56.5t58.5 148.5v439h80zM236 755l-57 12q21 121 103 121q36 0 111 -36t95 -36q7 0 12.5 2t9 4t7 7t5.5 8.5t4 11.5t3 11.5t3 13t3 13.5
l57 -11q-9 -55 -30.5 -87.5t-66.5 -32.5q-37 0 -110 36t-96 36q-24 0 -34 -16.5t-19 -56.5z" />
    <glyph glyph-name="utilde" unicode="&#x169;" horiz-adv-x="606" 
d="M448 221v271h78v-492h-75v96q-22 -52 -69.5 -80t-112.5 -28q-89 0 -141.5 62t-52.5 160v282h78v-269q0 -77 34 -122t106 -45q68 0 111.5 47t43.5 118zM179 572l-57 12q21 121 103 121q33 0 92 -36t74 -36q17 0 27 12t13 23t7 36l57 -11q-16 -120 -97 -120q-31 0 -89 36
t-77 36q-24 0 -34.5 -17t-18.5 -56z" />
    <glyph glyph-name="Umacron" unicode="&#x16a;" horiz-adv-x="758" 
d="M670 700v-436q0 -121 -81.5 -199.5t-209.5 -78.5t-209.5 78.5t-81.5 199.5v436h80v-439q0 -92 58.5 -148.5t152.5 -56.5t152.5 56.5t58.5 148.5v439h80zM201 793v62h357v-62h-357z" />
    <glyph glyph-name="umacron" unicode="&#x16b;" horiz-adv-x="606" 
d="M448 221v271h78v-492h-75v96q-22 -52 -69.5 -80t-112.5 -28q-89 0 -141.5 62t-52.5 160v282h78v-269q0 -77 34 -122t106 -45q68 0 111.5 47t43.5 118zM139 606v62h336v-62h-336z" />
    <glyph glyph-name="Ubreve" unicode="&#x16c;" horiz-adv-x="758" 
d="M670 700v-436q0 -121 -81.5 -199.5t-209.5 -78.5t-209.5 78.5t-81.5 199.5v436h80v-439q0 -92 58.5 -148.5t152.5 -56.5t152.5 56.5t58.5 148.5v439h80zM379 758q-69 0 -114 34t-53 88h64q6 -32 33.5 -51t69.5 -19t69.5 19t33.5 51h64q-8 -54 -53 -88t-114 -34z" />
    <glyph glyph-name="ubreve" unicode="&#x16d;" horiz-adv-x="606" 
d="M448 221v271h78v-492h-75v96q-22 -52 -69.5 -80t-112.5 -28q-89 0 -141.5 62t-52.5 160v282h78v-269q0 -77 34 -122t106 -45q68 0 111.5 47t43.5 118zM313 564q-67 0 -111 38.5t-53 100.5h63q7 -40 33 -64.5t68 -24.5t68 24.5t33 64.5h63q-9 -62 -53 -100.5t-111 -38.5z
" />
    <glyph glyph-name="Uring" unicode="&#x16e;" horiz-adv-x="758" 
d="M670 700v-436q0 -121 -81.5 -199.5t-209.5 -78.5t-209.5 78.5t-81.5 199.5v436h80v-439q0 -92 58.5 -148.5t152.5 -56.5t152.5 56.5t58.5 148.5v439h80zM286 844q0 36 25.5 61t67.5 25t67.5 -25t25.5 -61t-25.5 -61t-67.5 -25t-67.5 25t-25.5 61zM329 844q0 -21 13.5 -35
t36.5 -14t36.5 14t13.5 35t-13.5 35t-36.5 14t-36.5 -14t-13.5 -35z" />
    <glyph glyph-name="uring" unicode="&#x16f;" horiz-adv-x="606" 
d="M448 221v271h78v-492h-75v96q-22 -52 -69.5 -80t-112.5 -28q-89 0 -141.5 62t-52.5 160v282h78v-269q0 -77 34 -122t106 -45q68 0 111.5 47t43.5 118zM219 646q0 36 25.5 61t67.5 25t67.5 -25t25.5 -61t-25.5 -61t-67.5 -25t-67.5 25t-25.5 61zM262 646q0 -21 13.5 -35
t36.5 -14t36.5 14t13.5 35t-13.5 35t-36.5 14t-36.5 -14t-13.5 -35z" />
    <glyph glyph-name="Uhungarumlaut" unicode="&#x170;" horiz-adv-x="758" 
d="M670 700v-436q0 -121 -81.5 -199.5t-209.5 -78.5t-209.5 78.5t-81.5 199.5v436h80v-439q0 -92 58.5 -148.5t152.5 -56.5t152.5 56.5t58.5 148.5v439h80zM372 880l-85 -122h-76l69 122h92zM609 880l-85 -122h-76l69 122h92z" />
    <glyph glyph-name="uhungarumlaut" unicode="&#x171;" horiz-adv-x="606" 
d="M448 221v271h78v-492h-75v96q-22 -52 -69.5 -80t-112.5 -28q-89 0 -141.5 62t-52.5 160v282h78v-269q0 -77 34 -122t106 -45q68 0 111.5 47t43.5 118zM323 708l-98 -144h-76l82 144h92zM543 708l-98 -144h-76l82 144h92z" />
    <glyph glyph-name="Uogonek" unicode="&#x172;" horiz-adv-x="758" 
d="M670 700v-436q0 -149 -119 -230q-59 -40 -89 -75.5t-30 -79.5q0 -22 13.5 -34t36.5 -12t32 3v-51q-15 -5 -42 -5q-50 0 -78 26t-28 72q0 62 80 115q-37 -7 -67 -7q-128 0 -209.5 78.5t-81.5 199.5v436h80v-439q0 -92 58.5 -148.5t152.5 -56.5t152.5 56.5t58.5 148.5v439
h80z" />
    <glyph glyph-name="uogonek" unicode="&#x173;" horiz-adv-x="606" 
d="M378 -123q0 43 37.5 78.5t74.5 44.5h-39v96q-22 -52 -69.5 -80t-112.5 -28q-89 0 -141.5 62t-52.5 160v282h78v-269q0 -77 34 -122t106 -45q68 0 111.5 47t43.5 118v271h78v-492q-26 -20 -40.5 -32.5t-28 -36.5t-13.5 -50q0 -22 15 -35t39 -13q19 0 28 3v-51
q-15 -5 -42 -5q-49 0 -77.5 26t-28.5 71z" />
    <glyph glyph-name="Wcircumflex" unicode="&#x174;" horiz-adv-x="1004" 
d="M539 700l197 -601l166 601h78l-208 -700h-72l-198 611l-198 -611h-72l-208 700h78l166 -601l197 601h74zM530 880l131 -122h-80l-79 75l-79 -75h-80l131 122h56z" />
    <glyph glyph-name="wcircumflex" unicode="&#x175;" horiz-adv-x="798" 
d="M425 492l159 -387l116 387h75l-161 -492h-54l-161 386l-161 -386h-54l-161 492h75l116 -387l159 387h52zM428 708l132 -144h-79l-82 92l-82 -92h-79l132 144h58z" />
    <glyph glyph-name="Ycircumflex" unicode="&#x176;" horiz-adv-x="614" 
d="M307 343l205 357h86l-251 -432v-268h-80v268l-251 432h86zM335 880l131 -122h-80l-79 75l-79 -75h-80l131 122h56z" />
    <glyph glyph-name="ycircumflex" unicode="&#x177;" horiz-adv-x="524" 
d="M263 98l159 394h83l-206 -480l-93 -220h-80l96 226l-203 474h81zM295 708l132 -144h-79l-82 92l-82 -92h-79l132 144h58z" />
    <glyph glyph-name="Ydieresis" unicode="&#x178;" horiz-adv-x="614" 
d="M307 343l205 357h86l-251 -432v-268h-80v268l-251 432h86zM143 827q0 20 14 34t36 14t36 -14t14 -34q0 -19 -14 -33.5t-36 -14.5t-36 14.5t-14 33.5zM371 827q0 20 14 34t36 14t36 -14t14 -34q0 -19 -14 -33.5t-36 -14.5t-36 14.5t-14 33.5z" />
    <glyph glyph-name="Zacute" unicode="&#x179;" horiz-adv-x="590" 
d="M47 4l370 627h-351v69h474v-4l-372 -627h380v-69h-501v4zM430 880l-106 -122h-74l80 122h100z" />
    <glyph glyph-name="zacute" unicode="&#x17a;" horiz-adv-x="460" 
d="M40 3l262 425h-248v64h366v-3l-262 -425h264v-64h-382v3zM369 708l-108 -144h-72l82 144h98z" />
    <glyph glyph-name="Zdotaccent" unicode="&#x17b;" horiz-adv-x="590" 
d="M47 4l370 627h-351v69h474v-4l-372 -627h380v-69h-501v4zM255 820q0 21 14.5 35.5t36.5 14.5t36.5 -14.5t14.5 -35.5t-14.5 -35.5t-36.5 -14.5t-36.5 14.5t-14.5 35.5z" />
    <glyph glyph-name="zdotaccent" unicode="&#x17c;" horiz-adv-x="460" 
d="M40 3l262 425h-248v64h366v-3l-262 -425h264v-64h-382v3zM195 636q0 21 14.5 35.5t36.5 14.5t36.5 -14.5t14.5 -35.5t-14.5 -35.5t-36.5 -14.5t-36.5 14.5t-14.5 35.5z" />
    <glyph glyph-name="Zcaron" unicode="&#x17d;" horiz-adv-x="590" 
d="M47 4l370 627h-351v69h474v-4l-372 -627h380v-69h-501v4zM466 880l-131 -122h-56l-131 122h80l79 -75l79 75h80z" />
    <glyph glyph-name="zcaron" unicode="&#x17e;" horiz-adv-x="460" 
d="M40 3l262 425h-248v64h366v-3l-262 -425h264v-64h-382v3zM408 708l-132 -144h-58l-132 144h79l82 -92l82 92h79z" />
    <glyph glyph-name="florin" unicode="&#x192;" horiz-adv-x="530" 
d="M229 390h-104l6 63h104l9 108q8 93 51 137t125 44q45 0 70 -9l-5 -63q-28 6 -56 6q-52 0 -77 -27t-30 -90l-9 -106h147l-5 -63h-148l-28 -321q-8 -93 -48.5 -138.5t-118.5 -45.5q-42 0 -72 8l6 65q26 -7 54 -7q50 0 72.5 26t28.5 92z" />
    <glyph glyph-name="Aringacute" unicode="&#x1fa;" horiz-adv-x="720" 
d="M267 749q0 36 25.5 61t67.5 25t67.5 -25t25.5 -61q0 -53 -49 -77l283 -672h-83l-61 151h-366l-61 -151h-83l282 672q-48 23 -48 77zM360 608l-156 -390h312zM497 975l-86 -100h-70l66 100h90zM310 749q0 -21 13.5 -35t36.5 -14t36.5 14t13.5 35t-13.5 35t-36.5 14
t-36.5 -14t-13.5 -35z" />
    <glyph glyph-name="aringacute" unicode="&#x1fb;" 
d="M462 867l-85 -100h-70l66 100h89zM502 492h76v-492h-75v99q-25 -45 -80.5 -78t-125.5 -33q-110 0 -181 76.5t-71 181.5t71 181.5t181 76.5q71 0 127 -33t78 -79v100zM123 246q0 -81 52 -137.5t135 -56.5q76 0 133 53t57 141t-57 141t-133 53q-83 0 -135 -56.5t-52 -137.5
zM238 637q0 36 25.5 61t67.5 25t67.5 -25t25.5 -61t-25.5 -61t-67.5 -25t-67.5 25t-25.5 61zM281 637q0 -21 13.5 -35t36.5 -14t36.5 14t13.5 35t-13.5 35t-36.5 14t-36.5 -14t-13.5 -35z" />
    <glyph glyph-name="AEacute" unicode="&#x1fc;" horiz-adv-x="1056" 
d="M565 0v151h-352l-114 -151h-89l541 700h456v-70h-362v-239h353v-70h-353v-251h366v-70h-446zM264 218h301v395zM772 880l-106 -122h-74l80 122h100z" />
    <glyph glyph-name="aeacute" unicode="&#x1fd;" horiz-adv-x="975" 
d="M930 214h-433q9 -77 57.5 -121.5t125.5 -44.5q55 0 98.5 23.5t66.5 60.5h74q-29 -63 -93 -103.5t-145 -40.5q-72 0 -131 32.5t-86 81.5q-28 -48 -86.5 -81t-128.5 -33q-95 0 -149 45t-54 117q0 77 53 119.5t142 42.5q108 0 180 -36v16q0 74 -42.5 112.5t-119.5 38.5
q-95 0 -162 -38v66q53 33 166 33q145 0 204 -105q74 105 210 105q114 0 183.5 -72.5t69.5 -180.5v-37zM256 43q75 0 120 43t45 106v26q-26 15 -75 25t-94 10q-135 0 -135 -103q0 -52 35.5 -79.5t103.5 -27.5zM678 446q-74 0 -124.5 -47t-57.5 -125h361q-6 76 -54 124
t-125 48zM626 708l-108 -144h-72l82 144h98z" />
    <glyph glyph-name="Oslashacute" unicode="&#x1fe;" horiz-adv-x="844" 
d="M50 350q0 155 106 259.5t266 104.5q111 0 204 -56l94 120h74l-121 -155q121 -106 121 -273q0 -155 -106 -259.5t-266 -104.5q-115 0 -204 56l-94 -120h-74l121 154q-121 105 -121 274zM422 644q-128 0 -210 -84.5t-82 -209.5q0 -130 87 -215l364 465q-69 44 -159 44z
M714 350q0 130 -87 215l-364 -465q71 -44 159 -44q128 0 210 85t82 209zM563 880l-106 -122h-74l80 122h100z" />
    <glyph glyph-name="oslashacute" unicode="&#x1ff;" horiz-adv-x="622" 
d="M311 -12q-73 0 -134 32l-71 -97h-61l91 125q-91 77 -91 198q0 105 74 181.5t192 76.5q72 0 133 -32l71 97h62l-92 -126q43 -36 67.5 -88t24.5 -109q0 -105 -74 -181.5t-192 -76.5zM501 246q0 85 -57 140l-227 -310q41 -23 94 -23q86 0 138 57t52 136zM311 439
q-85 0 -137.5 -57.5t-52.5 -135.5q0 -84 56 -140l227 310q-41 23 -93 23zM449 708l-108 -144h-72l82 144h98z" />
    <glyph glyph-name="Scommaaccent" unicode="&#x218;" horiz-adv-x="581" 
d="M51 193h76q12 -66 55.5 -104t114.5 -38q73 0 116.5 38t43.5 96q0 98 -122 133l-87 25q-176 51 -176 185q0 83 61.5 134.5t155.5 51.5t151.5 -53.5t64.5 -136.5h-73q-7 56 -45 90.5t-99 34.5q-63 0 -101 -32t-38 -87q0 -50 31.5 -76t94.5 -44l83 -25q86 -25 131 -71
t45 -124q0 -90 -67.5 -147t-170.5 -57q-102 0 -166.5 56.5t-78.5 150.5zM204 -250l48 175h90l-68 -175h-70z" />
    <glyph glyph-name="scommaaccent" unicode="&#x219;" horiz-adv-x="456" 
d="M42 140h69q8 -44 40 -69t82 -25q49 0 80.5 24t31.5 63q0 58 -75 80l-80 23q-126 35 -126 133q0 60 46 97.5t117 37.5t113 -37.5t51 -100.5h-68q-4 34 -28.5 57t-67.5 23q-41 0 -66 -20.5t-25 -54.5q0 -31 17.5 -46t57.5 -27l89 -26q117 -34 117 -134q0 -67 -54.5 -108.5
t-130.5 -41.5t-128 39t-62 113zM132 -250l48 175h90l-68 -175h-70z" />
    <glyph glyph-name="circumflex" unicode="&#x2c6;" horiz-adv-x="482" 
d="M270 708l132 -144h-79l-82 92l-82 -92h-79l132 144h58z" />
    <glyph glyph-name="caron" unicode="&#x2c7;" horiz-adv-x="482" 
d="M402 708l-132 -144h-58l-132 144h79l82 -92l82 92h79z" />
    <glyph glyph-name="breve" unicode="&#x2d8;" horiz-adv-x="488" 
d="M244 564q-67 0 -111 38.5t-53 100.5h63q7 -40 33 -64.5t68 -24.5t68 24.5t33 64.5h63q-9 -62 -53 -100.5t-111 -38.5z" />
    <glyph glyph-name="dotaccent" unicode="&#x2d9;" horiz-adv-x="262" 
d="M80 636q0 21 14.5 35.5t36.5 14.5t36.5 -14.5t14.5 -35.5t-14.5 -35.5t-36.5 -14.5t-36.5 14.5t-14.5 35.5z" />
    <glyph glyph-name="ring" unicode="&#x2da;" horiz-adv-x="346" 
d="M80 646q0 36 25.5 61t67.5 25t67.5 -25t25.5 -61t-25.5 -61t-67.5 -25t-67.5 25t-25.5 61zM123 646q0 -21 13.5 -35t36.5 -14t36.5 14t13.5 35t-13.5 35t-36.5 14t-36.5 -14t-13.5 -35z" />
    <glyph glyph-name="ogonek" unicode="&#x2db;" horiz-adv-x="308" 
d="M80 -123q0 43 37.5 78.5t74.5 44.5h36q-26 -20 -40.5 -32.5t-28 -36.5t-13.5 -50q0 -22 15 -35t39 -13q19 0 28 3v-51q-15 -5 -42 -5q-49 0 -77.5 26t-28.5 71z" />
    <glyph glyph-name="tilde" unicode="&#x2dc;" horiz-adv-x="533" 
d="M137 572l-57 12q21 121 103 121q33 0 92 -36t74 -36q17 0 27 12t13 23t7 36l57 -11q-16 -120 -97 -120q-31 0 -89 36t-77 36q-24 0 -34.5 -17t-18.5 -56z" />
    <glyph glyph-name="hungarumlaut" unicode="&#x2dd;" horiz-adv-x="554" 
d="M254 708l-98 -144h-76l82 144h92zM474 708l-98 -144h-76l82 144h92z" />
    <glyph glyph-name="uni0312" unicode="&#x312;" horiz-adv-x="340" 
d="M80 564l108 144h72l-82 -144h-98z" />
    <glyph glyph-name="uni0315" unicode="&#x315;" horiz-adv-x="310" 
d="M80 511l58 219h92l-81 -219h-69z" />
    <glyph glyph-name="uni0326" unicode="&#x326;" horiz-adv-x="298" 
d="M80 -250l48 175h90l-68 -175h-70z" />
    <glyph glyph-name="Wgrave" unicode="&#x1e80;" horiz-adv-x="1004" 
d="M539 700l197 -601l166 601h78l-208 -700h-72l-198 611l-198 -611h-72l-208 700h78l166 -601l197 601h74zM460 758l-106 122h100l80 -122h-74z" />
    <glyph glyph-name="wgrave" unicode="&#x1e81;" horiz-adv-x="798" 
d="M425 492l159 -387l116 387h75l-161 -492h-54l-161 386l-161 -386h-54l-161 492h75l116 -387l159 387h52zM361 564l-108 144h98l82 -144h-72z" />
    <glyph glyph-name="Wacute" unicode="&#x1e82;" horiz-adv-x="1004" 
d="M539 700l197 -601l166 601h78l-208 -700h-72l-198 611l-198 -611h-72l-208 700h78l166 -601l197 601h74zM651 880l-106 -122h-74l80 122h100z" />
    <glyph glyph-name="wacute" unicode="&#x1e83;" horiz-adv-x="798" 
d="M425 492l159 -387l116 387h75l-161 -492h-54l-161 386l-161 -386h-54l-161 492h75l116 -387l159 387h52zM550 708l-108 -144h-72l82 144h98z" />
    <glyph glyph-name="Wdieresis" unicode="&#x1e84;" horiz-adv-x="1004" 
d="M539 700l197 -601l166 601h78l-208 -700h-72l-198 611l-198 -611h-72l-208 700h78l166 -601l197 601h74zM338 827q0 20 14 34t36 14t36 -14t14 -34q0 -19 -14 -33.5t-36 -14.5t-36 14.5t-14 33.5zM566 827q0 20 14 34t36 14t36 -14t14 -34q0 -19 -14 -33.5t-36 -14.5
t-36 14.5t-14 33.5z" />
    <glyph glyph-name="wdieresis" unicode="&#x1e85;" horiz-adv-x="798" 
d="M425 492l159 -387l116 387h75l-161 -492h-54l-161 386l-161 -386h-54l-161 492h75l116 -387l159 387h52zM239 638q0 20 14 34t36 14t36 -14t14 -34q0 -19 -14 -33.5t-36 -14.5t-36 14.5t-14 33.5zM459 638q0 20 14 34t36 14t36 -14t14 -34q0 -19 -14 -33.5t-36 -14.5
t-36 14.5t-14 33.5z" />
    <glyph glyph-name="Ygrave" unicode="&#x1ef2;" horiz-adv-x="614" 
d="M307 343l205 357h86l-251 -432v-268h-80v268l-251 432h86zM272 758l-106 122h100l80 -122h-74z" />
    <glyph glyph-name="ygrave" unicode="&#x1ef3;" horiz-adv-x="524" 
d="M263 98l159 394h83l-206 -480l-93 -220h-80l96 226l-203 474h81zM246 564l-108 144h98l82 -144h-72z" />
    <glyph glyph-name="endash" unicode="&#x2013;" horiz-adv-x="569" 
d="M65 265v66h439v-66h-439z" />
    <glyph glyph-name="emdash" unicode="&#x2014;" horiz-adv-x="899" 
d="M65 265v66h769v-66h-769z" />
    <glyph glyph-name="quoteleft" unicode="&#x2018;" horiz-adv-x="266" 
d="M211 700l-64 -240h-92l87 240h69z" />
    <glyph glyph-name="quoteright" unicode="&#x2019;" horiz-adv-x="266" 
d="M55 460l64 240h92l-87 -240h-69z" />
    <glyph glyph-name="quotesinglbase" unicode="&#x201a;" horiz-adv-x="260" 
d="M38 -132l64 240h92l-87 -240h-69z" />
    <glyph glyph-name="quotedblleft" unicode="&#x201c;" horiz-adv-x="490" 
d="M435 700l-64 -240h-92l87 240h69zM211 700l-64 -240h-92l87 240h69z" />
    <glyph glyph-name="quotedblright" unicode="&#x201d;" horiz-adv-x="490" 
d="M55 460l64 240h92l-87 -240h-69zM279 460l64 240h92l-87 -240h-69z" />
    <glyph glyph-name="quotedblbase" unicode="&#x201e;" horiz-adv-x="484" 
d="M38 -132l64 240h92l-87 -240h-69zM262 -132l64 240h92l-87 -240h-69z" />
    <glyph glyph-name="dagger" unicode="&#x2020;" horiz-adv-x="496" 
d="M215 700h66v-175h140v-56h-140v-569h-66v569h-140v56h140v175z" />
    <glyph glyph-name="daggerdbl" unicode="&#x2021;" horiz-adv-x="496" 
d="M281 -100h-66v175h-140v56h140v338h-140v56h140v175h66v-175h140v-56h-140v-338h140v-56h-140v-175z" />
    <glyph glyph-name="bullet" unicode="&#x2022;" horiz-adv-x="394" 
d="M197 440q54 0 88 -33.5t34 -84.5t-34 -84.5t-88 -33.5t-88 33.5t-34 84.5t34 84.5t88 33.5z" />
    <glyph glyph-name="ellipsis" unicode="&#x2026;" horiz-adv-x="744" 
d="M70 44q0 22 15 37t39 15t39 -15t15 -37t-15 -37t-39 -15t-39 15t-15 37zM318 44q0 22 15 37t39 15t39 -15t15 -37t-15 -37t-39 -15t-39 15t-15 37zM566 44q0 22 15 37t39 15t39 -15t15 -37t-15 -37t-39 -15t-39 15t-15 37z" />
    <glyph glyph-name="perthousand" unicode="&#x2030;" horiz-adv-x="1354" 
d="M199 0l451 700h69l-451 -700h-69zM416 533q0 -72 -50.5 -124.5t-131.5 -52.5t-131.5 52.5t-50.5 124.5t50.5 124.5t131.5 52.5t131.5 -52.5t50.5 -124.5zM356 533q0 52 -33.5 88.5t-88.5 36.5q-56 0 -89 -36.5t-33 -88.5q0 -53 33 -89t89 -36q55 0 88.5 36t33.5 89z
M866 167q0 -72 -50.5 -124.5t-131.5 -52.5t-131.5 52.5t-50.5 124.5t50.5 124.5t131.5 52.5t131.5 -52.5t50.5 -124.5zM806 167q0 52 -33.5 88.5t-88.5 36.5q-56 0 -89 -36.5t-33 -88.5q0 -53 33 -89t89 -36q55 0 88.5 36t33.5 89zM1302 167q0 -72 -50.5 -124.5
t-131.5 -52.5t-131.5 52.5t-50.5 124.5t50.5 124.5t131.5 52.5t131.5 -52.5t50.5 -124.5zM1242 167q0 52 -33.5 88.5t-88.5 36.5q-56 0 -89 -36.5t-33 -88.5q0 -53 33 -89t89 -36q55 0 88.5 36t33.5 89z" />
    <glyph glyph-name="guilsinglleft" unicode="&#x2039;" horiz-adv-x="373" 
d="M214 46l-174 212l174 212h89l-175 -212l175 -212h-89z" />
    <glyph glyph-name="guilsinglright" unicode="&#x203a;" horiz-adv-x="373" 
d="M333 258l-174 -212h-89l175 212l-175 212h89z" />
    <glyph glyph-name="fraction" unicode="&#x2044;" horiz-adv-x="519" 
d="M0 0l450 700h69l-450 -700h-69z" />
    <glyph glyph-name="Euro" unicode="&#x20ac;" horiz-adv-x="605" 
d="M469 714q50 0 86 -12v-64q-44 10 -82 10q-186 0 -230 -172h266v-57h-276q-4 -29 -4 -69t4 -69h276v-57h-266q44 -172 230 -172q38 0 82 10v-64q-36 -12 -86 -12q-112 0 -193 60.5t-110 177.5h-116v57h106q-4 29 -4 69t4 69h-106v57h116q29 117 110 177.5t193 60.5z" />
    <glyph glyph-name="published" unicode="&#x2117;" horiz-adv-x="844" 
d="M577 403q0 -52 -36 -88t-93 -36h-85v-105h-48v352h133q57 0 93 -35.5t36 -87.5zM363 321h79q41 0 64 23.5t23 58.5t-23 58t-64 23h-79v-163zM55 350q0 151 102.5 257.5t264.5 106.5t264.5 -106.5t102.5 -257.5t-102.5 -257.5t-264.5 -106.5t-264.5 106.5t-102.5 257.5z
M86 350q0 -138 93.5 -237.5t242.5 -99.5q150 0 243 99.5t93 237.5t-93 237.5t-243 99.5q-149 0 -242.5 -99.5t-93.5 -237.5z" />
    <glyph glyph-name="trademark" unicode="&#x2122;" horiz-adv-x="645" 
d="M257 700v-36h-90v-246h-42v246h-90v36h222zM333 700l113 -212l113 212h31v-282h-39v197l-105 -198l-105 198v-197h-39v282h31z" />
    <glyph glyph-name="minus" unicode="&#x2212;" horiz-adv-x="596" 
d="M70 327v66h456v-66h-456z" />
    <glyph glyph-name="approxequal" unicode="&#x2248;" horiz-adv-x="591" 
d="M112 215l-42 37q53 73 133 73q40 0 108 -34l23.5 -12t25 -12.5t21 -7t25.5 -3.5q26 0 41 9.5t34 30.5l40 -41q-47 -59 -111 -59q-10 0 -20.5 1.5t-18 3t-18.5 6t-15.5 6.5t-17.5 8.5t-16 7.5q-5 3 -20.5 10.5l-21.5 10.5t-18 7.5t-21 6t-19 1.5q-47 0 -92 -50zM112 415
l-42 37q53 73 133 73q40 0 108 -34l23.5 -12t25 -12.5t21 -7t25.5 -3.5q26 0 41 9.5t34 30.5l40 -41q-47 -59 -111 -59q-10 0 -20.5 1.5t-18 3t-18.5 6t-15.5 6.5t-17.5 8.5t-16 7.5q-5 3 -20.5 10.5l-21.5 10.5t-18 7.5t-21 6t-19 1.5q-47 0 -92 -50z" />
    <glyph glyph-name="notequal" unicode="&#x2260;" horiz-adv-x="576" 
d="M70 451v65h254l57 124h72l-57 -124h110v-65h-140l-84 -182h224v-65h-254l-57 -124h-72l57 124h-110v65h140l84 182h-224z" />
    <glyph glyph-name="lessequal" unicode="&#x2264;" horiz-adv-x="565" 
d="M50 0v65h445v-65h-445zM197 378l298 -139v-76l-445 215l445 215v-76z" />
    <glyph glyph-name="greaterequal" unicode="&#x2265;" horiz-adv-x="565" 
d="M515 65v-65h-445v65h445zM70 239l298 139l-298 139v76l445 -215l-445 -215v76z" />
    <glyph glyph-name="apple" unicode="&#xf8ff;" horiz-adv-x="870" 
d="M110 163v362q0 74 50.5 124.5t124.5 50.5h350q74 0 124.5 -50t50.5 -124t-50.5 -124t-124.5 -50h-175v-189q0 -74 -50.5 -124.5t-124.5 -50.5t-124.5 50.5t-50.5 124.5z" />
    <glyph glyph-name="acute.case" horiz-adv-x="340" 
d="M260 880l-106 -122h-74l80 122h100z" />
    <glyph glyph-name="breve.case" horiz-adv-x="494" 
d="M247 758q-69 0 -114 34t-53 88h64q6 -32 33.5 -51t69.5 -19t69.5 19t33.5 51h64q-8 -54 -53 -88t-114 -34z" />
    <glyph glyph-name="caron.case" horiz-adv-x="478" 
d="M398 880l-131 -122h-56l-131 122h80l79 -75l79 75h80z" />
    <glyph glyph-name="circumflex.case" horiz-adv-x="478" 
d="M267 880l131 -122h-80l-79 75l-79 -75h-80l131 122h56z" />
    <glyph glyph-name="dieresis.case" horiz-adv-x="488" 
d="M80 827q0 20 14 34t36 14t36 -14t14 -34q0 -19 -14 -33.5t-36 -14.5t-36 14.5t-14 33.5zM308 827q0 20 14 34t36 14t36 -14t14 -34q0 -19 -14 -33.5t-36 -14.5t-36 14.5t-14 33.5z" />
    <glyph glyph-name="dotaccent.case" horiz-adv-x="262" 
d="M80 820q0 21 14.5 35.5t36.5 14.5t36.5 -14.5t14.5 -35.5t-14.5 -35.5t-36.5 -14.5t-36.5 14.5t-14.5 35.5z" />
    <glyph glyph-name="grave.case" horiz-adv-x="340" 
d="M186 758l-106 122h100l80 -122h-74z" />
    <glyph glyph-name="hungarumlaut.case" horiz-adv-x="558" 
d="M241 880l-85 -122h-76l69 122h92zM478 880l-85 -122h-76l69 122h92z" />
    <glyph glyph-name="macron.case" horiz-adv-x="517" 
d="M80 793v62h357v-62h-357z" />
    <glyph glyph-name="tilde.case" horiz-adv-x="573" 
d="M137 755l-57 12q21 121 103 121q36 0 111 -36t95 -36q7 0 12.5 2t9 4t7 7t5.5 8.5t4 11.5t3 11.5t3 13t3 13.5l57 -11q-9 -55 -30 -87.5t-67 -32.5q-37 0 -110 36t-96 36q-24 0 -34 -16.5t-19 -56.5z" />
    <glyph glyph-name="ring.case" horiz-adv-x="346" 
d="M80 844q0 36 25.5 61t67.5 25t67.5 -25t25.5 -61t-25.5 -61t-67.5 -25t-67.5 25t-25.5 61zM123 844q0 -21 13.5 -35t36.5 -14t36.5 14t13.5 35t-13.5 35t-36.5 14t-36.5 -14t-13.5 -35z" />
    <glyph glyph-name="A.salt" horiz-adv-x="724" 
d="M364 708l335 -708h-82l-67 147h-377l-66 -147h-82l335 708h4zM362 564l-159 -352h318z" />
    <glyph glyph-name="M.salt" horiz-adv-x="894" 
d="M729 455l-281 -463h-2l-281 463v-455h-75v710h2l355 -589l355 589h2v-710h-75v455z" />
    <glyph glyph-name="N.salt" horiz-adv-x="791" 
d="M90 0v710h1l535 -545v535h75v-710h-1l-535 545v-535h-75z" />
    <glyph glyph-name="V.salt" 
d="M640 700l-308 -710h-6l-308 710h78l233 -548l233 548h78z" />
    <glyph glyph-name="W.salt" horiz-adv-x="968" 
d="M486 710l230 -531l155 521h77l-219 -710h-5l-240 558l-240 -558h-5l-219 710h77l155 -521l230 531h4z" />
    <glyph glyph-name="v.salt" horiz-adv-x="524" 
d="M260 -10l-244 502h82l164 -353l164 353h82l-244 -502h-4z" />
    <glyph glyph-name="w.salt" horiz-adv-x="770" 
d="M388 498l173 -347l118 341h75l-181 -502h-2l-186 367l-186 -367h-2l-181 502h75l118 -341l173 347h6z" />
    <glyph glyph-name="Aacute.salt" horiz-adv-x="724" 
d="M364 708l335 -708h-82l-67 147h-377l-66 -147h-82l335 708h4zM362 564l-159 -352h318zM512 880l-106 -122h-74l80 122h100z" />
    <glyph glyph-name="Abreve.salt" horiz-adv-x="724" 
d="M364 708l335 -708h-82l-67 147h-377l-66 -147h-82l335 708h4zM362 564l-159 -352h318zM362 758q-69 0 -114 34t-53 88h64q6 -32 33.5 -51t69.5 -19t69.5 19t33.5 51h64q-8 -54 -53 -88t-114 -34z" />
    <glyph glyph-name="Acircumflex.salt" horiz-adv-x="724" 
d="M364 708l335 -708h-82l-67 147h-377l-66 -147h-82l335 708h4zM362 564l-159 -352h318zM390 880l131 -122h-80l-79 75l-79 -75h-80l131 122h56z" />
    <glyph glyph-name="Adieresis.salt" horiz-adv-x="724" 
d="M364 708l335 -708h-82l-67 147h-377l-66 -147h-82l335 708h4zM362 564l-159 -352h318zM198 827q0 20 14 34t36 14t36 -14t14 -34q0 -19 -14 -33.5t-36 -14.5t-36 14.5t-14 33.5zM426 827q0 20 14 34t36 14t36 -14t14 -34q0 -19 -14 -33.5t-36 -14.5t-36 14.5t-14 33.5z
" />
    <glyph glyph-name="Agrave.salt" horiz-adv-x="724" 
d="M364 708l335 -708h-82l-67 147h-377l-66 -147h-82l335 708h4zM362 564l-159 -352h318zM316 758l-106 122h100l80 -122h-74z" />
    <glyph glyph-name="Amacron.salt" horiz-adv-x="724" 
d="M364 708l335 -708h-82l-67 147h-377l-66 -147h-82l335 708h4zM362 564l-159 -352h318zM184 793v62h357v-62h-357z" />
    <glyph glyph-name="Aogonek.salt" horiz-adv-x="724" 
d="M364 708l335 -708q-26 -20 -40.5 -32.5t-28 -36.5t-13.5 -50q0 -22 15 -35t39 -13q19 0 28 3v-51q-15 -5 -42 -5q-49 0 -77.5 26t-28.5 71q0 43 37.5 78.5t74.5 44.5h-46l-67 147h-377l-66 -147h-82l335 708h4zM362 564l-159 -352h318z" />
    <glyph glyph-name="Atilde.salt" horiz-adv-x="724" 
d="M364 708l335 -708h-82l-67 147h-377l-66 -147h-82l335 708h4zM362 564l-159 -352h318zM213 755l-57 12q21 121 103 121q36 0 111 -36t95 -36q7 0 12.5 2t9 4t7 7t5.5 8.5t4 11.5t3 11.5t3 13t3 13.5l57 -11q-9 -55 -30 -87.5t-67 -32.5q-37 0 -110 36t-96 36
q-24 0 -34 -16.5t-19 -56.5z" />
    <glyph glyph-name="Aring.salt" horiz-adv-x="724" 
d="M269 749q0 36 25.5 61t67.5 25t67.5 -25t25.5 -61q0 -31 -19 -54t-51 -30l314 -665h-82l-67 147h-377l-66 -147h-82l314 665q-32 7 -51 30t-19 54zM362 564l-159 -352h318zM312 749q0 -21 13.5 -35t36.5 -14t36.5 14t13.5 35t-13.5 35t-36.5 14t-36.5 -14t-13.5 -35z" />
    <glyph glyph-name="Aringacute.salt" horiz-adv-x="724" 
d="M497 975l-86 -100h-70l66 100h90zM269 749q0 36 25.5 61t67.5 25t67.5 -25t25.5 -61q0 -31 -19 -54t-51 -30l314 -665h-82l-67 147h-377l-66 -147h-82l314 665q-32 7 -51 30t-19 54zM362 564l-159 -352h318zM312 749q0 -21 13.5 -35t36.5 -14t36.5 14t13.5 35t-13.5 35
t-36.5 14t-36.5 -14t-13.5 -35z" />
    <glyph glyph-name="Nacute.salt" horiz-adv-x="791" 
d="M90 0v710h1l535 -545v535h75v-710h-1l-535 545v-535h-75zM519 880l-106 -122h-74l80 122h100z" />
    <glyph glyph-name="Ncaron.salt" horiz-adv-x="791" 
d="M90 0v710h1l535 -545v535h75v-710h-1l-535 545v-535h-75zM557 880l-131 -122h-56l-131 122h80l79 -75l79 75h80z" />
    <glyph glyph-name="Ncommaaccent.salt" horiz-adv-x="791" 
d="M90 0v710h1l535 -545v535h75v-710h-1l-535 545v-535h-75zM318 -250l48 175h90l-68 -175h-70z" />
    <glyph glyph-name="Ntilde.salt" horiz-adv-x="791" 
d="M90 0v710h1l535 -545v535h75v-710h-1l-535 545v-535h-75zM238 755l-57 12q21 121 103 121q36 0 111 -36t95 -36q7 0 12.5 2t9 4t7 7t5.5 8.5t4 11.5t3 11.5t3 13t3 13.5l57 -11q-9 -55 -30.5 -87.5t-66.5 -32.5q-37 0 -110 36t-96 36q-24 0 -34 -16.5t-19 -56.5z" />
    <glyph glyph-name="Eng.salt" horiz-adv-x="791" 
d="M90 0v710h1l535 -584v574h75v-771q0 -69 -37.5 -109t-104.5 -40q-35 0 -56 8v64q17 -6 38 -6q42 0 62 21.5t20 68.5v90l-458 506v-532h-75z" />
    <glyph glyph-name="Wacute.salt" horiz-adv-x="968" 
d="M486 710l230 -531l155 521h77l-219 -710h-5l-240 558l-240 -558h-5l-219 710h77l155 -521l230 531h4zM633 880l-106 -122h-74l80 122h100z" />
    <glyph glyph-name="Wcircumflex.salt" horiz-adv-x="968" 
d="M486 710l230 -531l155 521h77l-219 -710h-5l-240 558l-240 -558h-5l-219 710h77l155 -521l230 531h4zM512 880l131 -122h-80l-79 75l-79 -75h-80l131 122h56z" />
    <glyph glyph-name="Wdieresis.salt" horiz-adv-x="968" 
d="M486 710l230 -531l155 521h77l-219 -710h-5l-240 558l-240 -558h-5l-219 710h77l155 -521l230 531h4zM320 827q0 20 14 34t36 14t36 -14t14 -34q0 -19 -14 -33.5t-36 -14.5t-36 14.5t-14 33.5zM548 827q0 20 14 34t36 14t36 -14t14 -34q0 -19 -14 -33.5t-36 -14.5
t-36 14.5t-14 33.5z" />
    <glyph glyph-name="Wgrave.salt" horiz-adv-x="968" 
d="M486 710l230 -531l155 521h77l-219 -710h-5l-240 558l-240 -558h-5l-219 710h77l155 -521l230 531h4zM442 758l-106 122h100l80 -122h-74z" />
    <glyph glyph-name="wacute.salt" horiz-adv-x="770" 
d="M388 498l173 -347l118 341h75l-181 -502h-2l-186 367l-186 -367h-2l-181 502h75l118 -341l173 347h6zM536 708l-108 -144h-72l82 144h98z" />
    <glyph glyph-name="wcircumflex.salt" horiz-adv-x="770" 
d="M388 498l173 -347l118 341h75l-181 -502h-2l-186 367l-186 -367h-2l-181 502h75l118 -341l173 347h6zM414 708l132 -144h-79l-82 92l-82 -92h-79l132 144h58z" />
    <glyph glyph-name="wdieresis.salt" horiz-adv-x="770" 
d="M388 498l173 -347l118 341h75l-181 -502h-2l-186 367l-186 -367h-2l-181 502h75l118 -341l173 347h6zM225 638q0 20 14 34t36 14t36 -14t14 -34q0 -19 -14 -33.5t-36 -14.5t-36 14.5t-14 33.5zM445 638q0 20 14 34t36 14t36 -14t14 -34q0 -19 -14 -33.5t-36 -14.5
t-36 14.5t-14 33.5z" />
    <glyph glyph-name="wgrave.salt" horiz-adv-x="770" 
d="M388 498l173 -347l118 341h75l-181 -502h-2l-186 367l-186 -367h-2l-181 502h75l118 -341l173 347h6zM347 564l-108 144h98l82 -144h-72z" />
    </font>
</defs>
</svg>
