<?xml version="1.0" encoding="UTF-8" standalone="no"?>
<!DOCTYPE svg PUBLIC "-//W3C//DTD SVG 1.1//EN"
 "http://www.w3.org/Graphics/SVG/1.1/DTD/svg11.dtd">
<!-- Generated by graphviz version 2.40.1 (20161225.0304)
 -->
<!-- Title: dependencies Pages: 1 -->
<svg width="504pt" height="284pt"
 viewBox="0.00 0.00 504.00 284.00" xmlns="http://www.w3.org/2000/svg" xmlns:xlink="http://www.w3.org/1999/xlink">
<g id="graph0" class="graph" transform="scale(1 1) rotate(0) translate(4 280)">
<title>dependencies</title>
<polygon fill="#ffffff" stroke="transparent" points="-4,4 -4,-280 500,-280 500,4 -4,4"/>
<text text-anchor="start" x="227.0091" y="-42.4" font-family="sans-serif" font-weight="bold" font-size="14.00" fill="#000000">Legend</text>
<polygon fill="#ffffb3" stroke="transparent" points="14,-10 14,-30 34,-30 34,-10 14,-10"/>
<text text-anchor="start" x="37.629" y="-15.4" font-family="sans-serif" font-size="14.00" fill="#000000"> &#160;Declarations</text>
<polygon fill="#8dd3c7" stroke="transparent" points="127,-10 127,-30 147,-30 147,-10 127,-10"/>
<text text-anchor="start" x="150.7251" y="-15.4" font-family="sans-serif" font-size="14.00" fill="#000000"> &#160;Module</text>
<polygon fill="#80b1d3" stroke="transparent" points="213,-10 213,-30 233,-30 233,-10 213,-10"/>
<text text-anchor="start" x="236.7812" y="-15.4" font-family="sans-serif" font-size="14.00" fill="#000000"> &#160;Bootstrap</text>
<polygon fill="#fdb462" stroke="transparent" points="310,-10 310,-30 330,-30 330,-10 310,-10"/>
<text text-anchor="start" x="333.6732" y="-15.4" font-family="sans-serif" font-size="14.00" fill="#000000"> &#160;Providers</text>
<polygon fill="#fb8072" stroke="transparent" points="406,-10 406,-30 426,-30 426,-10 406,-10"/>
<text text-anchor="start" x="429.7258" y="-15.4" font-family="sans-serif" font-size="14.00" fill="#000000"> &#160;Exports</text>
<g id="clust1" class="cluster">
<title>cluster_SubNavModule</title>
<polygon fill="none" stroke="#000000" stroke-dasharray="1,5" points="105,-70 105,-268 391,-268 391,-70 105,-70"/>
</g>
<g id="clust2" class="cluster">
<title>cluster_SubNavModule_declarations</title>
<polygon fill="none" stroke="#000000" points="241,-78 241,-130 383,-130 383,-78 241,-78"/>
</g>
<g id="clust4" class="cluster">
<title>cluster_SubNavModule_imports</title>
<polygon fill="none" stroke="#000000" points="113,-78 113,-130 233,-130 233,-78 113,-78"/>
</g>
<g id="clust5" class="cluster">
<title>cluster_SubNavModule_exports</title>
<polygon fill="none" stroke="#000000" points="175,-208 175,-260 321,-260 321,-208 175,-208"/>
</g>
<!-- SubNavComponent -->
<g id="node1" class="node">
<title>SubNavComponent</title>
<polygon fill="#ffffb3" stroke="#000000" points="375.437,-122 248.563,-122 248.563,-86 375.437,-86 375.437,-122"/>
<text text-anchor="middle" x="312" y="-99.8" font-family="Times,serif" font-size="14.00" fill="#000000">SubNavComponent</text>
</g>
<!-- SubNavModule -->
<g id="node2" class="node">
<title>SubNavModule</title>
<polygon fill="#8dd3c7" stroke="#000000" points="300.1542,-187 297.1542,-191 276.1542,-191 273.1542,-187 195.8458,-187 195.8458,-151 300.1542,-151 300.1542,-187"/>
<text text-anchor="middle" x="248" y="-164.8" font-family="Times,serif" font-size="14.00" fill="#000000">SubNavModule</text>
</g>
<!-- SubNavComponent&#45;&gt;SubNavModule -->
<g id="edge1" class="edge">
<title>SubNavComponent&#45;&gt;SubNavModule</title>
<path fill="none" stroke="#000000" d="M274.5544,-122.1061C274.5544,-122.1061 274.5544,-140.991 274.5544,-140.991"/>
<polygon fill="#000000" stroke="#000000" points="271.0544,-140.9909 274.5544,-150.991 278.0544,-140.991 271.0544,-140.9909"/>
</g>
<!-- SubNavComponent  -->
<g id="node4" class="node">
<title>SubNavComponent </title>
<polygon fill="#fb8072" stroke="#000000" points="312.9362,-252 183.0638,-252 183.0638,-216 312.9362,-216 312.9362,-252"/>
<text text-anchor="middle" x="248" y="-229.8" font-family="Times,serif" font-size="14.00" fill="#000000">SubNavComponent </text>
</g>
<!-- SubNavModule&#45;&gt;SubNavComponent  -->
<g id="edge3" class="edge">
<title>SubNavModule&#45;&gt;SubNavComponent </title>
<path fill="none" stroke="#000000" stroke-dasharray="5,2" d="M248,-187.1061C248,-187.1061 248,-205.991 248,-205.991"/>
<polygon fill="#000000" stroke="#000000" points="244.5001,-205.9909 248,-215.991 251.5001,-205.991 244.5001,-205.9909"/>
</g>
<!-- SidenavModule -->
<g id="node3" class="node">
<title>SidenavModule</title>
<polygon fill="#8dd3c7" stroke="#000000" points="225.1528,-122 222.1528,-126 201.1528,-126 198.1528,-122 120.8472,-122 120.8472,-86 225.1528,-86 225.1528,-122"/>
<text text-anchor="middle" x="173" y="-99.8" font-family="Times,serif" font-size="14.00" fill="#000000">SidenavModule</text>
</g>
<!-- SidenavModule&#45;&gt;SubNavModule -->
<g id="edge2" class="edge">
<title>SidenavModule&#45;&gt;SubNavModule</title>
<path fill="none" stroke="#000000" d="M210.4997,-122.1061C210.4997,-122.1061 210.4997,-140.991 210.4997,-140.991"/>
<polygon fill="#000000" stroke="#000000" points="206.9997,-140.9909 210.4997,-150.991 213.9997,-140.991 206.9997,-140.9909"/>
</g>
</g>
</svg>
