<?xml version="1.0" encoding="UTF-8" standalone="no"?>
<!DOCTYPE svg PUBLIC "-//W3C//DTD SVG 1.1//EN"
 "http://www.w3.org/Graphics/SVG/1.1/DTD/svg11.dtd">
<!-- Generated by graphviz version 2.40.1 (20161225.0304)
 -->
<!-- Title: dependencies Pages: 1 -->
<svg width="611pt" height="284pt"
 viewBox="0.00 0.00 611.00 284.00" xmlns="http://www.w3.org/2000/svg" xmlns:xlink="http://www.w3.org/1999/xlink">
<g id="graph0" class="graph" transform="scale(1 1) rotate(0) translate(4 280)">
<title>dependencies</title>
<polygon fill="#ffffff" stroke="transparent" points="-4,4 -4,-280 607,-280 607,4 -4,4"/>
<text text-anchor="start" x="280.5091" y="-42.4" font-family="sans-serif" font-weight="bold" font-size="14.00" fill="#000000">Legend</text>
<polygon fill="#ffffb3" stroke="transparent" points="67.5,-10 67.5,-30 87.5,-30 87.5,-10 67.5,-10"/>
<text text-anchor="start" x="91.129" y="-15.4" font-family="sans-serif" font-size="14.00" fill="#000000"> &#160;Declarations</text>
<polygon fill="#8dd3c7" stroke="transparent" points="180.5,-10 180.5,-30 200.5,-30 200.5,-10 180.5,-10"/>
<text text-anchor="start" x="204.2251" y="-15.4" font-family="sans-serif" font-size="14.00" fill="#000000"> &#160;Module</text>
<polygon fill="#80b1d3" stroke="transparent" points="266.5,-10 266.5,-30 286.5,-30 286.5,-10 266.5,-10"/>
<text text-anchor="start" x="290.2812" y="-15.4" font-family="sans-serif" font-size="14.00" fill="#000000"> &#160;Bootstrap</text>
<polygon fill="#fdb462" stroke="transparent" points="363.5,-10 363.5,-30 383.5,-30 383.5,-10 363.5,-10"/>
<text text-anchor="start" x="387.1732" y="-15.4" font-family="sans-serif" font-size="14.00" fill="#000000"> &#160;Providers</text>
<polygon fill="#fb8072" stroke="transparent" points="459.5,-10 459.5,-30 479.5,-30 479.5,-10 459.5,-10"/>
<text text-anchor="start" x="483.2258" y="-15.4" font-family="sans-serif" font-size="14.00" fill="#000000"> &#160;Exports</text>
<g id="clust1" class="cluster">
<title>cluster_CheckBoxModule</title>
<polygon fill="none" stroke="#000000" stroke-dasharray="1,5" points="8,-70 8,-268 595,-268 595,-70 8,-70"/>
</g>
<g id="clust2" class="cluster">
<title>cluster_CheckBoxModule_declarations</title>
<polygon fill="none" stroke="#000000" points="431,-78 431,-130 587,-130 587,-78 431,-78"/>
</g>
<g id="clust4" class="cluster">
<title>cluster_CheckBoxModule_imports</title>
<polygon fill="none" stroke="#000000" points="150,-78 150,-130 423,-130 423,-78 150,-78"/>
</g>
<g id="clust5" class="cluster">
<title>cluster_CheckBoxModule_exports</title>
<polygon fill="none" stroke="#000000" points="199,-208 199,-260 359,-260 359,-208 199,-208"/>
</g>
<g id="clust7" class="cluster">
<title>cluster_CheckBoxModule_providers</title>
<polygon fill="none" stroke="#000000" points="16,-78 16,-130 142,-130 142,-78 16,-78"/>
</g>
<!-- CheckBoxComponent -->
<g id="node1" class="node">
<title>CheckBoxComponent</title>
<polygon fill="#ffffb3" stroke="#000000" points="579.4355,-122 438.5645,-122 438.5645,-86 579.4355,-86 579.4355,-122"/>
<text text-anchor="middle" x="509" y="-99.8" font-family="Times,serif" font-size="14.00" fill="#000000">CheckBoxComponent</text>
</g>
<!-- CheckBoxModule -->
<g id="node2" class="node">
<title>CheckBoxModule</title>
<polygon fill="#8dd3c7" stroke="#000000" points="338.1527,-187 335.1527,-191 314.1527,-191 311.1527,-187 219.8473,-187 219.8473,-151 338.1527,-151 338.1527,-187"/>
<text text-anchor="middle" x="279" y="-164.8" font-family="Times,serif" font-size="14.00" fill="#000000">CheckBoxModule</text>
</g>
<!-- CheckBoxComponent&#45;&gt;CheckBoxModule -->
<g id="edge1" class="edge">
<title>CheckBoxComponent&#45;&gt;CheckBoxModule</title>
<path fill="none" stroke="#000000" d="M509,-122.1061C509,-141.3391 509,-169 509,-169 509,-169 348.2307,-169 348.2307,-169"/>
<polygon fill="#000000" stroke="#000000" points="348.2308,-165.5001 338.2307,-169 348.2307,-172.5001 348.2308,-165.5001"/>
</g>
<!-- CheckBoxComponent  -->
<g id="node5" class="node">
<title>CheckBoxComponent </title>
<polygon fill="#fb8072" stroke="#000000" points="350.9348,-252 207.0652,-252 207.0652,-216 350.9348,-216 350.9348,-252"/>
<text text-anchor="middle" x="279" y="-229.8" font-family="Times,serif" font-size="14.00" fill="#000000">CheckBoxComponent </text>
</g>
<!-- CheckBoxModule&#45;&gt;CheckBoxComponent  -->
<g id="edge4" class="edge">
<title>CheckBoxModule&#45;&gt;CheckBoxComponent </title>
<path fill="none" stroke="#000000" stroke-dasharray="5,2" d="M279,-187.1061C279,-187.1061 279,-205.991 279,-205.991"/>
<polygon fill="#000000" stroke="#000000" points="275.5001,-205.9909 279,-215.991 282.5001,-205.991 275.5001,-205.9909"/>
</g>
<!-- ContentWrapModule -->
<g id="node3" class="node">
<title>ContentWrapModule</title>
<polygon fill="#8dd3c7" stroke="#000000" points="415.472,-122 412.472,-126 391.472,-126 388.472,-122 280.528,-122 280.528,-86 415.472,-86 415.472,-122"/>
<text text-anchor="middle" x="348" y="-99.8" font-family="Times,serif" font-size="14.00" fill="#000000">ContentWrapModule</text>
</g>
<!-- ContentWrapModule&#45;&gt;CheckBoxModule -->
<g id="edge2" class="edge">
<title>ContentWrapModule&#45;&gt;CheckBoxModule</title>
<path fill="none" stroke="#000000" d="M309.4201,-122.1061C309.4201,-122.1061 309.4201,-140.991 309.4201,-140.991"/>
<polygon fill="#000000" stroke="#000000" points="305.9201,-140.9909 309.4201,-150.991 312.9201,-140.991 305.9201,-140.9909"/>
</g>
<!-- SubNavModule -->
<g id="node4" class="node">
<title>SubNavModule</title>
<polygon fill="#8dd3c7" stroke="#000000" points="262.1542,-122 259.1542,-126 238.1542,-126 235.1542,-122 157.8458,-122 157.8458,-86 262.1542,-86 262.1542,-122"/>
<text text-anchor="middle" x="210" y="-99.8" font-family="Times,serif" font-size="14.00" fill="#000000">SubNavModule</text>
</g>
<!-- SubNavModule&#45;&gt;CheckBoxModule -->
<g id="edge3" class="edge">
<title>SubNavModule&#45;&gt;CheckBoxModule</title>
<path fill="none" stroke="#000000" d="M241.0004,-122.1061C241.0004,-122.1061 241.0004,-140.991 241.0004,-140.991"/>
<polygon fill="#000000" stroke="#000000" points="237.5004,-140.9909 241.0004,-150.991 244.5004,-140.991 237.5004,-140.9909"/>
</g>
<!-- TextHelper -->
<g id="node6" class="node">
<title>TextHelper</title>
<ellipse fill="#fdb462" stroke="#000000" cx="79" cy="-104" rx="55.013" ry="18"/>
<text text-anchor="middle" x="79" y="-99.8" font-family="Times,serif" font-size="14.00" fill="#000000">TextHelper</text>
</g>
<!-- TextHelper&#45;&gt;CheckBoxModule -->
<g id="edge5" class="edge">
<title>TextHelper&#45;&gt;CheckBoxModule</title>
<path fill="none" stroke="#000000" d="M79,-122.1061C79,-141.3391 79,-169 79,-169 79,-169 209.8052,-169 209.8052,-169"/>
<polygon fill="#000000" stroke="#000000" points="209.8052,-172.5001 219.8052,-169 209.8051,-165.5001 209.8052,-172.5001"/>
</g>
</g>
</svg>
