<?xml version="1.0" encoding="UTF-8" standalone="no"?>
<!DOCTYPE svg PUBLIC "-//W3C//DTD SVG 1.1//EN"
 "http://www.w3.org/Graphics/SVG/1.1/DTD/svg11.dtd">
<!-- Generated by graphviz version 2.40.1 (20161225.0304)
 -->
<!-- Title: dependencies Pages: 1 -->
<svg width="735pt" height="284pt"
 viewBox="0.00 0.00 735.00 284.00" xmlns="http://www.w3.org/2000/svg" xmlns:xlink="http://www.w3.org/1999/xlink">
<g id="graph0" class="graph" transform="scale(1 1) rotate(0) translate(4 280)">
<title>dependencies</title>
<polygon fill="#ffffff" stroke="transparent" points="-4,4 -4,-280 731,-280 731,4 -4,4"/>
<text text-anchor="start" x="342.5091" y="-42.4" font-family="sans-serif" font-weight="bold" font-size="14.00" fill="#000000">Legend</text>
<polygon fill="#ffffb3" stroke="transparent" points="129.5,-10 129.5,-30 149.5,-30 149.5,-10 129.5,-10"/>
<text text-anchor="start" x="153.129" y="-15.4" font-family="sans-serif" font-size="14.00" fill="#000000"> &#160;Declarations</text>
<polygon fill="#8dd3c7" stroke="transparent" points="242.5,-10 242.5,-30 262.5,-30 262.5,-10 242.5,-10"/>
<text text-anchor="start" x="266.2251" y="-15.4" font-family="sans-serif" font-size="14.00" fill="#000000"> &#160;Module</text>
<polygon fill="#80b1d3" stroke="transparent" points="328.5,-10 328.5,-30 348.5,-30 348.5,-10 328.5,-10"/>
<text text-anchor="start" x="352.2812" y="-15.4" font-family="sans-serif" font-size="14.00" fill="#000000"> &#160;Bootstrap</text>
<polygon fill="#fdb462" stroke="transparent" points="425.5,-10 425.5,-30 445.5,-30 445.5,-10 425.5,-10"/>
<text text-anchor="start" x="449.1732" y="-15.4" font-family="sans-serif" font-size="14.00" fill="#000000"> &#160;Providers</text>
<polygon fill="#fb8072" stroke="transparent" points="521.5,-10 521.5,-30 541.5,-30 541.5,-10 521.5,-10"/>
<text text-anchor="start" x="545.2258" y="-15.4" font-family="sans-serif" font-size="14.00" fill="#000000"> &#160;Exports</text>
<g id="clust1" class="cluster">
<title>cluster_ButtonModule</title>
<polygon fill="none" stroke="#000000" stroke-dasharray="1,5" points="8,-70 8,-268 719,-268 719,-70 8,-70"/>
</g>
<g id="clust2" class="cluster">
<title>cluster_ButtonModule_declarations</title>
<polygon fill="none" stroke="#000000" points="431,-78 431,-130 711,-130 711,-78 431,-78"/>
</g>
<g id="clust5" class="cluster">
<title>cluster_ButtonModule_imports</title>
<polygon fill="none" stroke="#000000" points="150,-78 150,-130 423,-130 423,-78 150,-78"/>
</g>
<g id="clust6" class="cluster">
<title>cluster_ButtonModule_exports</title>
<polygon fill="none" stroke="#000000" points="279,-208 279,-260 417,-260 417,-208 279,-208"/>
</g>
<g id="clust8" class="cluster">
<title>cluster_ButtonModule_providers</title>
<polygon fill="none" stroke="#000000" points="16,-78 16,-130 142,-130 142,-78 16,-78"/>
</g>
<!-- ButtonComponent -->
<g id="node1" class="node">
<title>ButtonComponent</title>
<polygon fill="#ffffb3" stroke="#000000" points="702.9511,-122 583.0489,-122 583.0489,-86 702.9511,-86 702.9511,-122"/>
<text text-anchor="middle" x="643" y="-99.8" font-family="Times,serif" font-size="14.00" fill="#000000">ButtonComponent</text>
</g>
<!-- ButtonModule -->
<g id="node3" class="node">
<title>ButtonModule</title>
<polygon fill="#8dd3c7" stroke="#000000" points="396.6682,-187 393.6682,-191 372.6682,-191 369.6682,-187 299.3318,-187 299.3318,-151 396.6682,-151 396.6682,-187"/>
<text text-anchor="middle" x="348" y="-164.8" font-family="Times,serif" font-size="14.00" fill="#000000">ButtonModule</text>
</g>
<!-- ButtonComponent&#45;&gt;ButtonModule -->
<g id="edge1" class="edge">
<title>ButtonComponent&#45;&gt;ButtonModule</title>
<path fill="none" stroke="#000000" d="M643,-122.2843C643,-143.3211 643,-175 643,-175 643,-175 406.7133,-175 406.7133,-175"/>
<polygon fill="#000000" stroke="#000000" points="406.7133,-171.5001 396.7133,-175 406.7132,-178.5001 406.7133,-171.5001"/>
</g>
<!-- ContentComponent -->
<g id="node2" class="node">
<title>ContentComponent</title>
<polygon fill="#ffffb3" stroke="#000000" points="564.6652,-122 439.3348,-122 439.3348,-86 564.6652,-86 564.6652,-122"/>
<text text-anchor="middle" x="502" y="-99.8" font-family="Times,serif" font-size="14.00" fill="#000000">ContentComponent</text>
</g>
<!-- ContentComponent&#45;&gt;ButtonModule -->
<g id="edge2" class="edge">
<title>ContentComponent&#45;&gt;ButtonModule</title>
<path fill="none" stroke="#000000" d="M502,-122.0225C502,-139.3734 502,-163 502,-163 502,-163 406.7266,-163 406.7266,-163"/>
<polygon fill="#000000" stroke="#000000" points="406.7266,-159.5001 396.7266,-163 406.7265,-166.5001 406.7266,-159.5001"/>
</g>
<!-- ButtonComponent  -->
<g id="node6" class="node">
<title>ButtonComponent </title>
<polygon fill="#fb8072" stroke="#000000" points="409.4502,-252 286.5498,-252 286.5498,-216 409.4502,-216 409.4502,-252"/>
<text text-anchor="middle" x="348" y="-229.8" font-family="Times,serif" font-size="14.00" fill="#000000">ButtonComponent </text>
</g>
<!-- ButtonModule&#45;&gt;ButtonComponent  -->
<g id="edge5" class="edge">
<title>ButtonModule&#45;&gt;ButtonComponent </title>
<path fill="none" stroke="#000000" stroke-dasharray="5,2" d="M348,-187.1061C348,-187.1061 348,-205.991 348,-205.991"/>
<polygon fill="#000000" stroke="#000000" points="344.5001,-205.9909 348,-215.991 351.5001,-205.991 344.5001,-205.9909"/>
</g>
<!-- ContentWrapModule -->
<g id="node4" class="node">
<title>ContentWrapModule</title>
<polygon fill="#8dd3c7" stroke="#000000" points="415.472,-122 412.472,-126 391.472,-126 388.472,-122 280.528,-122 280.528,-86 415.472,-86 415.472,-122"/>
<text text-anchor="middle" x="348" y="-99.8" font-family="Times,serif" font-size="14.00" fill="#000000">ContentWrapModule</text>
</g>
<!-- ContentWrapModule&#45;&gt;ButtonModule -->
<g id="edge3" class="edge">
<title>ContentWrapModule&#45;&gt;ButtonModule</title>
<path fill="none" stroke="#000000" d="M348,-122.1061C348,-122.1061 348,-140.991 348,-140.991"/>
<polygon fill="#000000" stroke="#000000" points="344.5001,-140.9909 348,-150.991 351.5001,-140.991 344.5001,-140.9909"/>
</g>
<!-- SubNavModule -->
<g id="node5" class="node">
<title>SubNavModule</title>
<polygon fill="#8dd3c7" stroke="#000000" points="262.1542,-122 259.1542,-126 238.1542,-126 235.1542,-122 157.8458,-122 157.8458,-86 262.1542,-86 262.1542,-122"/>
<text text-anchor="middle" x="210" y="-99.8" font-family="Times,serif" font-size="14.00" fill="#000000">SubNavModule</text>
</g>
<!-- SubNavModule&#45;&gt;ButtonModule -->
<g id="edge4" class="edge">
<title>SubNavModule&#45;&gt;ButtonModule</title>
<path fill="none" stroke="#000000" d="M210,-122.0225C210,-139.3734 210,-163 210,-163 210,-163 288.9578,-163 288.9578,-163"/>
<polygon fill="#000000" stroke="#000000" points="288.9578,-166.5001 298.9578,-163 288.9578,-159.5001 288.9578,-166.5001"/>
</g>
<!-- TextHelper -->
<g id="node7" class="node">
<title>TextHelper</title>
<ellipse fill="#fdb462" stroke="#000000" cx="79" cy="-104" rx="55.013" ry="18"/>
<text text-anchor="middle" x="79" y="-99.8" font-family="Times,serif" font-size="14.00" fill="#000000">TextHelper</text>
</g>
<!-- TextHelper&#45;&gt;ButtonModule -->
<g id="edge6" class="edge">
<title>TextHelper&#45;&gt;ButtonModule</title>
<path fill="none" stroke="#000000" d="M79,-122.2843C79,-143.3211 79,-175 79,-175 79,-175 289.2861,-175 289.2861,-175"/>
<polygon fill="#000000" stroke="#000000" points="289.2862,-178.5001 299.2861,-175 289.2861,-171.5001 289.2862,-178.5001"/>
</g>
</g>
</svg>
