<?xml version="1.0" encoding="UTF-8"?>
<svg width="320px" height="220px" viewBox="0 0 320 220" version="1.1" xmlns="http://www.w3.org/2000/svg" xmlns:xlink="http://www.w3.org/1999/xlink">
    <!-- Generator: Sketch 53 (72520) - https://sketchapp.com -->
    <title>image-upload</title>
    <desc>Created with Sketch.</desc>
    <g id="Generic-application" stroke="none" stroke-width="1" fill="none" fill-rule="evenodd">
        <g id="forms" transform="translate(-920.000000, -501.000000)" fill-rule="nonzero">
            <g id="Group-Copy-10" transform="translate(636.000000, -1452.000000)">
                <g id="image-upload" transform="translate(284.000000, 1953.000000)">
                    <rect id="Rectangle" fill="#E4ECF7" x="0" y="0" width="320" height="220"></rect>
                    <path d="M116.84375,105.578125 L116.84375,112.96875 C116.84375,113.812504 116.662762,114.550778 116.300781,115.183594 C115.9388,115.816409 115.415368,116.303384 114.730469,116.644531 C114.045569,116.985679 113.226567,117.15625 112.273438,117.15625 C110.856764,117.15625 109.755212,116.781254 108.96875,116.03125 C108.182288,115.281246 107.789062,114.250007 107.789062,112.9375 L107.789062,105.578125 L109.664062,105.578125 L109.664062,112.804688 C109.664062,113.747401 109.88281,114.442706 110.320312,114.890625 C110.757815,115.338544 111.429683,115.5625 112.335938,115.5625 C114.096363,115.5625 114.976562,114.63803 114.976562,112.789062 L114.976562,105.578125 L116.84375,105.578125 Z M123.953125,117.15625 C122.85937,117.15625 122.01042,116.763025 121.40625,115.976562 L121.296875,115.976562 C121.369792,116.705733 121.40625,117.148437 121.40625,117.304688 L121.40625,120.84375 L119.570312,120.84375 L119.570312,108.359375 L121.054688,108.359375 C121.096354,108.520834 121.182291,108.906247 121.3125,109.515625 L121.40625,109.515625 C121.97917,108.640621 122.838536,108.203125 123.984375,108.203125 C125.062505,108.203125 125.902341,108.593746 126.503906,109.375 C127.105472,110.156254 127.40625,111.252597 127.40625,112.664062 C127.40625,114.075528 127.100263,115.177079 126.488281,115.96875 C125.876299,116.760421 125.031255,117.15625 123.953125,117.15625 Z M123.507812,109.703125 C122.778642,109.703125 122.246095,109.916665 121.910156,110.34375 C121.574217,110.770835 121.40625,111.45312 121.40625,112.390625 L121.40625,112.664062 C121.40625,113.716151 121.572915,114.477862 121.90625,114.949219 C122.239585,115.420575 122.78385,115.65625 123.539062,115.65625 C124.174482,115.65625 124.664061,115.395836 125.007812,114.875 C125.351564,114.354164 125.523438,113.611984 125.523438,112.648438 C125.523438,111.679683 125.352866,110.946617 125.011719,110.449219 C124.670571,109.95182 124.169274,109.703125 123.507812,109.703125 Z M131.375,117 L129.539062,117 L129.539062,104.84375 L131.375,104.84375 L131.375,117 Z M141.664062,112.664062 C141.664062,114.075528 141.302087,115.177079 140.578125,115.96875 C139.854163,116.760421 138.846361,117.15625 137.554688,117.15625 C136.747392,117.15625 136.033857,116.97396 135.414062,116.609375 C134.794268,116.24479 134.31771,115.721358 133.984375,115.039062 C133.65104,114.356767 133.484375,113.565109 133.484375,112.664062 C133.484375,111.263014 133.843746,110.169275 134.5625,109.382812 C135.281254,108.59635 136.294264,108.203125 137.601562,108.203125 C138.851569,108.203125 139.841142,108.605465 140.570312,109.410156 C141.299483,110.214848 141.664062,111.299472 141.664062,112.664062 Z M135.375,112.664062 C135.375,114.658864 136.111972,115.65625 137.585938,115.65625 C139.044278,115.65625 139.773438,114.658864 139.773438,112.664062 C139.773438,110.690094 139.03907,109.703125 137.570312,109.703125 C136.799475,109.703125 136.240887,109.958331 135.894531,110.46875 C135.548175,110.979169 135.375,111.710933 135.375,112.664062 Z M149.179688,117 L148.8125,115.796875 L148.75,115.796875 C148.333331,116.322919 147.914065,116.680989 147.492188,116.871094 C147.07031,117.061199 146.528649,117.15625 145.867188,117.15625 C145.018225,117.15625 144.355471,116.927086 143.878906,116.46875 C143.402341,116.010414 143.164062,115.361983 143.164062,114.523438 C143.164062,113.632808 143.494788,112.96094 144.15625,112.507812 C144.817712,112.054685 145.825514,111.807292 147.179688,111.765625 L148.671875,111.71875 L148.671875,111.257812 C148.671875,110.705726 148.54297,110.29297 148.285156,110.019531 C148.027342,109.746092 147.627607,109.609375 147.085938,109.609375 C146.643227,109.609375 146.218752,109.674479 145.8125,109.804688 C145.406248,109.934896 145.015627,110.088541 144.640625,110.265625 L144.046875,108.953125 C144.515627,108.708332 145.028643,108.522136 145.585938,108.394531 C146.143232,108.266926 146.669268,108.203125 147.164062,108.203125 C148.263026,108.203125 149.092445,108.442706 149.652344,108.921875 C150.212242,109.401044 150.492188,110.153641 150.492188,111.179688 L150.492188,117 L149.179688,117 Z M146.445312,115.75 C147.111983,115.75 147.647133,115.563804 148.050781,115.191406 C148.454429,114.819009 148.65625,114.296878 148.65625,113.625 L148.65625,112.875 L147.546875,112.921875 C146.682287,112.953125 146.053387,113.097655 145.660156,113.355469 C145.266925,113.613283 145.070312,114.00781 145.070312,114.539062 C145.070312,114.924481 145.184895,115.222655 145.414062,115.433594 C145.64323,115.644532 145.986977,115.75 146.445312,115.75 Z M155.96875,117.15625 C154.89062,117.15625 154.049482,116.765629 153.445312,115.984375 C152.841143,115.203121 152.539062,114.106778 152.539062,112.695312 C152.539062,111.278639 152.845049,110.175785 153.457031,109.386719 C154.069013,108.597652 154.916661,108.203125 156,108.203125 C157.135422,108.203125 157.999997,108.622392 158.59375,109.460938 L158.6875,109.460938 C158.598958,108.841143 158.554688,108.351564 158.554688,107.992188 L158.554688,104.84375 L160.398438,104.84375 L160.398438,117 L158.960938,117 L158.640625,115.867188 L158.554688,115.867188 C157.966143,116.726567 157.104172,117.15625 155.96875,117.15625 Z M156.460938,115.671875 C157.21615,115.671875 157.765623,115.459638 158.109375,115.035156 C158.453127,114.610675 158.630208,113.92188 158.640625,112.96875 L158.640625,112.710938 C158.640625,111.62239 158.463543,110.848961 158.109375,110.390625 C157.755207,109.932289 157.200525,109.703125 156.445312,109.703125 C155.799476,109.703125 155.302085,109.964841 154.953125,110.488281 C154.604165,111.011721 154.429688,111.757808 154.429688,112.726562 C154.429688,113.684901 154.598957,114.415362 154.9375,114.917969 C155.276043,115.420575 155.783851,115.671875 156.460938,115.671875 Z M172.585938,117 L172.21875,115.796875 L172.15625,115.796875 C171.739581,116.322919 171.320315,116.680989 170.898438,116.871094 C170.47656,117.061199 169.934899,117.15625 169.273438,117.15625 C168.424475,117.15625 167.761721,116.927086 167.285156,116.46875 C166.808591,116.010414 166.570312,115.361983 166.570312,114.523438 C166.570312,113.632808 166.901038,112.96094 167.5625,112.507812 C168.223962,112.054685 169.231764,111.807292 170.585938,111.765625 L172.078125,111.71875 L172.078125,111.257812 C172.078125,110.705726 171.94922,110.29297 171.691406,110.019531 C171.433592,109.746092 171.033857,109.609375 170.492188,109.609375 C170.049477,109.609375 169.625002,109.674479 169.21875,109.804688 C168.812498,109.934896 168.421877,110.088541 168.046875,110.265625 L167.453125,108.953125 C167.921877,108.708332 168.434893,108.522136 168.992188,108.394531 C169.549482,108.266926 170.075518,108.203125 170.570312,108.203125 C171.669276,108.203125 172.498695,108.442706 173.058594,108.921875 C173.618492,109.401044 173.898438,110.153641 173.898438,111.179688 L173.898438,117 L172.585938,117 Z M169.851562,115.75 C170.518233,115.75 171.053383,115.563804 171.457031,115.191406 C171.860679,114.819009 172.0625,114.296878 172.0625,113.625 L172.0625,112.875 L170.953125,112.921875 C170.088537,112.953125 169.459637,113.097655 169.066406,113.355469 C168.673175,113.613283 168.476562,114.00781 168.476562,114.539062 C168.476562,114.924481 168.591145,115.222655 168.820312,115.433594 C169.04948,115.644532 169.393227,115.75 169.851562,115.75 Z M184.0625,117 L182.21875,117 L182.21875,111.6875 C182.21875,111.02083 182.084637,110.523439 181.816406,110.195312 C181.548176,109.867186 181.122399,109.703125 180.539062,109.703125 C179.763017,109.703125 179.195314,109.932289 178.835938,110.390625 C178.476561,110.848961 178.296875,111.617182 178.296875,112.695312 L178.296875,117 L176.460938,117 L176.460938,108.359375 L177.898438,108.359375 L178.15625,109.492188 L178.25,109.492188 C178.510418,109.080727 178.880206,108.763022 179.359375,108.539062 C179.838544,108.315103 180.369789,108.203125 180.953125,108.203125 C183.026052,108.203125 184.0625,109.257802 184.0625,111.367188 L184.0625,117 Z M192.609375,117 L190.773438,117 L190.773438,108.359375 L192.609375,108.359375 L192.609375,117 Z M190.664062,106.070312 C190.664062,105.742186 190.753905,105.489584 190.933594,105.3125 C191.113282,105.135416 191.36979,105.046875 191.703125,105.046875 C192.026043,105.046875 192.277343,105.135416 192.457031,105.3125 C192.63672,105.489584 192.726562,105.742186 192.726562,106.070312 C192.726562,106.382814 192.63672,106.628905 192.457031,106.808594 C192.277343,106.988282 192.026043,107.078125 191.703125,107.078125 C191.36979,107.078125 191.113282,106.988282 190.933594,106.808594 C190.753905,106.628905 190.664062,106.382814 190.664062,106.070312 Z M202.515625,117 L200.671875,117 L200.671875,111.671875 C200.671875,111.010413 200.546876,110.516929 200.296875,110.191406 C200.046874,109.865884 199.656253,109.703125 199.125,109.703125 C198.416663,109.703125 197.897137,109.933591 197.566406,110.394531 C197.235675,110.855471 197.070312,111.62239 197.070312,112.695312 L197.070312,117 L195.234375,117 L195.234375,108.359375 L196.671875,108.359375 L196.929688,109.492188 L197.023438,109.492188 C197.263022,109.080727 197.610675,108.763022 198.066406,108.539062 C198.522138,108.315103 199.023435,108.203125 199.570312,108.203125 C200.898444,108.203125 201.778644,108.656245 202.210938,109.5625 L202.335938,109.5625 C202.591147,109.135415 202.950519,108.802085 203.414062,108.5625 C203.877606,108.322915 204.408851,108.203125 205.007812,108.203125 C206.039068,108.203125 206.790362,108.463539 207.261719,108.984375 C207.733075,109.505211 207.96875,110.299474 207.96875,111.367188 L207.96875,117 L206.132812,117 L206.132812,111.671875 C206.132812,111.010413 206.006512,110.516929 205.753906,110.191406 C205.501301,109.865884 205.109378,109.703125 204.578125,109.703125 C203.86458,109.703125 203.34245,109.925779 203.011719,110.371094 C202.680988,110.816408 202.515625,111.499995 202.515625,112.421875 L202.515625,117 Z M215.9375,117 L215.570312,115.796875 L215.507812,115.796875 C215.091144,116.322919 214.671877,116.680989 214.25,116.871094 C213.828123,117.061199 213.286462,117.15625 212.625,117.15625 C211.776037,117.15625 211.113284,116.927086 210.636719,116.46875 C210.160154,116.010414 209.921875,115.361983 209.921875,114.523438 C209.921875,113.632808 210.252601,112.96094 210.914062,112.507812 C211.575524,112.054685 212.583327,111.807292 213.9375,111.765625 L215.429688,111.71875 L215.429688,111.257812 C215.429688,110.705726 215.300783,110.29297 215.042969,110.019531 C214.785155,109.746092 214.385419,109.609375 213.84375,109.609375 C213.401039,109.609375 212.976565,109.674479 212.570312,109.804688 C212.16406,109.934896 211.773439,110.088541 211.398438,110.265625 L210.804688,108.953125 C211.27344,108.708332 211.786456,108.522136 212.34375,108.394531 C212.901044,108.266926 213.427081,108.203125 213.921875,108.203125 C215.020839,108.203125 215.850258,108.442706 216.410156,108.921875 C216.970055,109.401044 217.25,110.153641 217.25,111.179688 L217.25,117 L215.9375,117 Z M213.203125,115.75 C213.869795,115.75 214.404946,115.563804 214.808594,115.191406 C215.212242,114.819009 215.414062,114.296878 215.414062,113.625 L215.414062,112.875 L214.304688,112.921875 C213.4401,112.953125 212.8112,113.097655 212.417969,113.355469 C212.024738,113.613283 211.828125,114.00781 211.828125,114.539062 C211.828125,114.924481 211.942707,115.222655 212.171875,115.433594 C212.401043,115.644532 212.744789,115.75 213.203125,115.75 Z M227.109375,108.359375 L227.109375,109.367188 L225.632812,109.640625 C225.76823,109.822918 225.880208,110.046874 225.96875,110.3125 C226.057292,110.578126 226.101562,110.859374 226.101562,111.15625 C226.101562,112.046879 225.794274,112.747393 225.179688,113.257812 C224.565101,113.768232 223.718755,114.023438 222.640625,114.023438 C222.364582,114.023438 222.114584,114.002604 221.890625,113.960938 C221.49479,114.20573 221.296875,114.492186 221.296875,114.820312 C221.296875,115.01823 221.389322,115.166666 221.574219,115.265625 C221.759116,115.364584 222.098956,115.414062 222.59375,115.414062 L224.101562,115.414062 C225.054692,115.414062 225.778643,115.617185 226.273438,116.023438 C226.768232,116.42969 227.015625,117.015621 227.015625,117.78125 C227.015625,118.760422 226.611983,119.515622 225.804688,120.046875 C224.997392,120.578128 223.830737,120.84375 222.304688,120.84375 C221.127598,120.84375 220.22917,120.635419 219.609375,120.21875 C218.98958,119.802081 218.679688,119.208337 218.679688,118.4375 C218.679688,117.906247 218.847655,117.459637 219.183594,117.097656 C219.519533,116.735675 219.98958,116.484376 220.59375,116.34375 C220.348957,116.239583 220.147136,116.071616 219.988281,115.839844 C219.829426,115.608072 219.75,115.364585 219.75,115.109375 C219.75,114.786457 219.841145,114.513022 220.023438,114.289062 C220.20573,114.065103 220.476561,113.843751 220.835938,113.625 C220.388019,113.432291 220.024741,113.118492 219.746094,112.683594 C219.467447,112.248696 219.328125,111.739586 219.328125,111.15625 C219.328125,110.218745 219.623695,109.49219 220.214844,108.976562 C220.805993,108.460935 221.648432,108.203125 222.742188,108.203125 C222.98698,108.203125 223.243488,108.220052 223.511719,108.253906 C223.779949,108.287761 223.98177,108.322916 224.117188,108.359375 L227.109375,108.359375 Z M220.320312,118.34375 C220.320312,118.739585 220.498696,119.04427 220.855469,119.257812 C221.212241,119.471355 221.713538,119.578125 222.359375,119.578125 C223.35938,119.578125 224.104164,119.434897 224.59375,119.148438 C225.083336,118.861978 225.328125,118.481773 225.328125,118.007812 C225.328125,117.632811 225.194012,117.365886 224.925781,117.207031 C224.657551,117.048176 224.158858,116.96875 223.429688,116.96875 L222.039062,116.96875 C221.513018,116.96875 221.095054,117.092447 220.785156,117.339844 C220.475259,117.587241 220.320312,117.921873 220.320312,118.34375 Z M221.109375,111.15625 C221.109375,111.697919 221.248697,112.114582 221.527344,112.40625 C221.805991,112.697918 222.205727,112.84375 222.726562,112.84375 C223.789068,112.84375 224.320312,112.276047 224.320312,111.140625 C224.320312,110.578122 224.188803,110.144533 223.925781,109.839844 C223.662759,109.535155 223.263024,109.382812 222.726562,109.382812 C222.19531,109.382812 221.79297,109.533853 221.519531,109.835938 C221.246092,110.138022 221.109375,110.578122 221.109375,111.15625 Z M232.484375,117.15625 C231.140618,117.15625 230.089848,116.764327 229.332031,115.980469 C228.574215,115.196611 228.195312,114.117194 228.195312,112.742188 C228.195312,111.330722 228.546871,110.221358 229.25,109.414062 C229.953129,108.606767 230.919265,108.203125 232.148438,108.203125 C233.289068,108.203125 234.190101,108.549476 234.851562,109.242188 C235.513024,109.934899 235.84375,110.888015 235.84375,112.101562 L235.84375,113.09375 L230.085938,113.09375 C230.111979,113.932296 230.33854,114.576821 230.765625,115.027344 C231.19271,115.477867 231.794267,115.703125 232.570312,115.703125 C233.080732,115.703125 233.555987,115.654948 233.996094,115.558594 C234.4362,115.462239 234.908852,115.302084 235.414062,115.078125 L235.414062,116.570312 C234.966144,116.783855 234.513023,116.934895 234.054688,117.023438 C233.596352,117.11198 233.07292,117.15625 232.484375,117.15625 Z M232.148438,109.59375 C231.565101,109.59375 231.097658,109.778644 230.746094,110.148438 C230.394529,110.518231 230.184896,111.057288 230.117188,111.765625 L234.039062,111.765625 C234.028646,111.05208 233.856773,110.511721 233.523438,110.144531 C233.190102,109.777342 232.731774,109.59375 232.148438,109.59375 Z" id="Uploadanimage" fill="#1B51A0"></path>
                    <g id="symbols/icon/publish" transform="translate(76.000000, 101.000000)" fill="#1B51A0">
                        <path d="M8.27599203,16.6666667 L5.83333333,16.6666667 C3.07190958,16.6666667 0.833333333,14.4280904 0.833333333,11.6666667 C0.833333333,9.14921434 2.6938274,7.06630369 5.11484586,6.7179044 C5.67397299,3.83961506 8.20822685,1.66666667 11.25,1.66666667 C14.7017797,1.66666667 17.5,4.46488698 17.5,7.91666667 C17.5,8.51752256 17.4152116,9.09857507 17.2569468,9.64851216 C18.3969435,10.2918188 19.1666667,11.5143535 19.1666667,12.9166667 C19.1666667,14.9877345 17.4877345,16.6666667 15.4166667,16.6666667 L14.1666667,16.6666667 L14.1666667,15 L15.4166667,15 C16.5672599,15 17.5,14.0672599 17.5,12.9166667 C17.5,12.1555253 17.0896871,11.4678496 16.4378545,11.1000167 L15.2911376,10.4529178 L15.6552868,9.18757516 C15.7729266,8.77880131 15.8333333,8.35263641 15.8333333,7.91666667 C15.8333333,5.38536156 13.7813051,3.33333333 11.25,3.33333333 C9.04655553,3.33333333 7.16567966,4.90066035 6.75092901,7.0357246 L6.52499152,8.19881156 L5.35224379,8.3675771 C3.72520722,8.60171756 2.5,10.0043954 2.5,11.6666667 C2.5,13.5076158 3.99238417,15 5.83333333,15 L8.25075874,15 L7.32894176,14.078183 C7.00350485,13.7527461 7.00350485,13.2251086 7.32894176,12.8996717 C7.65437867,12.5742348 8.18201616,12.5742348 8.50745307,12.8996717 L10.8644757,15.2566943 C11.1899126,15.5821312 11.1899126,16.1097687 10.8644757,16.4352056 L8.50745307,18.7922282 C8.18201616,19.1176651 7.65437867,19.1176651 7.32894176,18.7922282 C7.00350485,18.4667913 7.00350485,17.9391538 7.32894176,17.6137169 L8.27599203,16.6666667 Z" id="Combined-Shape"></path>
                    </g>
                </g>
            </g>
        </g>
    </g>
</svg>