<?xml version="1.0" encoding="UTF-8" standalone="no"?>
<!DOCTYPE svg PUBLIC "-//W3C//DTD SVG 1.1//EN"
 "http://www.w3.org/Graphics/SVG/1.1/DTD/svg11.dtd">
<!-- Generated by graphviz version 2.40.1 (20161225.0304)
 -->
<!-- Title: dependencies Pages: 1 -->
<svg width="1550pt" height="284pt"
 viewBox="0.00 0.00 1550.00 284.00" xmlns="http://www.w3.org/2000/svg" xmlns:xlink="http://www.w3.org/1999/xlink">
<g id="graph0" class="graph" transform="scale(1 1) rotate(0) translate(4 280)">
<title>dependencies</title>
<polygon fill="#ffffff" stroke="transparent" points="-4,4 -4,-280 1546,-280 1546,4 -4,4"/>
<text text-anchor="start" x="750.0091" y="-42.4" font-family="sans-serif" font-weight="bold" font-size="14.00" fill="#000000">Legend</text>
<polygon fill="#ffffb3" stroke="transparent" points="537,-10 537,-30 557,-30 557,-10 537,-10"/>
<text text-anchor="start" x="560.629" y="-15.4" font-family="sans-serif" font-size="14.00" fill="#000000"> &#160;Declarations</text>
<polygon fill="#8dd3c7" stroke="transparent" points="650,-10 650,-30 670,-30 670,-10 650,-10"/>
<text text-anchor="start" x="673.7251" y="-15.4" font-family="sans-serif" font-size="14.00" fill="#000000"> &#160;Module</text>
<polygon fill="#80b1d3" stroke="transparent" points="736,-10 736,-30 756,-30 756,-10 736,-10"/>
<text text-anchor="start" x="759.7812" y="-15.4" font-family="sans-serif" font-size="14.00" fill="#000000"> &#160;Bootstrap</text>
<polygon fill="#fdb462" stroke="transparent" points="833,-10 833,-30 853,-30 853,-10 833,-10"/>
<text text-anchor="start" x="856.6732" y="-15.4" font-family="sans-serif" font-size="14.00" fill="#000000"> &#160;Providers</text>
<polygon fill="#fb8072" stroke="transparent" points="929,-10 929,-30 949,-30 949,-10 929,-10"/>
<text text-anchor="start" x="952.7258" y="-15.4" font-family="sans-serif" font-size="14.00" fill="#000000"> &#160;Exports</text>
<g id="clust1" class="cluster">
<title>cluster_AppModule</title>
<polygon fill="none" stroke="#000000" stroke-dasharray="1,5" points="8,-70 8,-268 1534,-268 1534,-70 8,-70"/>
</g>
<g id="clust2" class="cluster">
<title>cluster_AppModule_declarations</title>
<polygon fill="none" stroke="#000000" points="1112,-78 1112,-130 1526,-130 1526,-78 1112,-78"/>
</g>
<g id="clust6" class="cluster">
<title>cluster_AppModule_imports</title>
<polygon fill="none" stroke="#000000" points="16,-78 16,-130 1104,-130 1104,-78 16,-78"/>
</g>
<g id="clust8" class="cluster">
<title>cluster_AppModule_bootstrap</title>
<polygon fill="none" stroke="#000000" points="723,-208 723,-260 847,-260 847,-208 723,-208"/>
</g>
<!-- AppComponent -->
<g id="node1" class="node">
<title>AppComponent</title>
<polygon fill="#ffffb3" stroke="#000000" points="1517.9399,-122 1412.0601,-122 1412.0601,-86 1517.9399,-86 1517.9399,-122"/>
<text text-anchor="middle" x="1465" y="-99.8" font-family="Times,serif" font-size="14.00" fill="#000000">AppComponent</text>
</g>
<!-- AppModule -->
<g id="node4" class="node">
<title>AppModule</title>
<polygon fill="#8dd3c7" stroke="#000000" points="826.6571,-187 823.6571,-191 802.6571,-191 799.6571,-187 743.3429,-187 743.3429,-151 826.6571,-151 826.6571,-187"/>
<text text-anchor="middle" x="785" y="-164.8" font-family="Times,serif" font-size="14.00" fill="#000000">AppModule</text>
</g>
<!-- AppComponent&#45;&gt;AppModule -->
<g id="edge1" class="edge">
<title>AppComponent&#45;&gt;AppModule</title>
<path fill="none" stroke="#000000" d="M1465,-122.2479C1465,-145.0179 1465,-181 1465,-181 1465,-181 836.7683,-181 836.7683,-181"/>
<polygon fill="#000000" stroke="#000000" points="836.7683,-177.5001 826.7683,-181 836.7683,-184.5001 836.7683,-177.5001"/>
</g>
<!-- HeaderComponent -->
<g id="node2" class="node">
<title>HeaderComponent</title>
<polygon fill="#ffffb3" stroke="#000000" points="1393.7437,-122 1272.2563,-122 1272.2563,-86 1393.7437,-86 1393.7437,-122"/>
<text text-anchor="middle" x="1333" y="-99.8" font-family="Times,serif" font-size="14.00" fill="#000000">HeaderComponent</text>
</g>
<!-- HeaderComponent&#45;&gt;AppModule -->
<g id="edge2" class="edge">
<title>HeaderComponent&#45;&gt;AppModule</title>
<path fill="none" stroke="#000000" d="M1333,-122.2843C1333,-143.3211 1333,-175 1333,-175 1333,-175 837.0907,-175 837.0907,-175"/>
<polygon fill="#000000" stroke="#000000" points="837.0907,-171.5001 827.0907,-175 837.0907,-178.5001 837.0907,-171.5001"/>
</g>
<!-- MainNavComponent -->
<g id="node3" class="node">
<title>MainNavComponent</title>
<polygon fill="#ffffb3" stroke="#000000" points="1254.2036,-122 1119.7964,-122 1119.7964,-86 1254.2036,-86 1254.2036,-122"/>
<text text-anchor="middle" x="1187" y="-99.8" font-family="Times,serif" font-size="14.00" fill="#000000">MainNavComponent</text>
</g>
<!-- MainNavComponent&#45;&gt;AppModule -->
<g id="edge3" class="edge">
<title>MainNavComponent&#45;&gt;AppModule</title>
<path fill="none" stroke="#000000" d="M1187,-122.1061C1187,-141.3391 1187,-169 1187,-169 1187,-169 836.8834,-169 836.8834,-169"/>
<polygon fill="#000000" stroke="#000000" points="836.8834,-165.5001 826.8834,-169 836.8834,-172.5001 836.8834,-165.5001"/>
</g>
<!-- AppComponent  -->
<g id="node13" class="node">
<title>AppComponent </title>
<polygon fill="#80b1d3" stroke="#000000" points="839.439,-252 730.561,-252 730.561,-216 839.439,-216 839.439,-252"/>
<text text-anchor="middle" x="785" y="-229.8" font-family="Times,serif" font-size="14.00" fill="#000000">AppComponent </text>
</g>
<!-- AppModule&#45;&gt;AppComponent  -->
<g id="edge12" class="edge">
<title>AppModule&#45;&gt;AppComponent </title>
<path fill="none" stroke="#000000" stroke-dasharray="1,5" d="M785,-187.1061C785,-187.1061 785,-205.991 785,-205.991"/>
<polygon fill="#000000" stroke="#000000" points="781.5001,-205.9909 785,-215.991 788.5001,-205.991 781.5001,-205.9909"/>
</g>
<!-- AccordionModule -->
<g id="node5" class="node">
<title>AccordionModule</title>
<polygon fill="#8dd3c7" stroke="#000000" points="1096.1374,-122 1093.1374,-126 1072.1374,-126 1069.1374,-122 977.8626,-122 977.8626,-86 1096.1374,-86 1096.1374,-122"/>
<text text-anchor="middle" x="1037" y="-99.8" font-family="Times,serif" font-size="14.00" fill="#000000">AccordionModule</text>
</g>
<!-- AccordionModule&#45;&gt;AppModule -->
<g id="edge4" class="edge">
<title>AccordionModule&#45;&gt;AppModule</title>
<path fill="none" stroke="#000000" d="M1037,-122.0225C1037,-139.3734 1037,-163 1037,-163 1037,-163 836.8956,-163 836.8956,-163"/>
<polygon fill="#000000" stroke="#000000" points="836.8956,-159.5001 826.8956,-163 836.8955,-166.5001 836.8956,-159.5001"/>
</g>
<!-- ButtonModule -->
<g id="node6" class="node">
<title>ButtonModule</title>
<polygon fill="#8dd3c7" stroke="#000000" points="959.6682,-122 956.6682,-126 935.6682,-126 932.6682,-122 862.3318,-122 862.3318,-86 959.6682,-86 959.6682,-122"/>
<text text-anchor="middle" x="911" y="-99.8" font-family="Times,serif" font-size="14.00" fill="#000000">ButtonModule</text>
</g>
<!-- ButtonModule&#45;&gt;AppModule -->
<g id="edge5" class="edge">
<title>ButtonModule&#45;&gt;AppModule</title>
<path fill="none" stroke="#000000" d="M911,-122.2396C911,-137.5706 911,-157 911,-157 911,-157 836.9562,-157 836.9562,-157"/>
<polygon fill="#000000" stroke="#000000" points="836.9562,-153.5001 826.9562,-157 836.9561,-160.5001 836.9562,-153.5001"/>
</g>
<!-- CheckBoxModule -->
<g id="node7" class="node">
<title>CheckBoxModule</title>
<polygon fill="#8dd3c7" stroke="#000000" points="844.1527,-122 841.1527,-126 820.1527,-126 817.1527,-122 725.8473,-122 725.8473,-86 844.1527,-86 844.1527,-122"/>
<text text-anchor="middle" x="785" y="-99.8" font-family="Times,serif" font-size="14.00" fill="#000000">CheckBoxModule</text>
</g>
<!-- CheckBoxModule&#45;&gt;AppModule -->
<g id="edge6" class="edge">
<title>CheckBoxModule&#45;&gt;AppModule</title>
<path fill="none" stroke="#000000" d="M785,-122.1061C785,-122.1061 785,-140.991 785,-140.991"/>
<polygon fill="#000000" stroke="#000000" points="781.5001,-140.9909 785,-150.991 788.5001,-140.991 781.5001,-140.9909"/>
</g>
<!-- ContentWrapModule -->
<g id="node8" class="node">
<title>ContentWrapModule</title>
<polygon fill="#8dd3c7" stroke="#000000" points="707.472,-122 704.472,-126 683.472,-126 680.472,-122 572.528,-122 572.528,-86 707.472,-86 707.472,-122"/>
<text text-anchor="middle" x="640" y="-99.8" font-family="Times,serif" font-size="14.00" fill="#000000">ContentWrapModule</text>
</g>
<!-- ContentWrapModule&#45;&gt;AppModule -->
<g id="edge7" class="edge">
<title>ContentWrapModule&#45;&gt;AppModule</title>
<path fill="none" stroke="#000000" d="M640,-122.2396C640,-137.5706 640,-157 640,-157 640,-157 733.06,-157 733.06,-157"/>
<polygon fill="#000000" stroke="#000000" points="733.06,-160.5001 743.06,-157 733.06,-153.5001 733.06,-160.5001"/>
</g>
<!-- NumberInputModule -->
<g id="node9" class="node">
<title>NumberInputModule</title>
<polygon fill="#8dd3c7" stroke="#000000" points="554.4734,-122 551.4734,-126 530.4734,-126 527.4734,-122 419.5266,-122 419.5266,-86 554.4734,-86 554.4734,-122"/>
<text text-anchor="middle" x="487" y="-99.8" font-family="Times,serif" font-size="14.00" fill="#000000">NumberInputModule</text>
</g>
<!-- NumberInputModule&#45;&gt;AppModule -->
<g id="edge8" class="edge">
<title>NumberInputModule&#45;&gt;AppModule</title>
<path fill="none" stroke="#000000" d="M487,-122.0225C487,-139.3734 487,-163 487,-163 487,-163 733.2506,-163 733.2506,-163"/>
<polygon fill="#000000" stroke="#000000" points="733.2506,-166.5001 743.2506,-163 733.2506,-159.5001 733.2506,-166.5001"/>
</g>
<!-- RadioButtonModule -->
<g id="node10" class="node">
<title>RadioButtonModule</title>
<polygon fill="#8dd3c7" stroke="#000000" points="401.6094,-122 398.6094,-126 377.6094,-126 374.6094,-122 270.3906,-122 270.3906,-86 401.6094,-86 401.6094,-122"/>
<text text-anchor="middle" x="336" y="-99.8" font-family="Times,serif" font-size="14.00" fill="#000000">RadioButtonModule</text>
</g>
<!-- RadioButtonModule&#45;&gt;AppModule -->
<g id="edge9" class="edge">
<title>RadioButtonModule&#45;&gt;AppModule</title>
<path fill="none" stroke="#000000" d="M336,-122.1061C336,-141.3391 336,-169 336,-169 336,-169 733.1624,-169 733.1624,-169"/>
<polygon fill="#000000" stroke="#000000" points="733.1624,-172.5001 743.1624,-169 733.1623,-165.5001 733.1624,-172.5001"/>
</g>
<!-- SidenavModule -->
<g id="node11" class="node">
<title>SidenavModule</title>
<polygon fill="#8dd3c7" stroke="#000000" points="252.1528,-122 249.1528,-126 228.1528,-126 225.1528,-122 147.8472,-122 147.8472,-86 252.1528,-86 252.1528,-122"/>
<text text-anchor="middle" x="200" y="-99.8" font-family="Times,serif" font-size="14.00" fill="#000000">SidenavModule</text>
</g>
<!-- SidenavModule&#45;&gt;AppModule -->
<g id="edge10" class="edge">
<title>SidenavModule&#45;&gt;AppModule</title>
<path fill="none" stroke="#000000" d="M200,-122.2843C200,-143.3211 200,-175 200,-175 200,-175 732.9282,-175 732.9282,-175"/>
<polygon fill="#000000" stroke="#000000" points="732.9283,-178.5001 742.9282,-175 732.9282,-171.5001 732.9283,-178.5001"/>
</g>
<!-- SvgIconModule -->
<g id="node12" class="node">
<title>SvgIconModule</title>
<polygon fill="#8dd3c7" stroke="#000000" points="130.2078,-122 127.2078,-126 106.2078,-126 103.2078,-122 23.7922,-122 23.7922,-86 130.2078,-86 130.2078,-122"/>
<text text-anchor="middle" x="77" y="-99.8" font-family="Times,serif" font-size="14.00" fill="#000000">SvgIconModule</text>
</g>
<!-- SvgIconModule&#45;&gt;AppModule -->
<g id="edge11" class="edge">
<title>SvgIconModule&#45;&gt;AppModule</title>
<path fill="none" stroke="#000000" d="M77,-122.2479C77,-145.0179 77,-181 77,-181 77,-181 733.0935,-181 733.0935,-181"/>
<polygon fill="#000000" stroke="#000000" points="733.0935,-184.5001 743.0935,-181 733.0934,-177.5001 733.0935,-184.5001"/>
</g>
</g>
</svg>
