<?xml version="1.0" encoding="UTF-8" standalone="no"?>
<!DOCTYPE svg PUBLIC "-//W3C//DTD SVG 1.1//EN"
 "http://www.w3.org/Graphics/SVG/1.1/DTD/svg11.dtd">
<!-- Generated by graphviz version 2.40.1 (20161225.0304)
 -->
<!-- Title: dependencies Pages: 1 -->
<svg width="623pt" height="284pt"
 viewBox="0.00 0.00 623.00 284.00" xmlns="http://www.w3.org/2000/svg" xmlns:xlink="http://www.w3.org/1999/xlink">
<g id="graph0" class="graph" transform="scale(1 1) rotate(0) translate(4 280)">
<title>dependencies</title>
<polygon fill="#ffffff" stroke="transparent" points="-4,4 -4,-280 619,-280 619,4 -4,4"/>
<text text-anchor="start" x="286.5091" y="-42.4" font-family="sans-serif" font-weight="bold" font-size="14.00" fill="#000000">Legend</text>
<polygon fill="#ffffb3" stroke="transparent" points="73.5,-10 73.5,-30 93.5,-30 93.5,-10 73.5,-10"/>
<text text-anchor="start" x="97.129" y="-15.4" font-family="sans-serif" font-size="14.00" fill="#000000"> &#160;Declarations</text>
<polygon fill="#8dd3c7" stroke="transparent" points="186.5,-10 186.5,-30 206.5,-30 206.5,-10 186.5,-10"/>
<text text-anchor="start" x="210.2251" y="-15.4" font-family="sans-serif" font-size="14.00" fill="#000000"> &#160;Module</text>
<polygon fill="#80b1d3" stroke="transparent" points="272.5,-10 272.5,-30 292.5,-30 292.5,-10 272.5,-10"/>
<text text-anchor="start" x="296.2812" y="-15.4" font-family="sans-serif" font-size="14.00" fill="#000000"> &#160;Bootstrap</text>
<polygon fill="#fdb462" stroke="transparent" points="369.5,-10 369.5,-30 389.5,-30 389.5,-10 369.5,-10"/>
<text text-anchor="start" x="393.1732" y="-15.4" font-family="sans-serif" font-size="14.00" fill="#000000"> &#160;Providers</text>
<polygon fill="#fb8072" stroke="transparent" points="465.5,-10 465.5,-30 485.5,-30 485.5,-10 465.5,-10"/>
<text text-anchor="start" x="489.2258" y="-15.4" font-family="sans-serif" font-size="14.00" fill="#000000"> &#160;Exports</text>
<g id="clust1" class="cluster">
<title>cluster_RadioButtonModule</title>
<polygon fill="none" stroke="#000000" stroke-dasharray="1,5" points="8,-70 8,-268 607,-268 607,-70 8,-70"/>
</g>
<g id="clust2" class="cluster">
<title>cluster_RadioButtonModule_declarations</title>
<polygon fill="none" stroke="#000000" points="431,-78 431,-130 599,-130 599,-78 431,-78"/>
</g>
<g id="clust4" class="cluster">
<title>cluster_RadioButtonModule_imports</title>
<polygon fill="none" stroke="#000000" points="150,-78 150,-130 423,-130 423,-78 150,-78"/>
</g>
<g id="clust5" class="cluster">
<title>cluster_RadioButtonModule_exports</title>
<polygon fill="none" stroke="#000000" points="193,-208 193,-260 365,-260 365,-208 193,-208"/>
</g>
<g id="clust7" class="cluster">
<title>cluster_RadioButtonModule_providers</title>
<polygon fill="none" stroke="#000000" points="16,-78 16,-130 142,-130 142,-78 16,-78"/>
</g>
<!-- RadioButtonComponent -->
<g id="node1" class="node">
<title>RadioButtonComponent</title>
<polygon fill="#ffffb3" stroke="#000000" points="591.392,-122 438.608,-122 438.608,-86 591.392,-86 591.392,-122"/>
<text text-anchor="middle" x="515" y="-99.8" font-family="Times,serif" font-size="14.00" fill="#000000">RadioButtonComponent</text>
</g>
<!-- RadioButtonModule -->
<g id="node2" class="node">
<title>RadioButtonModule</title>
<polygon fill="#8dd3c7" stroke="#000000" points="344.6094,-187 341.6094,-191 320.6094,-191 317.6094,-187 213.3906,-187 213.3906,-151 344.6094,-151 344.6094,-187"/>
<text text-anchor="middle" x="279" y="-164.8" font-family="Times,serif" font-size="14.00" fill="#000000">RadioButtonModule</text>
</g>
<!-- RadioButtonComponent&#45;&gt;RadioButtonModule -->
<g id="edge1" class="edge">
<title>RadioButtonComponent&#45;&gt;RadioButtonModule</title>
<path fill="none" stroke="#000000" d="M515,-122.1061C515,-141.3391 515,-169 515,-169 515,-169 354.7392,-169 354.7392,-169"/>
<polygon fill="#000000" stroke="#000000" points="354.7392,-165.5001 344.7392,-169 354.7391,-172.5001 354.7392,-165.5001"/>
</g>
<!-- RadioButtonComponent  -->
<g id="node5" class="node">
<title>RadioButtonComponent </title>
<polygon fill="#fb8072" stroke="#000000" points="357.3925,-252 200.6075,-252 200.6075,-216 357.3925,-216 357.3925,-252"/>
<text text-anchor="middle" x="279" y="-229.8" font-family="Times,serif" font-size="14.00" fill="#000000">RadioButtonComponent </text>
</g>
<!-- RadioButtonModule&#45;&gt;RadioButtonComponent  -->
<g id="edge4" class="edge">
<title>RadioButtonModule&#45;&gt;RadioButtonComponent </title>
<path fill="none" stroke="#000000" stroke-dasharray="5,2" d="M279,-187.1061C279,-187.1061 279,-205.991 279,-205.991"/>
<polygon fill="#000000" stroke="#000000" points="275.5001,-205.9909 279,-215.991 282.5001,-205.991 275.5001,-205.9909"/>
</g>
<!-- ContentWrapModule -->
<g id="node3" class="node">
<title>ContentWrapModule</title>
<polygon fill="#8dd3c7" stroke="#000000" points="415.472,-122 412.472,-126 391.472,-126 388.472,-122 280.528,-122 280.528,-86 415.472,-86 415.472,-122"/>
<text text-anchor="middle" x="348" y="-99.8" font-family="Times,serif" font-size="14.00" fill="#000000">ContentWrapModule</text>
</g>
<!-- ContentWrapModule&#45;&gt;RadioButtonModule -->
<g id="edge2" class="edge">
<title>ContentWrapModule&#45;&gt;RadioButtonModule</title>
<path fill="none" stroke="#000000" d="M312.5344,-122.1061C312.5344,-122.1061 312.5344,-140.991 312.5344,-140.991"/>
<polygon fill="#000000" stroke="#000000" points="309.0344,-140.9909 312.5344,-150.991 316.0344,-140.991 309.0344,-140.9909"/>
</g>
<!-- SubNavModule -->
<g id="node4" class="node">
<title>SubNavModule</title>
<polygon fill="#8dd3c7" stroke="#000000" points="262.1542,-122 259.1542,-126 238.1542,-126 235.1542,-122 157.8458,-122 157.8458,-86 262.1542,-86 262.1542,-122"/>
<text text-anchor="middle" x="210" y="-99.8" font-family="Times,serif" font-size="14.00" fill="#000000">SubNavModule</text>
</g>
<!-- SubNavModule&#45;&gt;RadioButtonModule -->
<g id="edge3" class="edge">
<title>SubNavModule&#45;&gt;RadioButtonModule</title>
<path fill="none" stroke="#000000" d="M237.8861,-122.1061C237.8861,-122.1061 237.8861,-140.991 237.8861,-140.991"/>
<polygon fill="#000000" stroke="#000000" points="234.3861,-140.9909 237.8861,-150.991 241.3861,-140.991 234.3861,-140.9909"/>
</g>
<!-- TextHelper -->
<g id="node6" class="node">
<title>TextHelper</title>
<ellipse fill="#fdb462" stroke="#000000" cx="79" cy="-104" rx="55.013" ry="18"/>
<text text-anchor="middle" x="79" y="-99.8" font-family="Times,serif" font-size="14.00" fill="#000000">TextHelper</text>
</g>
<!-- TextHelper&#45;&gt;RadioButtonModule -->
<g id="edge5" class="edge">
<title>TextHelper&#45;&gt;RadioButtonModule</title>
<path fill="none" stroke="#000000" d="M79,-122.1061C79,-141.3391 79,-169 79,-169 79,-169 203.2355,-169 203.2355,-169"/>
<polygon fill="#000000" stroke="#000000" points="203.2355,-172.5001 213.2355,-169 203.2355,-165.5001 203.2355,-172.5001"/>
</g>
</g>
</svg>
