<?xml version="1.0" encoding="UTF-8" standalone="no"?>
<!DOCTYPE svg PUBLIC "-//W3C//DTD SVG 1.1//EN"
 "http://www.w3.org/Graphics/SVG/1.1/DTD/svg11.dtd">
<!-- Generated by graphviz version 2.40.1 (20161225.0304)
 -->
<!-- Title: dependencies Pages: 1 -->
<svg width="504pt" height="284pt"
 viewBox="0.00 0.00 504.00 284.00" xmlns="http://www.w3.org/2000/svg" xmlns:xlink="http://www.w3.org/1999/xlink">
<g id="graph0" class="graph" transform="scale(1 1) rotate(0) translate(4 280)">
<title>dependencies</title>
<polygon fill="#ffffff" stroke="transparent" points="-4,4 -4,-280 500,-280 500,4 -4,4"/>
<text text-anchor="start" x="227.0091" y="-42.4" font-family="sans-serif" font-weight="bold" font-size="14.00" fill="#000000">Legend</text>
<polygon fill="#ffffb3" stroke="transparent" points="14,-10 14,-30 34,-30 34,-10 14,-10"/>
<text text-anchor="start" x="37.629" y="-15.4" font-family="sans-serif" font-size="14.00" fill="#000000"> &#160;Declarations</text>
<polygon fill="#8dd3c7" stroke="transparent" points="127,-10 127,-30 147,-30 147,-10 127,-10"/>
<text text-anchor="start" x="150.7251" y="-15.4" font-family="sans-serif" font-size="14.00" fill="#000000"> &#160;Module</text>
<polygon fill="#80b1d3" stroke="transparent" points="213,-10 213,-30 233,-30 233,-10 213,-10"/>
<text text-anchor="start" x="236.7812" y="-15.4" font-family="sans-serif" font-size="14.00" fill="#000000"> &#160;Bootstrap</text>
<polygon fill="#fdb462" stroke="transparent" points="310,-10 310,-30 330,-30 330,-10 310,-10"/>
<text text-anchor="start" x="333.6732" y="-15.4" font-family="sans-serif" font-size="14.00" fill="#000000"> &#160;Providers</text>
<polygon fill="#fb8072" stroke="transparent" points="406,-10 406,-30 426,-30 426,-10 406,-10"/>
<text text-anchor="start" x="429.7258" y="-15.4" font-family="sans-serif" font-size="14.00" fill="#000000"> &#160;Exports</text>
<g id="clust1" class="cluster">
<title>cluster_SidenavModule</title>
<polygon fill="none" stroke="#000000" stroke-dasharray="1,5" points="84,-70 84,-268 412,-268 412,-70 84,-70"/>
</g>
<g id="clust2" class="cluster">
<title>cluster_SidenavModule_declarations</title>
<polygon fill="none" stroke="#000000" points="96,-78 96,-130 400,-130 400,-78 96,-78"/>
</g>
<g id="clust6" class="cluster">
<title>cluster_SidenavModule_exports</title>
<polygon fill="none" stroke="#000000" points="92,-208 92,-260 404,-260 404,-208 92,-208"/>
</g>
<!-- SidenavComponent -->
<g id="node1" class="node">
<title>SidenavComponent</title>
<polygon fill="#ffffb3" stroke="#000000" points="392.4356,-122 265.5644,-122 265.5644,-86 392.4356,-86 392.4356,-122"/>
<text text-anchor="middle" x="329" y="-99.8" font-family="Times,serif" font-size="14.00" fill="#000000">SidenavComponent</text>
</g>
<!-- SidenavModule -->
<g id="node3" class="node">
<title>SidenavModule</title>
<polygon fill="#8dd3c7" stroke="#000000" points="229.1528,-187 226.1528,-191 205.1528,-191 202.1528,-187 124.8472,-187 124.8472,-151 229.1528,-151 229.1528,-187"/>
<text text-anchor="middle" x="177" y="-164.8" font-family="Times,serif" font-size="14.00" fill="#000000">SidenavModule</text>
</g>
<!-- SidenavComponent&#45;&gt;SidenavModule -->
<g id="edge1" class="edge">
<title>SidenavComponent&#45;&gt;SidenavModule</title>
<path fill="none" stroke="#000000" d="M350.1558,-122.0225C350.1558,-139.3734 350.1558,-163 350.1558,-163 350.1558,-163 239.4224,-163 239.4224,-163"/>
<polygon fill="#000000" stroke="#000000" points="239.4224,-159.5001 229.4224,-163 239.4223,-166.5001 239.4224,-159.5001"/>
</g>
<!-- SidenavSetComponent -->
<g id="node2" class="node">
<title>SidenavSetComponent</title>
<polygon fill="#ffffb3" stroke="#000000" points="248.323,-122 103.677,-122 103.677,-86 248.323,-86 248.323,-122"/>
<text text-anchor="middle" x="176" y="-99.8" font-family="Times,serif" font-size="14.00" fill="#000000">SidenavSetComponent</text>
</g>
<!-- SidenavSetComponent&#45;&gt;SidenavModule -->
<g id="edge2" class="edge">
<title>SidenavSetComponent&#45;&gt;SidenavModule</title>
<path fill="none" stroke="#000000" d="M177,-122.1061C177,-122.1061 177,-140.991 177,-140.991"/>
<polygon fill="#000000" stroke="#000000" points="173.5001,-140.9909 177,-150.991 180.5001,-140.991 173.5001,-140.9909"/>
</g>
<!-- SidenavComponent  -->
<g id="node4" class="node">
<title>SidenavComponent </title>
<polygon fill="#fb8072" stroke="#000000" points="395.9348,-252 266.0652,-252 266.0652,-216 395.9348,-216 395.9348,-252"/>
<text text-anchor="middle" x="331" y="-229.8" font-family="Times,serif" font-size="14.00" fill="#000000">SidenavComponent </text>
</g>
<!-- SidenavModule&#45;&gt;SidenavComponent  -->
<g id="edge3" class="edge">
<title>SidenavModule&#45;&gt;SidenavComponent </title>
<path fill="none" stroke="#000000" stroke-dasharray="5,2" d="M229.1886,-175C265.7465,-175 308.0942,-175 308.0942,-175 308.0942,-175 308.0942,-205.9775 308.0942,-205.9775"/>
<polygon fill="#000000" stroke="#000000" points="304.5943,-205.9774 308.0942,-215.9775 311.5943,-205.9775 304.5943,-205.9774"/>
</g>
<!-- SidenavSetComponent  -->
<g id="node5" class="node">
<title>SidenavSetComponent </title>
<polygon fill="#fb8072" stroke="#000000" points="247.8227,-252 100.1773,-252 100.1773,-216 247.8227,-216 247.8227,-252"/>
<text text-anchor="middle" x="174" y="-229.8" font-family="Times,serif" font-size="14.00" fill="#000000">SidenavSetComponent </text>
</g>
<!-- SidenavModule&#45;&gt;SidenavSetComponent  -->
<g id="edge4" class="edge">
<title>SidenavModule&#45;&gt;SidenavSetComponent </title>
<path fill="none" stroke="#000000" stroke-dasharray="5,2" d="M177,-187.1061C177,-187.1061 177,-205.991 177,-205.991"/>
<polygon fill="#000000" stroke="#000000" points="173.5001,-205.9909 177,-215.991 180.5001,-205.991 173.5001,-205.9909"/>
</g>
</g>
</svg>
