<?xml version="1.0" encoding="UTF-8" standalone="no"?>
<!DOCTYPE svg PUBLIC "-//W3C//DTD SVG 1.1//EN"
 "http://www.w3.org/Graphics/SVG/1.1/DTD/svg11.dtd">
<!-- Generated by graphviz version 2.40.1 (20161225.0304)
 -->
<!-- Title: dependencies Pages: 1 -->
<svg width="633pt" height="284pt"
 viewBox="0.00 0.00 633.00 284.00" xmlns="http://www.w3.org/2000/svg" xmlns:xlink="http://www.w3.org/1999/xlink">
<g id="graph0" class="graph" transform="scale(1 1) rotate(0) translate(4 280)">
<title>dependencies</title>
<polygon fill="#ffffff" stroke="transparent" points="-4,4 -4,-280 629,-280 629,4 -4,4"/>
<text text-anchor="start" x="291.5091" y="-42.4" font-family="sans-serif" font-weight="bold" font-size="14.00" fill="#000000">Legend</text>
<polygon fill="#ffffb3" stroke="transparent" points="78.5,-10 78.5,-30 98.5,-30 98.5,-10 78.5,-10"/>
<text text-anchor="start" x="102.129" y="-15.4" font-family="sans-serif" font-size="14.00" fill="#000000"> &#160;Declarations</text>
<polygon fill="#8dd3c7" stroke="transparent" points="191.5,-10 191.5,-30 211.5,-30 211.5,-10 191.5,-10"/>
<text text-anchor="start" x="215.2251" y="-15.4" font-family="sans-serif" font-size="14.00" fill="#000000"> &#160;Module</text>
<polygon fill="#80b1d3" stroke="transparent" points="277.5,-10 277.5,-30 297.5,-30 297.5,-10 277.5,-10"/>
<text text-anchor="start" x="301.2812" y="-15.4" font-family="sans-serif" font-size="14.00" fill="#000000"> &#160;Bootstrap</text>
<polygon fill="#fdb462" stroke="transparent" points="374.5,-10 374.5,-30 394.5,-30 394.5,-10 374.5,-10"/>
<text text-anchor="start" x="398.1732" y="-15.4" font-family="sans-serif" font-size="14.00" fill="#000000"> &#160;Providers</text>
<polygon fill="#fb8072" stroke="transparent" points="470.5,-10 470.5,-30 490.5,-30 490.5,-10 470.5,-10"/>
<text text-anchor="start" x="494.2258" y="-15.4" font-family="sans-serif" font-size="14.00" fill="#000000"> &#160;Exports</text>
<g id="clust1" class="cluster">
<title>cluster_SvgIconModule</title>
<polygon fill="none" stroke="#000000" stroke-dasharray="1,5" points="8,-70 8,-268 617,-268 617,-70 8,-70"/>
</g>
<g id="clust2" class="cluster">
<title>cluster_SvgIconModule_declarations</title>
<polygon fill="none" stroke="#000000" points="431,-78 431,-130 609,-130 609,-78 431,-78"/>
</g>
<g id="clust4" class="cluster">
<title>cluster_SvgIconModule_imports</title>
<polygon fill="none" stroke="#000000" points="150,-78 150,-130 423,-130 423,-78 150,-78"/>
</g>
<g id="clust5" class="cluster">
<title>cluster_SvgIconModule_exports</title>
<polygon fill="none" stroke="#000000" points="188,-208 188,-260 370,-260 370,-208 188,-208"/>
</g>
<g id="clust7" class="cluster">
<title>cluster_SvgIconModule_providers</title>
<polygon fill="none" stroke="#000000" points="16,-78 16,-130 142,-130 142,-78 16,-78"/>
</g>
<!-- DemoSvgIconComponent -->
<g id="node1" class="node">
<title>DemoSvgIconComponent</title>
<polygon fill="#ffffb3" stroke="#000000" points="601.2021,-122 438.7979,-122 438.7979,-86 601.2021,-86 601.2021,-122"/>
<text text-anchor="middle" x="520" y="-99.8" font-family="Times,serif" font-size="14.00" fill="#000000">DemoSvgIconComponent</text>
</g>
<!-- SvgIconModule -->
<g id="node2" class="node">
<title>SvgIconModule</title>
<polygon fill="#8dd3c7" stroke="#000000" points="332.2078,-187 329.2078,-191 308.2078,-191 305.2078,-187 225.7922,-187 225.7922,-151 332.2078,-151 332.2078,-187"/>
<text text-anchor="middle" x="279" y="-164.8" font-family="Times,serif" font-size="14.00" fill="#000000">SvgIconModule</text>
</g>
<!-- DemoSvgIconComponent&#45;&gt;SvgIconModule -->
<g id="edge1" class="edge">
<title>DemoSvgIconComponent&#45;&gt;SvgIconModule</title>
<path fill="none" stroke="#000000" d="M520,-122.1061C520,-141.3391 520,-169 520,-169 520,-169 342.1868,-169 342.1868,-169"/>
<polygon fill="#000000" stroke="#000000" points="342.1869,-165.5001 332.1868,-169 342.1868,-172.5001 342.1869,-165.5001"/>
</g>
<!-- DemoSvgIconComponent  -->
<g id="node5" class="node">
<title>DemoSvgIconComponent </title>
<polygon fill="#fb8072" stroke="#000000" points="361.7023,-252 196.2977,-252 196.2977,-216 361.7023,-216 361.7023,-252"/>
<text text-anchor="middle" x="279" y="-229.8" font-family="Times,serif" font-size="14.00" fill="#000000">DemoSvgIconComponent </text>
</g>
<!-- SvgIconModule&#45;&gt;DemoSvgIconComponent  -->
<g id="edge4" class="edge">
<title>SvgIconModule&#45;&gt;DemoSvgIconComponent </title>
<path fill="none" stroke="#000000" stroke-dasharray="5,2" d="M279,-187.1061C279,-187.1061 279,-205.991 279,-205.991"/>
<polygon fill="#000000" stroke="#000000" points="275.5001,-205.9909 279,-215.991 282.5001,-205.991 275.5001,-205.9909"/>
</g>
<!-- ContentWrapModule -->
<g id="node3" class="node">
<title>ContentWrapModule</title>
<polygon fill="#8dd3c7" stroke="#000000" points="415.472,-122 412.472,-126 391.472,-126 388.472,-122 280.528,-122 280.528,-86 415.472,-86 415.472,-122"/>
<text text-anchor="middle" x="348" y="-99.8" font-family="Times,serif" font-size="14.00" fill="#000000">ContentWrapModule</text>
</g>
<!-- ContentWrapModule&#45;&gt;SvgIconModule -->
<g id="edge2" class="edge">
<title>ContentWrapModule&#45;&gt;SvgIconModule</title>
<path fill="none" stroke="#000000" d="M306.3089,-122.1061C306.3089,-122.1061 306.3089,-140.991 306.3089,-140.991"/>
<polygon fill="#000000" stroke="#000000" points="302.809,-140.9909 306.3089,-150.991 309.809,-140.991 302.809,-140.9909"/>
</g>
<!-- SubNavModule -->
<g id="node4" class="node">
<title>SubNavModule</title>
<polygon fill="#8dd3c7" stroke="#000000" points="262.1542,-122 259.1542,-126 238.1542,-126 235.1542,-122 157.8458,-122 157.8458,-86 262.1542,-86 262.1542,-122"/>
<text text-anchor="middle" x="210" y="-99.8" font-family="Times,serif" font-size="14.00" fill="#000000">SubNavModule</text>
</g>
<!-- SubNavModule&#45;&gt;SvgIconModule -->
<g id="edge3" class="edge">
<title>SubNavModule&#45;&gt;SvgIconModule</title>
<path fill="none" stroke="#000000" d="M244.1115,-122.1061C244.1115,-122.1061 244.1115,-140.991 244.1115,-140.991"/>
<polygon fill="#000000" stroke="#000000" points="240.6116,-140.9909 244.1115,-150.991 247.6116,-140.991 240.6116,-140.9909"/>
</g>
<!-- TextHelper -->
<g id="node6" class="node">
<title>TextHelper</title>
<ellipse fill="#fdb462" stroke="#000000" cx="79" cy="-104" rx="55.013" ry="18"/>
<text text-anchor="middle" x="79" y="-99.8" font-family="Times,serif" font-size="14.00" fill="#000000">TextHelper</text>
</g>
<!-- TextHelper&#45;&gt;SvgIconModule -->
<g id="edge5" class="edge">
<title>TextHelper&#45;&gt;SvgIconModule</title>
<path fill="none" stroke="#000000" d="M79,-122.1061C79,-141.3391 79,-169 79,-169 79,-169 215.6664,-169 215.6664,-169"/>
<polygon fill="#000000" stroke="#000000" points="215.6664,-172.5001 225.6664,-169 215.6664,-165.5001 215.6664,-172.5001"/>
</g>
</g>
</svg>
